<?xml version="1.0" encoding="UTF-8" standalone="no"?>
<svg
   width="600"
   height="600"
   viewBox="0 0 600 600"
   version="1.1"
   xml:space="preserve"
   style="clip-rule:evenodd;fill-rule:evenodd;stroke-linejoin:round;stroke-miterlimit:2"
   id="svg23"
   sodipodi:docname="bg-logo_light.svg"
   inkscape:version="1.3 (0e150ed6c4, 2023-07-21)"
   xmlns:inkscape="http://www.inkscape.org/namespaces/inkscape"
   xmlns:sodipodi="http://sodipodi.sourceforge.net/DTD/sodipodi-0.dtd"
   xmlns="http://www.w3.org/2000/svg"
   xmlns:svg="http://www.w3.org/2000/svg"><defs
     id="defs23" /><sodipodi:namedview
     id="namedview23"
     pagecolor="#ffffff"
     bordercolor="#000000"
     borderopacity="0.25"
     inkscape:showpageshadow="2"
     inkscape:pageopacity="0.0"
     inkscape:pagecheckerboard="true"
     inkscape:deskcolor="#d1d1d1"
     inkscape:zoom="1.307047"
     inkscape:cx="159.90244"
     inkscape:cy="250.56482"
     inkscape:window-width="1920"
     inkscape:window-height="1017"
     inkscape:window-x="1912"
     inkscape:window-y="337"
     inkscape:window-maximized="1"
     inkscape:current-layer="svg23" /><path
     style="fill:#1b445f;fill-opacity:1;fill-rule:nonzero"
     d="m 365.71289,550.1975 c -0.0219,0.009 -0.0403,0.0267 -0.0488,0.0527 0,0.009 0.001,0.008 -0.008,0.0176 -0.035,0.167 -0.0716,0.32638 -0.14258,0.48438 -0.517,1.23799 -0.93872,2.20639 -1.26172,2.90039 -1.047,2.24099 -2.02231,4.12158 -2.94531,5.64257 -0.59,0.968 -1.1885,1.86441 -1.8125,2.69141 -0.457,0.614 -1.02703,1.33356 -1.58203,1.97656 -1.37,1.573 -2.80322,3.07596 -4.32422,4.50196 -1.363,1.28199 -2.7075,2.52972 -4.0625,3.76171 -1.712,1.563 -3.18058,2.96857 -4.39258,4.22657 -0.545,0.562 -1.19712,1.31019 -1.95312,2.24219 -0.21,0.26299 -0.38613,0.5444 -0.57813,0.8164 -0.282,0.387 -0.53597,0.81824 -0.79297,1.24024 -0.694,1.14199 -1.2575,2.36501 -1.6875,3.66601 -0.588,1.776 -0.8614,3.60119 -0.8164,5.49219 0.009,0.413 0.0351,0.80755 0.0781,1.18555 0.054,0.448 0.13205,0.94251 0.24805,1.47851 0.035,0.149 0.10433,0.43838 0.23633,0.85938 0.229,0.783 0.48386,1.45086 0.75586,2.00586 0.184,0.368 0.36731,0.72926 0.57031,1.07226 0.588,1.011 1.33819,1.93377 2.24219,2.75977 0.371,0.343 0.74711,0.66898 1.16211,0.95898 1.011,0.702 2.13423,1.247 3.36523,1.625 0.675,0.21 1.33633,0.35111 1.98633,0.41211 1.495,0.159 2.98605,0.0713 4.49805,-0.26367 0.476,-0.104 0.91704,-0.25477 1.37304,-0.38477 1.452,-0.406 2.75988,-1.16876 3.79688,-2.25976 0.739,-0.775 1.31723,-1.65368 1.74023,-2.63867 0.229,-0.536 0.39714,-1.00969 0.49414,-1.42969 0.121,-0.494 0.23549,-1.03806 0.27149,-1.53906 0.052,-0.767 0.0436,-1.46857 -0.0254,-2.10157 -0.106,-0.923 -0.37855,-1.81769 -0.81055,-2.67968 -0.369,-0.739 -0.88727,-1.36363 -1.57227,-1.89063 -1.037,-0.793 -2.19042,-1.1158 -3.48242,-0.9668 -0.588,0.07 -1.21094,0.28105 -1.71094,0.62305 -0.94199,0.659 -1.45964,1.59235 -1.55664,2.77734 -0.044,0.563 -0.001,1.12627 0.13868,1.69727 0.274,1.08 0.72986,2.10875 1.38086,3.09375 0.026,0.043 0.0177,0.097 -0.0274,0.12305 -0.016,0.009 -0.0357,0.0195 -0.0527,0.0195 -1.107,0.008 -2.16938,-0.0555 -3.23438,-0.31055 -1.106,-0.255 -2.32037,-0.82527 -3.23437,-1.57226 -1.038,-0.843 -1.79063,-1.91499 -2.26563,-3.20899 -0.257,-0.702 -0.39783,-1.39698 -0.42383,-2.08398 -0.01,-0.359 -0.0188,-0.70097 -0.01,-1.04297 0.019,-0.668 0.11559,-1.32089 0.30859,-1.96289 0.511,-1.722 1.45885,-3.16127 2.83985,-4.32227 1.68699,-1.415 3.8495,-2.10106 6.0625,-2.16406 1.09099,-0.034 2.13743,0.0445 3.14843,0.23047 0.984,0.175 1.96932,0.40455 2.94532,0.68555 0.052,0.017 0.11209,-0.0183 0.12109,-0.0703 0.01,-0.019 0.01,-0.0367 0,-0.0527 -0.396,-1.408 -0.562,-2.85733 -0.5,-4.36133 0.035,-1.018 0.18392,-1.91603 0.41992,-2.70703 0.133,-0.43 0.26517,-0.8702 0.45117,-1.2832 0.298,-0.704 0.63172,-1.37807 1.01172,-2.03907 0.394,-0.695 0.78063,-1.33725 1.14063,-1.90625 0.432,-0.687 0.71317,-1.1357 0.82617,-1.3457 0.158,-0.291 0.32637,-0.57833 0.48437,-0.86133 0.343,-0.605 0.66957,-1.29245 0.97657,-2.06445 0.052,-0.125 0.0873,-0.23856 0.11328,-0.35156 0.036,-0.123 0.0529,-0.34322 0.13086,-0.44922 0.017,-0.017 0.0455,-0.0268 0.0625,-0.01 0.009,0 0.008,0.01 0.008,0.01 0.158,0.274 0.22098,0.58114 0.33398,0.86914 0.432,1.11 0.99438,2.13625 1.60938,3.15625 0.467,0.764 0.92286,1.51158 1.38086,2.26758 0.588,0.975 1.15987,2.05812 1.54687,3.07812 0.139,0.378 0.28088,0.83314 0.42188,1.36914 0.114,0.441 0.15856,0.87155 0.22656,1.31055 0.159,0.914 0.13239,1.90823 0.0254,2.86523 -0.094,0.836 -0.25284,1.65213 -0.46484,2.45313 -0.009,0.016 7.6e-4,0.0337 0.01,0.0527 0.036,0.052 0.0978,0.0688 0.17578,0.0508 0.976,-0.281 1.89204,-0.4812 2.83204,-0.6582 1.66199,-0.317 3.47986,-0.34281 5.13085,-0.008 1.96,0.395 3.73627,1.35408 5.07227,2.83008 0.255,0.281 0.50147,0.59722 0.73047,0.94921 0.668,1.02 1.08117,1.99591 1.32617,3.12891 0.097,0.44 0.14974,0.8427 0.17774,1.2207 0.052,0.968 -0.0542,1.9079 -0.32618,2.83789 -0.115,0.397 -0.25487,0.7658 -0.42187,1.0918 -0.827,1.696 -2.13469,2.90944 -3.92969,3.64844 -1.398,0.579 -2.95181,0.76294 -4.50781,0.71094 0.016,0.052 0.007,0.0453 0,0.0273 -0.026,-0.062 -0.0194,-0.12378 0.0156,-0.17578 0.414,-0.668 0.75811,-1.38014 1.03711,-2.11914 0.186,-0.493 0.31572,-1.03692 0.38672,-1.54492 0.087,-0.687 0.0454,-1.44333 -0.18359,-2.11133 -0.29,-0.86 -0.98497,-1.58056 -1.79297,-1.97656 -0.352,-0.177 -0.73834,-0.29252 -1.15234,-0.35352 -1.105,-0.158 -2.14415,0.0538 -3.11915,0.63281 -0.51999,0.307 -0.95912,0.68677 -1.32812,1.13477 -0.316,0.388 -0.62294,0.83478 -0.83594,1.30078 -0.474,1.037 -0.74667,2.17984 -0.76367,3.33984 -0.009,0.59 0.009,1.09654 0.0605,1.51953 0.018,0.168 0.0795,0.4756 0.18554,0.9336 0.061,0.245 0.12318,0.49051 0.20118,0.72851 0.115,0.36 0.19404,0.59794 0.24804,0.71094 0.297,0.739 0.67458,1.44236 1.14258,2.06836 1.062,1.45 2.48749,2.46025 4.27149,3.03125 0.97499,0.316 1.92497,0.57078 2.91796,0.67578 1.336,0.141 2.73397,0.13275 4.04297,-0.15625 1.705,-0.379 3.243,-1.07375 4.625,-2.09375 1.055,-0.78 2.06389,-1.81855 2.83789,-2.93554 1.222,-1.765 2.00466,-3.70852 2.34766,-5.85352 0.069,-0.404 0.11267,-0.81031 0.13867,-1.19531 0.203,-3.042 -0.47311,-5.87882 -2.03711,-8.50781 -0.413,-0.694 -0.82623,-1.32105 -1.24023,-1.87305 -0.484,-0.652 -1.055,-1.36191 -1.625,-2.00391 -0.897,-1.002 -1.70697,-1.84625 -2.41797,-2.53125 -1.389,-1.337 -3.04257,-2.88281 -4.97656,-4.63281 -1.344,-1.214 -2.64558,-2.46842 -4.01758,-3.85742 -1.07,-1.082 -2.07291,-2.19022 -3.00391,-3.32422 -0.387,-0.475 -0.77358,-0.98356 -1.14258,-1.47656 -0.62599,-0.817 -1.25754,-1.79243 -1.81054,-2.73243 -1.002,-1.71399 -1.91672,-3.48078 -2.76172,-5.30078 -0.491,-1.063 -0.98438,-2.21512 -1.48438,-3.45312 -0.026,-0.064 -0.0632,-0.097 -0.11523,-0.125 -0.027,-0.009 -0.0523,-0.009 -0.0742,0 z"
     id="path14" /><path
     style="fill:#1b445f;fill-opacity:0.07692308;fill-rule:nonzero"
     d="m 286.61523,468.17969 c -0.0219,0.009 -0.0398,0.0267 -0.0488,0.0527 0,0.009 2.3e-4,0.009 -0.01,0.0176 -0.035,0.168 -0.0677,0.32738 -0.13867,0.48438 -0.52,1.23899 -0.94158,2.20539 -1.26758,2.90039 -1.046,2.24098 -2.02231,4.12158 -2.94531,5.64257 -0.588,0.968 -1.18655,1.86246 -1.81055,2.68946 -0.458,0.616 -1.02803,1.33651 -1.58203,1.97851 -1.37,1.573 -2.80327,3.076 -4.32227,4.5 -1.36399,1.284 -2.70754,2.53072 -4.06054,3.76172 -1.715,1.565 -3.18549,2.97052 -4.39649,4.22852 -0.546,0.562 -1.19717,1.31019 -1.95117,2.24218 -0.212,0.263 -0.38608,0.54341 -0.58008,0.81641 -0.281,0.386 -0.53597,0.81828 -0.79297,1.23828 -0.69399,1.143 -1.2555,2.36602 -1.6875,3.66602 -0.588,1.777 -0.8604,3.60214 -0.8164,5.49414 0.01,0.413 0.0361,0.80755 0.0801,1.18554 0.052,0.449 0.13109,0.93957 0.24609,1.47657 0.035,0.15 0.10433,0.44133 0.23633,0.86133 0.231,0.78399 0.48381,1.45086 0.75781,2.00586 0.182,0.36899 0.36931,0.72826 0.57031,1.07226 0.59,1.011 1.33524,1.93381 2.24024,2.75781 0.37,0.343 0.74715,0.66799 1.16015,0.95899 1.011,0.703 2.13719,1.24695 3.36719,1.62695 0.676,0.21 1.33728,0.35306 1.98828,0.41406 1.493,0.158 2.9871,0.0693 4.4961,-0.26367 0.477,-0.105 0.917,-0.25567 1.375,-0.38867 1.44999,-0.403 2.75787,-1.16981 3.79687,-2.25781 0.737,-0.775 1.31828,-1.65172 1.73828,-2.63672 0.229,-0.536 0.39714,-1.0106 0.49414,-1.4336 0.121,-0.491 0.23644,-1.03611 0.27344,-1.5371 0.052,-0.765 0.0417,-1.47057 -0.0293,-2.10157 -0.106,-0.923 -0.37759,-1.81964 -0.80859,-2.68164 -0.369,-0.737 -0.88727,-1.36362 -1.57227,-1.89062 -1.03799,-0.791 -2.18747,-1.11585 -3.48046,-0.96485 -0.589,0.071 -1.2219,0.28005 -1.71289,0.62305 -0.94,0.659 -1.45965,1.58934 -1.55665,2.77734 -0.045,0.562 -3.7e-4,1.12727 0.14063,1.69727 0.272,1.081 0.72886,2.11075 1.38086,3.09375 0.026,0.044 0.0147,0.097 -0.0293,0.12305 -0.015,0.008 -0.0328,0.0176 -0.0508,0.0176 -1.108,0.009 -2.17138,-0.0516 -3.23437,-0.30664 -1.107,-0.255 -2.32038,-0.82722 -3.23438,-1.57421 -1.037,-0.845 -1.79358,-1.91699 -2.26758,-3.20899 -0.255,-0.704 -0.39783,-1.39703 -0.42383,-2.08203 -0.009,-0.361 -0.0178,-0.70488 -0.008,-1.04688 0.018,-0.66899 0.11464,-1.31698 0.30664,-1.95898 0.512,-1.722 1.45785,-3.16617 2.83985,-4.32617 1.68599,-1.414 3.8495,-2.09811 6.0625,-2.16211 1.091,-0.035 2.13743,0.0445 3.14843,0.22851 0.985,0.177 1.97232,0.4045 2.94532,0.6875 0.052,0.017 0.11404,-0.0173 0.12304,-0.0703 0.009,-0.018 0.009,-0.0357 0,-0.0547 -0.397,-1.40499 -0.56295,-2.85537 -0.50195,-4.35937 0.036,-1.018 0.18369,-1.91603 0.42969,-2.70703 0.134,-0.432 0.26522,-0.86821 0.44922,-1.28321 0.3,-0.70199 0.63372,-1.38006 1.01171,-2.03906 0.396,-0.694 0.78058,-1.3362 1.14258,-1.9082 0.43,-0.685 0.71218,-1.13275 0.82618,-1.34375 0.15799,-0.29 0.32637,-0.58033 0.48437,-0.86133 0.343,-0.605 0.66561,-1.29141 0.97461,-2.0664 0.054,-0.122 0.0873,-0.23757 0.11328,-0.35157 0.035,-0.122 0.0548,-0.34326 0.13281,-0.44726 0.019,-0.019 0.0455,-0.0258 0.0625,-0.01 0.009,0 0.008,0.01 0.008,0.01 0.158,0.272 0.22098,0.58114 0.33398,0.86914 0.432,1.108 0.99338,2.1363 1.60937,3.15429 0.466,0.765 0.92286,1.51454 1.38086,2.26954 0.588,0.97599 1.15888,2.05717 1.54688,3.07617 0.141,0.379 0.28092,0.83409 0.41992,1.37109 0.116,0.439 0.15747,0.87155 0.23047,1.31055 0.156,0.914 0.12939,1.90623 0.0254,2.86523 -0.099,0.836 -0.2568,1.65318 -0.4668,2.45117 -0.009,0.019 7.7e-4,0.0367 0.01,0.0547 0.036,0.053 0.0978,0.0707 0.17578,0.0527 0.977,-0.282 1.88908,-0.48516 2.83008,-0.66016 1.661,-0.317 3.48077,-0.34277 5.13476,-0.01 1.959,0.395 3.73432,1.35504 5.07032,2.83204 0.255,0.281 0.50147,0.59721 0.73047,0.94921 0.66799,1.018 1.08017,1.99496 1.32617,3.12696 0.097,0.441 0.14978,0.84465 0.17578,1.22265 0.054,0.966 -0.0522,1.90885 -0.32422,2.83985 -0.115,0.396 -0.25488,0.76384 -0.42187,1.08984 -0.827,1.696 -2.13569,2.90949 -3.92969,3.64649 -1.398,0.581 -2.95182,0.76589 -4.50781,0.71289 0.009,0.043 -0.0117,0.0334 -0.0117,0.0254 -0.026,-0.061 -0.0165,-0.12178 0.0195,-0.17578 0.411,-0.669 0.75611,-1.38019 1.03711,-2.11719 0.184,-0.493 0.31576,-1.03888 0.38476,-1.54688 0.089,-0.687 0.0454,-1.44037 -0.18359,-2.10937 -0.289,-0.862 -0.98497,-1.58352 -1.79297,-1.97852 -0.352,-0.176 -0.73934,-0.28861 -1.15234,-0.34961 -1.106,-0.159 -2.14415,0.0518 -3.11914,0.63282 -0.518,0.307 -0.96013,0.68481 -1.32813,1.13281 -0.317,0.385 -0.62398,0.83578 -0.83398,1.30078 -0.477,1.037 -0.74768,2.17984 -0.76368,3.33984 -0.01,0.59 0.009,1.09849 0.0605,1.52149 0.017,0.167 0.0776,0.47364 0.1836,0.93164 0.062,0.246 0.12317,0.49247 0.20117,0.73047 0.116,0.359 0.19404,0.59593 0.24804,0.71093 0.298,0.737 0.67758,1.44141 1.14258,2.06641 1.063,1.45 2.48653,2.45925 4.26953,3.03125 0.978,0.316 1.92793,0.56978 2.91992,0.67578 1.337,0.142 2.73498,0.1328 4.04297,-0.1582 1.705,-0.378 3.24405,-1.0718 4.62305,-2.0918 1.056,-0.782 2.06585,-1.81855 2.83984,-2.93554 1.223,-1.766 2.00566,-3.70752 2.34766,-5.85352 0.071,-0.402 0.11267,-0.80831 0.13867,-1.19531 0.203,-3.042 -0.47211,-5.87977 -2.03711,-8.50977 -0.414,-0.694 -0.82723,-1.31809 -1.24023,-1.87109 -0.484,-0.651 -1.054,-1.36091 -1.625,-2.00391 -0.898,-1.001 -1.70497,-1.84425 -2.41797,-2.53125 -1.389,-1.335 -3.04056,-2.88281 -4.97656,-4.63281 -1.344,-1.213 -2.64368,-2.46942 -4.01367,-3.85742 -1.073,-1.082 -2.07682,-2.19122 -3.00782,-3.32422 -0.387,-0.475 -0.77358,-0.98361 -1.14257,-1.47461 -0.623,-0.819 -1.25755,-1.79433 -1.81055,-2.73633 -1.001,-1.714 -1.91577,-3.47784 -2.75977,-5.29883 -0.493,-1.062 -0.98333,-2.21608 -1.48633,-3.45508 -0.026,-0.062 -0.0593,-0.097 -0.11328,-0.12304 -0.0265,-0.008 -0.0523,-0.009 -0.0742,0 z"
     id="path13" /><path
     style="fill:#1b445f;fill-opacity:0.07692308;fill-rule:nonzero"
     d="m 202.77344,448.54297 c -0.054,0.028 -0.0882,0.061 -0.11524,0.125 -0.499,1.238 -0.99137,2.39012 -1.48437,3.45312 -0.843,1.82 -1.75777,3.58679 -2.75977,5.30079 -0.554,0.93999 -1.18654,1.91542 -1.81054,2.73242 -0.368,0.493 -0.75558,1.00156 -1.14258,1.47656 -0.932,1.134 -1.93582,2.24027 -3.00782,3.32226 -1.37199,1.389 -2.67167,2.64538 -4.01367,3.85938 -1.93599,1.75 -3.58756,3.29581 -4.97656,4.63281 -0.713,0.685 -1.52297,1.52925 -2.41797,2.53125 -0.572,0.642 -1.141,1.35191 -1.625,2.00391 -0.415,0.552 -0.82923,1.17905 -1.24023,1.87305 -1.565,2.62899 -2.24006,5.46581 -2.03907,8.50781 0.028,0.385 0.0706,0.79131 0.14063,1.19531 0.343,2.145 1.12466,4.08852 2.34766,5.85352 0.772,1.117 1.78389,2.15554 2.83789,2.93554 1.383,1.02 2.92,1.71475 4.625,2.09375 1.309,0.289 2.70697,0.29725 4.04297,0.15625 0.99299,-0.105 1.94101,-0.35978 2.91601,-0.67578 1.786,-0.571 3.21044,-1.58125 4.27344,-3.03125 0.465,-0.626 0.84358,-1.32936 1.14258,-2.06836 0.054,-0.113 0.13309,-0.35094 0.24609,-0.71093 0.08,-0.238 0.13822,-0.48352 0.19922,-0.72852 0.106,-0.458 0.1695,-0.76559 0.1875,-0.93359 0.053,-0.423 0.0675,-0.92954 0.0605,-1.51954 -0.017,-1.15999 -0.28968,-2.30284 -0.76368,-3.33984 -0.211,-0.466 -0.51798,-0.91473 -0.83398,-1.30273 -0.369,-0.448 -0.81113,-0.82582 -1.32812,-1.13282 -0.976,-0.579 -2.0141,-0.79081 -3.1211,-0.63281 -0.412,0.061 -0.79839,0.17456 -1.15039,0.35156 -0.807,0.396 -1.50492,1.11852 -1.79492,1.97852 -0.229,0.668 -0.27164,1.42238 -0.18164,2.10937 0.068,0.508 0.20076,1.05388 0.38476,1.54688 0.281,0.739 0.62511,1.45114 1.03711,2.11914 0.035,0.052 0.0436,0.11378 0.0176,0.17578 -0.009,0.018 -0.0168,0.0247 -0.008,-0.0273 -1.556,0.052 -3.11377,-0.13194 -4.50977,-0.71094 -1.795,-0.739 -3.10369,-1.95244 -3.92968,-3.64844 -0.168,-0.326 -0.30588,-0.69479 -0.42188,-1.09179 -0.271,-0.93 -0.37822,-1.8699 -0.32422,-2.83789 0.027,-0.378 0.0798,-0.78071 0.17383,-1.22071 0.246,-1.133 0.66113,-2.10891 1.32813,-3.1289 0.22899,-0.352 0.47546,-0.66822 0.73046,-0.94922 1.337,-1.476 3.11232,-2.43508 5.07032,-2.83008 1.65299,-0.335 3.47476,-0.30919 5.13476,0.008 0.94,0.177 1.85308,0.3772 2.83008,0.6582 0.08,0.018 0.14078,0.001 0.17578,-0.0508 0.01,-0.019 0.0168,-0.0367 0.01,-0.0527 -0.211,-0.801 -0.37175,-1.61713 -0.46875,-2.45313 -0.104,-0.957 -0.13066,-1.95123 0.0273,-2.86523 0.069,-0.439 0.11747,-0.86955 0.23047,-1.31055 0.14,-0.536 0.27887,-0.99309 0.42187,-1.37109 0.385,-1.02 0.95688,-2.10117 1.54688,-3.07617 0.456,-0.756 0.91191,-1.50358 1.37891,-2.26758 0.614,-1.02 1.17937,-2.04821 1.60937,-3.1582 0.114,-0.288 0.17499,-0.59319 0.33398,-0.86719 10e-6,0 -0.001,-0.01 0.008,-0.01 0.017,-0.017 0.0445,-0.007 0.0625,0.01 0.079,0.106 0.0969,0.32426 0.13086,0.44726 0.028,0.113 0.0593,0.22852 0.11328,0.35352 0.309,0.772 0.63356,1.4575 0.97656,2.0625 0.158,0.283 0.32538,0.57228 0.48438,0.86328 0.113,0.21 0.39617,0.6587 0.82617,1.3457 0.361,0.569 0.74758,1.21125 1.14258,1.90625 0.378,0.661 0.71171,1.33507 1.01171,2.03907 0.184,0.413 0.31327,0.8532 0.44727,1.2832 0.246,0.791 0.39469,1.68903 0.42969,2.70703 0.062,1.504 -0.104,2.95333 -0.5,4.36133 -0.01,0.016 -0.01,0.0337 0,0.0527 0.009,0.052 0.071,0.0854 0.12304,0.0684 0.976,-0.281 1.96132,-0.50859 2.94532,-0.68359 1.011,-0.186 2.05548,-0.26447 3.14648,-0.23047 2.213,0.063 4.37746,0.74711 6.06445,2.16211 1.381,1.161 2.32785,2.60222 2.83985,4.32422 0.191,0.642 0.28764,1.29489 0.30664,1.96289 0.009,0.342 2.3e-4,0.68397 -0.01,1.04297 -0.026,0.687 -0.16687,1.38198 -0.42187,2.08398 -0.475,1.294 -1.23063,2.36599 -2.26563,3.20899 -0.915,0.747 -2.12833,1.31726 -3.23633,1.57226 -1.06299,0.255 -2.12637,0.3166 -3.23437,0.3086 -0.019,0 -0.0358,-0.009 -0.0508,-0.0176 -0.047,-0.026 -0.0553,-0.08 -0.0293,-0.12305 0.651,-0.985 1.10691,-2.01375 1.37891,-3.09375 0.142,-0.571 0.18658,-1.13427 0.14258,-1.69726 -0.097,-1.185 -0.61469,-2.11835 -1.55469,-2.77735 -0.501,-0.342 -1.12685,-0.55305 -1.71485,-0.62305 -1.29399,-0.149 -2.44342,0.1738 -3.48242,0.9668 -0.685,0.527 -1.20131,1.15163 -1.57031,1.89063 -0.432,0.862 -0.70455,1.75668 -0.81055,2.67968 -0.07,0.633 -0.0793,1.33457 -0.0273,2.10157 0.038,0.501 0.15244,1.04506 0.27344,1.53906 0.097,0.42 0.26319,0.89369 0.49218,1.42969 0.421,0.985 1.00324,1.86367 1.74024,2.63867 1.039,1.091 2.34688,1.85376 3.79687,2.25976 0.458,0.13 0.89705,0.28077 1.37305,0.38477 1.51,0.335 3.00605,0.42267 4.49805,0.26367 0.652,-0.061 1.31228,-0.20211 1.98828,-0.41211 1.23,-0.378 2.35423,-0.923 3.36523,-1.625 0.413,-0.29 0.79111,-0.61598 1.16211,-0.95898 0.904,-0.826 1.65024,-1.74877 2.24024,-2.75977 0.201,-0.343 0.38731,-0.70426 0.57031,-1.07226 0.273,-0.555 0.52681,-1.22286 0.75781,-2.00586 0.132,-0.421 0.20033,-0.71038 0.23633,-0.85938 0.115,-0.536 0.19409,-1.03051 0.24609,-1.47851 0.045,-0.378 0.0711,-0.77255 0.0801,-1.18555 0.045,-1.891 -0.23036,-3.71619 -0.81836,-5.49219 -0.432,-1.301 -0.99154,-2.52401 -1.68554,-3.66601 -0.257,-0.422 -0.51197,-0.85324 -0.79297,-1.24024 -0.194,-0.272 -0.36808,-0.55536 -0.58008,-0.81836 -0.756,-0.932 -1.40617,-1.67823 -1.95117,-2.24023 -1.212,-1.258 -2.68249,-2.66357 -4.39649,-4.22656 -1.353,-1.232 -2.69555,-2.47972 -4.06054,-3.76172 -1.519,-1.426 -2.95222,-2.92896 -4.32422,-4.50196 -0.553,-0.643 -1.12408,-1.36256 -1.58008,-1.97656 -0.624,-0.827 -1.2235,-1.72341 -1.8125,-2.69141 -0.923,-1.52099 -1.89936,-3.40158 -2.94336,-5.64257 -0.326,-0.694 -0.74663,-1.66239 -1.26562,-2.90039 -0.071,-0.158 -0.10558,-0.31738 -0.14258,-0.48438 -0.007,-0.01 -0.008,-0.009 -0.008,-0.0176 -0.019,-0.052 -0.071,-0.0697 -0.12304,-0.0527 z"
     id="path12" /><path
     style="fill:#1b445f;fill-opacity:1;fill-rule:nonzero"
     d="m 226.12611,330.65678 c -0.054,0.026 -0.0873,0.06 -0.11328,0.12304 -0.501,1.238 -0.99428,2.39013 -1.48828,3.45313 -0.843,1.82 -1.75681,3.58678 -2.75781,5.30078 -0.553,0.94 -1.1885,1.91738 -1.8125,2.73437 -0.368,0.493 -0.75458,1.00061 -1.14258,1.47461 -0.93,1.134 -1.93191,2.24222 -3.00391,3.32422 -1.37199,1.389 -2.67358,2.64343 -4.01757,3.85743 -1.936,1.74999 -3.58757,3.29876 -4.97657,4.63476 -0.711,0.685 -1.52101,1.5273 -2.41601,2.5293 -0.573,0.642 -1.14295,1.3519 -1.62695,2.0039 -0.413,0.553 -0.82724,1.17905 -1.24024,1.87305 -1.563,2.629 -2.24011,5.46877 -2.03711,8.50977 0.026,0.385 0.0696,0.78936 0.14063,1.19336 0.344,2.14499 1.1247,4.08851 2.3457,5.85351 0.774,1.117 1.78584,2.15556 2.83984,2.93555 1.381,1.02 2.91705,1.71475 4.62305,2.09375 1.31,0.289 2.70597,0.29725 4.04297,0.15625 0.994,-0.104 1.94392,-0.35878 2.91992,-0.67578 1.783,-0.571 3.20649,-1.58126 4.27148,-3.03125 0.465,-0.626 0.84263,-1.32741 1.14063,-2.06641 0.054,-0.114 0.13505,-0.35094 0.24805,-0.71094 0.078,-0.238 0.14917,-0.48547 0.20117,-0.73047 0.106,-0.458 0.16659,-0.76364 0.18359,-0.93164 0.052,-0.422 0.0715,-0.93148 0.0625,-1.52148 -0.017,-1.159 -0.28862,-2.30285 -0.76562,-3.33984 -0.21,-0.466 -0.51799,-0.91379 -0.83399,-1.30079 -0.369,-0.449 -0.80917,-0.82581 -1.32617,-1.13281 -0.976,-0.579 -2.01305,-0.79276 -3.12305,-0.63476 -0.411,0.061 -0.79939,0.17651 -1.15039,0.35351 -0.808,0.396 -1.50397,1.11657 -1.79296,1.97656 -0.229,0.668 -0.2716,1.42433 -0.1836,2.11133 0.071,0.508 0.20072,1.05288 0.38672,1.54688 0.281,0.739 0.62416,1.44919 1.03516,2.11719 0.037,0.052 0.0465,0.11478 0.0195,0.17578 -0.01,0.009 -0.0188,0.0177 -0.008,-0.0274 -1.556,0.052 -3.11177,-0.13194 -4.50977,-0.71093 -1.793,-0.739 -3.10274,-1.95244 -3.92773,-3.64844 -0.168,-0.325 -0.30783,-0.69289 -0.42383,-1.08789 -0.271,-0.932 -0.37627,-1.87185 -0.32227,-2.83985 0.024,-0.378 0.0769,-0.78365 0.17188,-1.22265 0.247,-1.134 0.66208,-2.10791 1.33007,-3.12891 0.227,-0.351 0.47352,-0.66822 0.72852,-0.94922 1.337,-1.476 3.11231,-2.43608 5.07031,-2.83008 1.653,-0.335 3.47477,-0.30818 5.13477,0.008 0.94,0.177 1.85308,0.3772 2.83008,0.6582 0.079,0.019 0.13982,0.001 0.17382,-0.0508 0.009,-0.019 0.0188,-0.0357 0.01,-0.0527 -0.21,-0.801 -0.36884,-1.61712 -0.46484,-2.45312 -0.105,-0.956 -0.13361,-1.95124 0.0254,-2.86524 0.07,-0.439 0.11451,-0.86954 0.22851,-1.31054 0.139,-0.536 0.28283,-0.99114 0.42383,-1.36914 0.387,-1.02 0.95688,-2.10313 1.54688,-3.07813 0.456,-0.756 0.9139,-1.50262 1.3789,-2.26562 0.616,-1.02 1.17742,-2.04921 1.60742,-3.15821 0.115,-0.289 0.17794,-0.59514 0.33594,-0.86914 0,0 7.7e-4,-0.01 0.01,-0.01 0.015,-0.017 0.0416,-0.007 0.0586,0.01 0.08,0.106 0.0988,0.32622 0.13281,0.44922 0.026,0.113 0.0612,0.22856 0.11524,0.35156 0.307,0.772 0.63161,1.45941 0.97461,2.06641 0.158,0.281 0.32442,0.56938 0.48242,0.85938 0.113,0.21 0.39617,0.6607 0.82617,1.3457 0.361,0.569 0.74853,1.21225 1.14453,1.90625 0.376,0.661 0.70977,1.33506 1.00977,2.03906 0.184,0.413 0.31622,0.8532 0.44922,1.2832 0.238,0.791 0.38692,1.68904 0.41992,2.70704 0.062,1.50399 -0.105,2.95333 -0.5,4.36132 -0.009,0.017 -0.009,0.0337 0,0.0527 0.01,0.052 0.0691,0.0863 0.12109,0.0703 0.978,-0.281 1.96232,-0.51055 2.94531,-0.68555 1.011,-0.187 2.05944,-0.26446 3.14844,-0.23046 2.215,0.063 4.37546,0.74906 6.06446,2.16406 1.38099,1.161 2.32884,2.60222 2.83984,4.32422 0.193,0.642 0.28959,1.29293 0.30859,1.96093 0.007,0.343 2.4e-4,0.68588 -0.01,1.04688 -0.028,0.685 -0.16688,1.37908 -0.42188,2.08008 -0.473,1.294 -1.23058,2.36694 -2.26758,3.21093 -0.915,0.746 -2.12833,1.31532 -3.23632,1.57032 -1.063,0.256 -2.12538,0.31754 -3.23438,0.31054 -0.017,0 -0.0347,-0.0105 -0.0527,-0.0195 -0.045,-0.026 -0.0534,-0.08 -0.0254,-0.12304 0.65099,-0.985 1.1069,-2.01376 1.3789,-3.09375 0.14,-0.571 0.18463,-1.13332 0.14063,-1.69532 -0.095,-1.186 -0.61469,-2.12029 -1.55469,-2.77929 -0.491,-0.342 -1.12489,-0.55305 -1.71289,-0.62305 -1.294,-0.149 -2.44542,0.17575 -3.48242,0.96875 -0.685,0.526 -1.20522,1.14967 -1.57422,1.88867 -0.432,0.862 -0.7026,1.75764 -0.8086,2.68164 -0.069,0.632 -0.0794,1.33261 -0.0254,2.09961 0.034,0.501 0.15044,1.04506 0.27344,1.53906 0.097,0.42 0.26319,0.89369 0.49219,1.42969 0.421,0.985 1.00323,1.86467 1.74023,2.63867 1.038,1.09099 2.34688,1.85377 3.79688,2.25977 0.456,0.13 0.89609,0.28076 1.37109,0.38476 1.512,0.335 3.00696,0.42463 4.50196,0.26563 0.64999,-0.061 1.30737,-0.20306 1.98437,-0.41406 1.229,-0.378 2.35619,-0.923 3.36719,-1.625 0.413,-0.29 0.79015,-0.61599 1.16015,-0.95899 0.905,-0.826 1.65219,-1.74876 2.24219,-2.75976 0.201,-0.343 0.38436,-0.70227 0.56836,-1.07227 0.274,-0.555 0.53077,-1.21995 0.75977,-2.00195 0.13,-0.423 0.19937,-0.71428 0.23437,-0.86328 0.114,-0.536 0.1941,-1.03052 0.2461,-1.47852 0.045,-0.378 0.0691,-0.77255 0.0781,-1.18555 0.045,-1.88899 -0.22645,-3.71618 -0.81445,-5.49218 -0.432,-1.301 -0.9935,-2.52502 -1.6875,-3.66602 -0.255,-0.423 -0.51197,-0.85323 -0.79297,-1.24023 -0.193,-0.272 -0.36808,-0.55441 -0.58008,-0.81641 -0.756,-0.933 -1.40813,-1.67919 -1.95312,-2.24219 -1.212,-1.258 -2.67858,-2.66256 -4.39258,-4.22656 -1.353,-1.232 -2.69955,-2.47972 -4.06055,-3.76172 -1.523,-1.426 -2.95417,-2.92895 -4.32617,-4.50195 -0.555,-0.642 -1.12408,-1.36256 -1.58008,-1.97656 -0.625,-0.827 -1.22255,-1.72341 -1.81055,-2.69141 -0.914,-1.521 -1.89154,-3.40158 -2.93554,-5.64258 -0.326,-0.694 -0.74858,-1.66239 -1.26758,-2.90039 -0.069,-0.158 -0.10463,-0.31542 -0.14063,-0.48242 -0.009,-0.009 -0.008,-0.01 -0.008,-0.0176 -0.019,-0.052 -0.071,-0.0717 -0.12305,-0.0527 z"
     id="path11" /><path
     style="fill:#1b445f;fill-opacity:1;fill-rule:nonzero"
     d="m 450.20641,198.56208 c -3.33065,0.10327 -6.67038,3.28269 -8.47657,5.60157 -2.76899,3.55499 -5.27458,7.31153 -7.51757,11.26953 -3.127,5.51399 -6.15123,10.79938 -9.07422,15.85937 -2.485,4.304 -5.10362,8.11455 -7.84961,11.43555 -3.207,3.881 -7.40321,7.3889 -12.78321,6.25391 -2.58199,-0.544 -5.04114,-1.37977 -7.36914,-2.50977 -8.95999,-4.324 -17.18316,-10.2448 -25.53515,-15.2168 -7.98799,-4.75799 -21.77242,-11.69471 -30.31641,-4.26172 -2.065,1.791 -0.99579,4.16999 0.7832,5.58399 2.571,2.039 5.32191,3.82347 8.25391,5.35547 6.33499,3.30799 12.05335,6.40873 17.15234,9.30273 6.234,3.548 18.97222,11.88843 16.69922,20.60742 -1.452,5.545 -5.8378,9.12371 -10.96679,11.59571 -3.905,1.88199 -7.85462,3.52655 -11.84961,4.93554 -6.424,2.273 -13.37662,4.69563 -20.84961,7.26563 -5.38,1.849 -10.21215,3.78745 -14.49414,5.81445 -4.196,1.982 -13.66651,6.98682 -9.35352,13.13281 1.26,1.797 3.05472,2.88454 5.38672,3.26954 3.459,0.572 7.1671,0.60651 11.12109,0.10351 11.71999,-1.483 23.78,-4.6878 35.70899,-5.8418 4.42399,-0.434 10.67377,-0.18634 14.13476,2.84766 3.996,3.504 4.53,9.94672 3.875,15.01172 -0.503,3.909 -1.24089,8.03596 -2.21289,12.37695 -0.836,3.742 -1.22968,7.21407 -1.17968,10.41407 0.069,4.73199 1.97026,7.92045 5.69726,9.56445 7.34499,3.24799 12.08424,-2.2987 14.74024,-8.30469 1.60999,-3.648 2.87125,-7.34017 3.78125,-11.07617 1.44199,-5.903 2.66311,-12.02887 3.66211,-18.38086 1.31799,-8.32799 2.61186,-16.78977 3.88085,-25.38477 1.071,-7.23099 3.12421,-14.43919 6.15821,-21.61718 5.12899,-12.12799 11.83174,-23.91698 18.67773,-35.04297 4.851,-7.88799 8.85205,-14.86093 11.99805,-20.91992 1.429,-2.755 2.59605,-5.67477 3.49805,-8.75977 1.11699,-3.818 1.04229,-7.86441 -3.09571,-9.81641 -0.74868,-0.35231 -1.51654,-0.49258 -2.28515,-0.46875 z"
     id="path10" /><path
     style="fill:#1b445f;fill-opacity:1;fill-rule:nonzero"
     d="m 397.68883,195.19294 c -7.34554,0.0147 -15.07526,1.74516 -21.90625,4.06641 -1.028,0.35 -1.03644,0.72319 -0.0234,1.11719 l 8.4668,3.29297 c 0.052,0.021 0.0948,0.0585 0.13281,0.10351 0.102,0.139 0.0775,0.33445 -0.0625,0.43945 l -12.07813,9.21289 c -0.039,0.032 -0.0691,0.0759 -0.0801,0.12891 -0.026,0.122 0.0508,0.24549 0.17383,0.27149 3.30399,0.70599 6.61745,1.23017 9.93945,1.57617 0.067,0.006 0.1315,0.0314 0.1875,0.0684 0.178,0.125 0.22265,0.37164 0.0976,0.55664 l -6.02539,8.63672 c -0.013,0.017 -0.0194,0.0376 -0.0254,0.0586 -0.018,0.095 0.0388,0.18503 0.13282,0.20703 0.171,0.032 0.33986,0.0246 0.50586,-0.0254 2.44599,-0.754 4.93303,-1.5777 7.45703,-2.4707 0.361,-0.129 0.56914,-0.003 0.61914,0.37695 1.067,7.73399 6.09007,15.47061 13.66406,17.72461 6.85799,2.035 12.8263,0.44446 17.9043,-4.76953 2.64899,-2.722 4.44472,-6.01505 5.38671,-9.87305 1.707,-7.00199 0.6415,-13.61675 -3.1875,-19.84375 -3.48499,-5.65899 -7.46938,-9.05881 -14.10937,-10.25781 -2.31575,-0.41825 -4.72141,-0.60256 -7.16992,-0.59766 z"
     id="path9" /><path
     style="fill:#1b445f;fill-opacity:1;fill-rule:nonzero"
     d="m -234.02949,230.43708 c -1.96,0.062 -3.48798,0.90434 -4.58398,2.52734 -1.977,2.928 -0.57336,7.86363 0.55664,10.89063 1.437,3.85899 3.34742,7.9532 5.73242,12.2832 8.76699,15.89698 18.54066,31.89662 25.47266,48.84961 2.89299,7.07299 4.99903,14.63816 5.95703,22.28515 1.569,12.55899 2.96636,23.13829 4.19336,31.73828 0.693,4.86 1.73028,10.01676 3.11328,15.46876 1.953,7.70499 6.17132,20.9869 17.19531,16.8789 7.42499,-2.763 6.38773,-12.22674 5.17774,-18.55273 -0.952,-4.929 -1.67221,-9.70246 -2.15821,-14.31446 -0.299,-2.84299 -0.051,-5.6955 0.74805,-8.5625 2.107,-7.54499 8.90316,-8.90326 15.78516,-8.44726 8.15499,0.538 16.11443,2.53919 24.23242,4.36719 5.43899,1.22899 10.73382,2.17575 15.88281,2.84375 4.626,0.594 14.63639,0.63 15.02539,-6.33399 0.296,-5.36099 -8.74344,-9.83464 -12.64844,-11.55664 -6.92299,-3.073 -14.55826,-6.0721 -22.90625,-8.99609 -6.07999,-2.134 -11.69194,-4.36441 -16.83593,-6.69141 -5.584,-2.52 -10.84365,-5.20243 -13.93165,-10.60742 -1.34799,-2.357 -1.84609,-4.53883 -1.49609,-6.54883 1.354,-7.74199 14.36482,-13.06174 20.88281,-15.42773 5.331,-1.929 10.47641,-3.86546 15.44141,-5.81446 1.939,-0.765 6.92943,-3.27198 3.27344,-5.58398 -7.44,-4.695 -17.68865,-2.46 -25.93164,0.375 -5.277,1.819 -11.06806,3.92984 -17.37305,6.33984 -5.71499,2.182 -12.68315,4.51071 -18.61914,4.09571 -3.744,-0.265 -7.38957,-3.56334 -9.60156,-6.36133 -2.948,-3.74 -5.7103,-7.97699 -8.2793,-12.70899 -2.982,-5.49499 -5.95021,-10.9633 -8.9082,-16.40429 -2.718,-5.003 -8.90349,-16.22425 -15.39649,-16.03125 z"
     id="path8" /><path
     style="fill:#1b445f;fill-opacity:1;fill-rule:nonzero"
     d="m -185.49042,228.52301 c -5.62917,-0.008 -10.90234,2.00851 -14.45508,7.40625 -2.783,4.233 -4.48266,8.68929 -5.09766,13.36329 -1.117,8.51299 2.18952,17.55777 9.47852,22.13476 5.38899,3.394 12.09202,3.38164 17.54101,0.18164 6.178,-3.634 9.63085,-10.17638 10.46485,-17.48437 0.071,-0.629 0.26221,-0.66819 0.57421,-0.11719 1.08,1.902 1.98761,3.97384 2.72461,6.21484 0.074,0.231 0.22604,0.31124 0.45704,0.24024 l 22.83007,-6.63477 c 0.022,-0.007 0.0454,-0.0163 0.0664,-0.0273 0.141,-0.082 0.19133,-0.26225 0.11133,-0.40625 -0.166,-0.283 -0.36733,-0.53677 -0.61133,-0.75977 -9.39099,-8.54999 -19.62232,-16.10569 -30.94531,-21.05469 -4.16587,-1.81868 -8.76044,-3.05027 -13.13867,-3.05664 z"
     id="path7" /><path
     style="fill:#1b445f;fill-opacity:1;fill-rule:nonzero"
     d="m 220.94428,134.4365 c 0.054,0.026 0.0853,0.06 0.11133,0.12305 0.503,1.238 0.99528,2.39012 1.48828,3.45312 0.844,1.82 1.75682,3.58678 2.75782,5.30078 0.553,0.94 1.1895,1.91738 1.8125,2.73438 0.369,0.493 0.75557,1.00061 1.14257,1.47461 0.931,1.134 1.93286,2.24222 3.00586,3.32422 1.37,1.38899 2.67163,2.64342 4.01563,3.85742 1.936,1.75 3.58756,3.29877 4.97656,4.63476 0.713,0.685 1.51997,1.5273 2.41797,2.5293 0.571,0.642 1.141,1.35191 1.625,2.00391 0.413,0.553 0.82623,1.17904 1.24023,1.87304 1.565,2.629 2.24011,5.46682 2.03711,8.50782 -0.026,0.385 -0.0696,0.79131 -0.14062,1.19531 -0.342,2.145 -1.12271,4.08852 -2.3457,5.85351 -0.774,1.117 -1.78385,2.15555 -2.83985,2.93555 -1.379,1.02 -2.91805,1.71475 -4.62305,2.09375 -1.30799,0.289 -2.70597,0.29725 -4.04296,0.15625 -0.992,-0.104 -1.94193,-0.35878 -2.91993,-0.67578 -1.78299,-0.571 -3.20653,-1.58125 -4.26953,-3.03125 -0.465,-0.626 -0.84458,-1.32741 -1.14258,-2.06641 -0.054,-0.114 -0.13204,-0.35289 -0.24804,-0.71289 -0.078,-0.238 -0.13917,-0.48351 -0.20117,-0.72851 -0.106,-0.458 -0.1666,-0.76364 -0.1836,-0.93164 -0.052,-0.422 -0.0725,-0.93149 -0.0625,-1.52149 0.016,-1.159 0.28867,-2.30284 0.76367,-3.33984 0.212,-0.466 0.51894,-0.91378 0.83594,-1.30078 0.368,-0.449 0.81013,-0.82777 1.32813,-1.13477 0.975,-0.579 2.01314,-0.79081 3.11914,-0.63281 0.413,0.061 0.80034,0.17652 1.15234,0.35352 0.808,0.39599 1.50397,1.11656 1.79297,1.97656 0.229,0.668 0.27259,1.42433 0.18359,2.11133 -0.069,0.508 -0.20076,1.05287 -0.38476,1.54687 -0.281,0.739 -0.62611,1.44919 -1.03711,2.11719 -0.036,0.052 -0.0455,0.11478 -0.0195,0.17578 0.01,0.009 0.0175,0.0177 0.0195,-0.0273 1.554,0.052 3.10981,-0.13194 4.50781,-0.71094 1.793,-0.739 3.10274,-1.95244 3.92773,-3.64844 0.168,-0.325 0.30883,-0.69289 0.42383,-1.08789 0.272,-0.932 0.37622,-1.8738 0.32422,-2.8418 -0.026,-0.378 -0.0788,-0.7817 -0.17383,-1.2207 -0.247,-1.134 -0.66012,-2.10791 -1.32812,-3.12891 -0.229,-0.351 -0.47647,-0.66822 -0.73047,-0.94921 -1.336,-1.476 -3.11031,-2.43608 -5.07031,-2.83008 -1.653,-0.335 -3.47282,-0.30819 -5.13282,0.008 -0.94199,0.177 -1.85603,0.3772 -2.83203,0.6582 -0.078,0.019 -0.13878,0.001 -0.17578,-0.0508 -0.008,-0.019 -0.0168,-0.0357 -0.008,-0.0527 0.211,-0.801 0.36784,-1.61713 0.46484,-2.45313 0.106,-0.956 0.13261,-1.95123 -0.0254,-2.86523 -0.071,-0.439 -0.11551,-0.86955 -0.22851,-1.31055 -0.14,-0.536 -0.28288,-0.99114 -0.42188,-1.36914 -0.387,-1.02 -0.95883,-2.10313 -1.54883,-3.07813 -0.456,-0.75599 -0.9119,-1.50262 -1.3789,-2.26562 -0.616,-1.02 -1.17938,-2.0492 -1.60938,-3.1582 -0.113,-0.289 -0.17403,-0.59514 -0.33203,-0.86914 0,0 -7.6e-4,-0.01 -0.01,-0.01 -0.019,-0.017 -0.0455,-0.007 -0.0625,0.01 -0.08,0.106 -0.0949,0.32622 -0.13086,0.44922 -0.026,0.11299 -0.0613,0.22856 -0.11328,0.35156 -0.309,0.772 -0.63352,1.4594 -0.97852,2.0664 -0.158,0.281 -0.32342,0.56938 -0.48242,0.85938 -0.115,0.21 -0.39422,0.6607 -0.82422,1.3457 -0.361,0.569 -0.74853,1.21225 -1.14453,1.90625 -0.378,0.661 -0.70977,1.33507 -1.00977,2.03906 -0.184,0.413 -0.31622,0.85321 -0.44922,1.28321 -0.245,0.791 -0.39368,1.68903 -0.42968,2.70703 -0.061,1.504 0.104,2.95333 0.5,4.36133 0.01,0.017 0.01,0.0337 0,0.0527 -0.009,0.052 -0.071,0.0863 -0.12305,0.0703 -0.975,-0.281 -1.96031,-0.51054 -2.94531,-0.68554 -1.01,-0.187 -2.05549,-0.26447 -3.14649,-0.23047 -2.215,0.063 -4.3765,0.74906 -6.0625,2.16406 -1.381,1.161 -2.33179,2.60027 -2.84179,4.32227 -0.191,0.642 -0.28965,1.29489 -0.30664,1.96289 -0.009,0.343 7.6e-4,0.68587 0.01,1.04687 0.026,0.685 0.16488,1.37908 0.42188,2.08008 0.473,1.294 1.23057,2.36694 2.26757,3.21094 0.914,0.746 2.12638,1.31531 3.23438,1.57031 1.064,0.256 2.12637,0.31755 3.23437,0.31055 0.017,0 0.0357,-0.0105 0.0527,-0.0195 0.045,-0.026 0.0534,-0.08 0.0254,-0.12305 -0.65,-0.985 -1.10591,-2.01375 -1.37891,-3.09375 -0.14,-0.571 -0.18562,-1.13527 -0.14062,-1.69727 0.097,-1.186 0.61469,-2.11834 1.55468,-2.77734 0.494,-0.342 1.12685,-0.55305 1.71485,-0.62305 1.292,-0.149 2.44347,0.17575 3.48047,0.96875 0.685,0.526 1.20522,1.14968 1.57422,1.88867 0.432,0.862 0.70159,1.75765 0.80859,2.68165 0.068,0.63199 0.0793,1.33261 0.0273,2.0996 -0.036,0.501 -0.15239,1.04507 -0.27539,1.53907 -0.095,0.42 -0.26123,0.89368 -0.49023,1.42968 -0.423,0.985 -1.00124,1.86468 -1.74024,2.63868 -1.03699,1.091 -2.34687,1.85376 -3.79687,2.25976 -0.456,0.13 -0.89709,0.28077 -1.37109,0.38477 -1.514,0.335 -3.00601,0.42462 -4.5,0.26562 -0.65,-0.061 -1.31229,-0.20306 -1.98829,-0.41406 -1.22999,-0.378 -2.35618,-0.923 -3.36718,-1.625 -0.413,-0.29 -0.78916,-0.61598 -1.16016,-0.95898 -0.905,-0.826 -1.65223,-1.74877 -2.24023,-2.75977 -0.203,-0.343 -0.38727,-0.70227 -0.57227,-1.07227 -0.271,-0.555 -0.52491,-1.21995 -0.75391,-2.00195 -0.132,-0.423 -0.20423,-0.71428 -0.24023,-0.86328 -0.113,-0.536 -0.19214,-1.03052 -0.24414,-1.47852 -0.043,-0.378 -0.0691,-0.77254 -0.0781,-1.18554 -0.045,-1.889 0.22841,-3.71619 0.81641,-5.49219 0.43,-1.301 0.99155,-2.52502 1.68555,-3.66602 0.257,-0.423 0.50997,-0.85323 0.79297,-1.24023 0.192,-0.272 0.37007,-0.55441 0.58007,-0.81641 0.756,-0.933 1.40713,-1.67918 1.95313,-2.24218 1.212,-1.258 2.67858,-2.66257 4.39258,-4.22657 1.353,-1.232 2.6995,-2.47972 4.0625,-3.76171 1.521,-1.426 2.95222,-2.92896 4.32422,-4.50196 0.555,-0.642 1.12403,-1.36256 1.58203,-1.97656 0.624,-0.827 1.21959,-1.72341 1.80859,-2.69141 0.915,-1.521 1.8915,-3.40158 2.9375,-5.64257 0.324,-0.694 0.74563,-1.6624 1.26563,-2.9004 0.069,-0.158 0.10367,-0.31542 0.13867,-0.48242 0.01,-0.009 0.0117,-0.01 0.0117,-0.0176 0.018,-0.052 0.07,-0.0717 0.12304,-0.0527 z"
     id="path5" /><path
     style="fill:#1b445f;fill-opacity:1;fill-rule:nonzero"
     d="m 142.67085,68.988544 c 0.052,0.028 0.0873,0.061 0.11328,0.125 0.5,1.238 0.99337,2.39012 1.48437,3.45312 0.845,1.82 1.75972,3.58678 2.76172,5.30078 0.553,0.94 1.18455,1.91543 1.81055,2.73242 0.369,0.493 0.75753,1.00157 1.14453,1.47657 0.931,1.134 1.93391,2.24026 3.00391,3.32226 1.37199,1.389 2.67162,2.64538 4.01562,3.85938 1.934,1.75 3.58756,3.29581 4.97656,4.63281 0.711,0.685 1.52097,1.52925 2.41797,2.53125 0.57,0.642 1.141,1.35191 1.625,2.00391 0.414,0.552 0.82724,1.17904 1.24024,1.873036 1.56399,2.629 2.24011,5.46582 2.03711,8.50782 -0.026,0.385 -0.0697,0.79131 -0.13868,1.19531 -0.343,2.145 -1.12565,4.08852 -2.34765,5.85351 -0.774,1.117 -1.78289,2.15555 -2.83789,2.93555 -1.382,1.02 -2.92,1.71475 -4.625,2.09375 -1.309,0.289 -2.70697,0.29725 -4.04297,0.15625 -0.993,-0.105 -1.94297,-0.35978 -2.91797,-0.67578 -1.784,-0.571 -3.20753,-1.58125 -4.26953,-3.03125 -0.468,-0.626 -0.84753,-1.32936 -1.14453,-2.06836 -0.054,-0.113 -0.1311,-0.35094 -0.2461,-0.71094 -0.078,-0.238 -0.14017,-0.48351 -0.20117,-0.72851 -0.106,-0.458 -0.1695,-0.7656 -0.1875,-0.9336 -0.052,-0.423 -0.0676,-0.92953 -0.0586,-1.51953 0.017,-1.16 0.28772,-2.30284 0.76172,-3.33984 0.213,-0.466 0.51993,-0.91474 0.83593,-1.30274 0.369,-0.448 0.80813,-0.82581 1.32813,-1.13281 0.975,-0.579 2.01414,-0.79081 3.11914,-0.63281 0.414,0.061 0.8023,0.17456 1.1543,0.35156 0.808,0.396 1.50101,1.11852 1.79101,1.97852 0.229,0.668 0.27255,1.42237 0.18555,2.10937 -0.071,0.508 -0.20267,1.05388 -0.38867,1.54688 -0.279,0.739 -0.62311,1.45114 -1.03711,2.11914 -0.035,0.052 -0.0416,0.11183 -0.0156,0.17383 0.007,0.018 0.016,0.0266 0,-0.0254 1.556,0.052 3.10982,-0.13194 4.50782,-0.71094 1.79499,-0.739 3.10268,-1.95244 3.92968,-3.64844 0.167,-0.326 0.30688,-0.6948 0.42188,-1.0918 0.272,-0.93 0.37817,-1.86989 0.32617,-2.83789 -0.028,-0.378 -0.0788,-0.7807 -0.17578,-1.2207 -0.245,-1.133 -0.66013,-2.10891 -1.32813,-3.12891 -0.229,-0.352 -0.47547,-0.668216 -0.73047,-0.949206 -1.33599,-1.476 -3.11031,-2.43508 -5.07031,-2.83008 -1.651,-0.335 -3.47081,-0.30919 -5.13281,0.008 -0.94,0.177 -1.85603,0.3772 -2.83203,0.6582 -0.078,0.018 -0.13978,10e-4 -0.17578,-0.0508 -0.009,-0.019 -0.0168,-0.0367 -0.008,-0.0527 0.212,-0.801 0.37085,-1.61908 0.46485,-2.45508 0.107,-0.957 0.13361,-1.94928 -0.0254,-2.86328 -0.068,-0.439 -0.11452,-0.86955 -0.22852,-1.31055 -0.141,-0.536 -0.28287,-0.99309 -0.42187,-1.37109 -0.387,-1.02 -0.95888,-2.10118 -1.54688,-3.07618 -0.458,-0.75599 -0.91386,-1.50357 -1.38086,-2.26757 -0.615,-1.02 -1.17737,-2.04821 -1.60937,-3.15821 -0.113,-0.288 -0.17403,-0.59514 -0.33203,-0.86914 0,0 -7.7e-4,-0.008 -0.01,-0.008 -0.017,-0.017 -0.0455,-0.009 -0.0625,0.008 -0.078,0.106 -0.0949,0.32622 -0.13086,0.44922 -0.026,0.113 -0.0613,0.22852 -0.11328,0.35352 -0.307,0.772 -0.63356,1.4575 -0.97656,2.0625 -0.158,0.283 -0.32638,0.57228 -0.48438,0.86328 -0.113,0.21 -0.39222,0.6587 -0.82422,1.3457 -0.36,0.569 -0.74857,1.21125 -1.14257,1.90625 -0.38,0.661 -0.71177,1.33507 -1.00977,2.03906 -0.186,0.413 -0.31817,0.85321 -0.45117,1.28321 -0.236,0.791 -0.38492,1.68903 -0.41992,2.70703 -0.062,1.504 0.104,2.95333 0.5,4.36133 0.01,0.016 0.01,0.0337 0,0.0527 -0.009,0.052 -0.071,0.0854 -0.12305,0.0684 -0.976,-0.281 -1.96131,-0.50859 -2.94531,-0.68359 -1.011,-0.186 -2.05549,-0.26447 -3.14649,-0.23047 -2.213,0.063 -4.37745,0.74711 -6.06445,2.16211 -1.381,1.161 -2.32884,2.602216 -2.83984,4.324216 -0.193,0.642 -0.28765,1.29489 -0.30665,1.96289 -0.009,0.342 -2.3e-4,0.68397 0.01,1.04297 0.026,0.68699 0.16488,1.38198 0.42188,2.08398 0.475,1.294 1.22957,2.36599 2.26757,3.20898 0.914,0.747 2.12643,1.31727 3.23243,1.57227 1.06499,0.255 2.12932,0.31659 3.23632,0.30859 0.017,0 0.0348,-0.009 0.0508,-0.0176 0.045,-0.026 0.0553,-0.08 0.0293,-0.12305 -0.651,-0.985 -1.10686,-2.01375 -1.38086,-3.09375 -0.14,-0.571 -0.18462,-1.13427 -0.14062,-1.69727 0.097,-1.185 0.61464,-2.11834 1.55664,-2.77734 0.5,-0.342 1.12489,-0.55305 1.71289,-0.62305 1.292,-0.149 2.44347,0.1738 3.48047,0.9668 0.685,0.527 1.20326,1.15163 1.57226,1.89062 0.432,0.862 0.70455,1.75669 0.81055,2.67969 0.069,0.633 0.0774,1.33457 0.0254,2.10156 -0.036,0.501 -0.15048,1.04507 -0.27148,1.53907 -0.097,0.42 -0.26319,0.89368 -0.49219,1.42968 -0.423,0.985 -1.00319,1.86368 -1.74219,2.63868 -1.037,1.091 -2.34488,1.85376 -3.79687,2.25976 -0.456,0.13 -0.8951,0.28077 -1.3711,0.38477 -1.512,0.335 -3.005,0.42267 -4.5,0.26367 -0.65,-0.061 -1.31133,-0.20211 -1.98633,-0.41211 -1.23099,-0.378 -2.35423,-0.923 -3.36523,-1.625 -0.415,-0.29 -0.79111,-0.61598 -1.16211,-0.95898 -0.904,-0.826 -1.65223,-1.74877 -2.24023,-2.75977 -0.203,-0.343 -0.38827,-0.70427 -0.57227,-1.07227 -0.272,-0.555 -0.52686,-1.22286 -0.75586,-2.00586 -0.132,-0.42099 -0.20133,-0.71037 -0.23633,-0.85937 -0.116,-0.536 -0.19404,-1.03052 -0.24804,-1.47852 -0.043,-0.378 -0.0691,-0.77254 -0.0781,-1.18554 -0.045,-1.891 0.23036,-3.71619 0.81836,-5.49219 0.43,-1.301 0.99155,-2.52402 1.68555,-3.666016 0.257,-0.422 0.51097,-0.85323 0.79297,-1.24023 0.192,-0.272 0.36812,-0.55536 0.57812,-0.81836 0.756,-0.932 1.40813,-1.67823 1.95313,-2.24023 1.212,-1.258 2.68253,-2.66357 4.39453,-4.22657 1.355,-1.232 2.69755,-2.47972 4.06054,-3.76171 1.521,-1.426 2.95422,-2.92896 4.32422,-4.50196 0.555,-0.643 1.12503,-1.36256 1.58203,-1.97656 0.624,-0.827 1.2225,-1.72341 1.8125,-2.69141 0.923,-1.521 1.89832,-3.40158 2.94532,-5.64257 0.323,-0.694 0.74667,-1.6624 1.26367,-2.9004 0.071,-0.158 0.10562,-0.31737 0.14062,-0.48437 0.009,-0.01 0.01,-0.009 0.01,-0.0176 0.017,-0.052 0.069,-0.0697 0.12305,-0.0527 z"
     id="path4" /><path
     style="fill:#1b445f;fill-opacity:1;fill-rule:nonzero"
     d="m 515.5014,221.65601 c 0.054,0.026 0.0853,0.06 0.11133,0.12305 0.503,1.238 0.99528,2.39012 1.48828,3.45312 0.844,1.82 1.75682,3.58678 2.75782,5.30078 0.553,0.94 1.1895,1.91738 1.8125,2.73438 0.369,0.493 0.75557,1.00061 1.14257,1.47461 0.931,1.134 1.93286,2.24222 3.00586,3.32422 1.37,1.38899 2.67163,2.64342 4.01563,3.85742 1.936,1.75 3.58756,3.29877 4.97656,4.63476 0.713,0.685 1.51997,1.5273 2.41797,2.5293 0.571,0.642 1.141,1.35191 1.625,2.00391 0.413,0.553 0.82623,1.17904 1.24023,1.87304 1.565,2.629 2.24011,5.46682 2.03711,8.50782 -0.026,0.385 -0.0696,0.79131 -0.14062,1.19531 -0.342,2.145 -1.12271,4.08852 -2.3457,5.85351 -0.774,1.117 -1.78385,2.15555 -2.83985,2.93555 -1.379,1.02 -2.91805,1.71475 -4.62305,2.09375 -1.30799,0.289 -2.70597,0.29725 -4.04296,0.15625 -0.992,-0.104 -1.94193,-0.35878 -2.91993,-0.67578 -1.78299,-0.571 -3.20653,-1.58125 -4.26953,-3.03125 -0.465,-0.626 -0.84458,-1.32741 -1.14258,-2.06641 -0.054,-0.114 -0.13204,-0.35289 -0.24804,-0.71289 -0.078,-0.238 -0.13917,-0.48351 -0.20117,-0.72851 -0.106,-0.458 -0.1666,-0.76364 -0.1836,-0.93164 -0.052,-0.422 -0.0725,-0.93149 -0.0625,-1.52149 0.016,-1.159 0.28867,-2.30284 0.76367,-3.33984 0.212,-0.466 0.51894,-0.91378 0.83594,-1.30078 0.368,-0.449 0.81013,-0.82777 1.32813,-1.13477 0.975,-0.579 2.01314,-0.79081 3.11914,-0.63281 0.413,0.061 0.80034,0.17652 1.15234,0.35352 0.808,0.39599 1.50397,1.11656 1.79297,1.97656 0.229,0.668 0.27259,1.42433 0.18359,2.11133 -0.069,0.508 -0.20076,1.05287 -0.38476,1.54687 -0.281,0.739 -0.62611,1.44919 -1.03711,2.11719 -0.036,0.052 -0.0455,0.11478 -0.0195,0.17578 0.01,0.009 0.0175,0.0177 0.0195,-0.0273 1.554,0.052 3.10981,-0.13194 4.50781,-0.71094 1.793,-0.739 3.10274,-1.95244 3.92773,-3.64844 0.168,-0.325 0.30883,-0.69289 0.42383,-1.08789 0.272,-0.932 0.37622,-1.8738 0.32422,-2.8418 -0.026,-0.378 -0.0788,-0.7817 -0.17383,-1.2207 -0.247,-1.134 -0.66012,-2.10791 -1.32812,-3.12891 -0.229,-0.351 -0.47647,-0.66822 -0.73047,-0.94921 -1.336,-1.476 -3.11031,-2.43608 -5.07031,-2.83008 -1.653,-0.335 -3.47282,-0.30819 -5.13282,0.008 -0.94199,0.177 -1.85603,0.3772 -2.83203,0.6582 -0.078,0.019 -0.13878,0.001 -0.17578,-0.0508 -0.008,-0.019 -0.0168,-0.0357 -0.008,-0.0527 0.211,-0.801 0.36784,-1.61713 0.46484,-2.45313 0.106,-0.956 0.13261,-1.95123 -0.0254,-2.86523 -0.071,-0.439 -0.11551,-0.86955 -0.22851,-1.31055 -0.14,-0.536 -0.28288,-0.99114 -0.42188,-1.36914 -0.387,-1.02 -0.95883,-2.10313 -1.54883,-3.07813 -0.456,-0.75599 -0.9119,-1.50262 -1.3789,-2.26562 -0.616,-1.02 -1.17938,-2.0492 -1.60938,-3.1582 -0.113,-0.289 -0.17403,-0.59514 -0.33203,-0.86914 0,0 -7.6e-4,-0.01 -0.01,-0.01 -0.019,-0.017 -0.0455,-0.007 -0.0625,0.01 -0.08,0.106 -0.0949,0.32622 -0.13086,0.44922 -0.026,0.11299 -0.0613,0.22856 -0.11328,0.35156 -0.309,0.772 -0.63352,1.4594 -0.97852,2.0664 -0.158,0.281 -0.32342,0.56938 -0.48242,0.85938 -0.115,0.21 -0.39422,0.6607 -0.82422,1.3457 -0.361,0.569 -0.74853,1.21225 -1.14453,1.90625 -0.378,0.661 -0.70977,1.33507 -1.00977,2.03906 -0.184,0.413 -0.31622,0.85321 -0.44922,1.28321 -0.245,0.791 -0.39368,1.68903 -0.42968,2.70703 -0.061,1.504 0.104,2.95333 0.5,4.36133 0.01,0.017 0.01,0.0337 0,0.0527 -0.009,0.052 -0.071,0.0863 -0.12305,0.0703 -0.975,-0.281 -1.96031,-0.51054 -2.94531,-0.68554 -1.01,-0.187 -2.05549,-0.26447 -3.14649,-0.23047 -2.215,0.063 -4.3765,0.74906 -6.0625,2.16406 -1.381,1.161 -2.33179,2.60027 -2.84179,4.32227 -0.191,0.642 -0.28965,1.29489 -0.30664,1.96289 -0.009,0.343 7.6e-4,0.68587 0.01,1.04687 0.026,0.685 0.16488,1.37908 0.42188,2.08008 0.473,1.294 1.23057,2.36694 2.26757,3.21094 0.914,0.746 2.12638,1.31531 3.23438,1.57031 1.064,0.256 2.12637,0.31755 3.23437,0.31055 0.017,0 0.0357,-0.0105 0.0527,-0.0195 0.045,-0.026 0.0534,-0.08 0.0254,-0.12305 -0.65,-0.985 -1.10591,-2.01375 -1.37891,-3.09375 -0.14,-0.571 -0.18562,-1.13527 -0.14062,-1.69727 0.097,-1.186 0.61469,-2.11834 1.55468,-2.77734 0.494,-0.342 1.12685,-0.55305 1.71485,-0.62305 1.292,-0.149 2.44347,0.17575 3.48047,0.96875 0.685,0.526 1.20522,1.14968 1.57422,1.88867 0.432,0.862 0.70159,1.75765 0.80859,2.68165 0.068,0.63199 0.0793,1.33261 0.0273,2.0996 -0.036,0.501 -0.15239,1.04507 -0.27539,1.53907 -0.095,0.42 -0.26123,0.89368 -0.49023,1.42968 -0.423,0.985 -1.00124,1.86468 -1.74024,2.63868 -1.03699,1.091 -2.34687,1.85376 -3.79687,2.25976 -0.456,0.13 -0.89709,0.28077 -1.37109,0.38477 -1.514,0.335 -3.00601,0.42462 -4.5,0.26562 -0.65,-0.061 -1.31229,-0.20306 -1.98829,-0.41406 -1.22999,-0.378 -2.35618,-0.923 -3.36718,-1.625 -0.413,-0.29 -0.78916,-0.61598 -1.16016,-0.95898 -0.905,-0.826 -1.65223,-1.74877 -2.24023,-2.75977 -0.203,-0.343 -0.38727,-0.70227 -0.57227,-1.07227 -0.271,-0.555 -0.52491,-1.21995 -0.75391,-2.00195 -0.132,-0.423 -0.20423,-0.71428 -0.24023,-0.86328 -0.113,-0.536 -0.19214,-1.03052 -0.24414,-1.47852 -0.043,-0.378 -0.0691,-0.77254 -0.0781,-1.18554 -0.045,-1.889 0.22841,-3.71619 0.81641,-5.49219 0.43,-1.301 0.99155,-2.52502 1.68555,-3.66602 0.257,-0.423 0.50997,-0.85323 0.79297,-1.24023 0.192,-0.272 0.37007,-0.55441 0.58007,-0.81641 0.756,-0.933 1.40713,-1.67918 1.95313,-2.24218 1.212,-1.258 2.67858,-2.66257 4.39258,-4.22657 1.353,-1.232 2.6995,-2.47972 4.0625,-3.76171 1.521,-1.426 2.95222,-2.92896 4.32422,-4.50196 0.555,-0.642 1.12403,-1.36256 1.58203,-1.97656 0.624,-0.827 1.21959,-1.72341 1.80859,-2.69141 0.915,-1.521 1.8915,-3.40158 2.9375,-5.64257 0.324,-0.694 0.74563,-1.6624 1.26563,-2.9004 0.069,-0.158 0.10367,-0.31542 0.13867,-0.48242 0.01,-0.009 0.0117,-0.01 0.0117,-0.0176 0.018,-0.052 0.07,-0.0717 0.12304,-0.0527 z"
     id="path15" /><path
     style="fill:#1b445f;fill-opacity:1;fill-rule:nonzero"
     d="m 437.22797,93.47121 c 0.052,0.028 0.0873,0.061 0.11328,0.125 0.5,1.238 0.99337,2.39012 1.48437,3.45312 0.845,1.82 1.75972,3.58678 2.76172,5.30078 0.553,0.94 1.18455,1.91543 1.81055,2.73242 0.369,0.493 0.75753,1.00157 1.14453,1.47657 0.931,1.134 1.93391,2.24026 3.00391,3.32226 1.37199,1.38899 2.67162,2.64537 4.01562,3.85937 1.934,1.75 3.58756,3.29581 4.97656,4.63281 0.711,0.685 1.52097,1.52925 2.41797,2.53125 0.57,0.642 1.141,1.35191 1.625,2.00391 0.414,0.552 0.82724,1.17904 1.24024,1.87304 1.56399,2.629 2.24011,5.46582 2.03711,8.50782 -0.026,0.385 -0.0697,0.79131 -0.13868,1.19531 -0.343,2.145 -1.12565,4.08852 -2.34765,5.85351 -0.774,1.117 -1.78289,2.15555 -2.83789,2.93555 -1.382,1.02 -2.92,1.71475 -4.625,2.09375 -1.309,0.289 -2.70697,0.29725 -4.04297,0.15625 -0.993,-0.105 -1.94297,-0.35978 -2.91797,-0.67578 -1.784,-0.571 -3.20753,-1.58125 -4.26953,-3.03125 -0.468,-0.626 -0.84753,-1.32936 -1.14453,-2.06836 -0.054,-0.113 -0.1311,-0.35094 -0.2461,-0.71094 -0.078,-0.238 -0.14017,-0.48351 -0.20117,-0.72851 -0.106,-0.458 -0.1695,-0.7656 -0.1875,-0.9336 -0.052,-0.423 -0.0676,-0.92953 -0.0586,-1.51953 0.017,-1.16 0.28772,-2.30284 0.76172,-3.33984 0.213,-0.466 0.51993,-0.91474 0.83593,-1.30274 0.369,-0.448 0.80813,-0.82581 1.32813,-1.13281 0.975,-0.579 2.01414,-0.79081 3.11914,-0.63281 0.414,0.061 0.8023,0.17456 1.1543,0.35156 0.808,0.396 1.50101,1.11852 1.79101,1.97852 0.229,0.668 0.27255,1.42237 0.18555,2.10937 -0.071,0.508 -0.20267,1.05388 -0.38867,1.54688 -0.279,0.739 -0.62311,1.45114 -1.03711,2.11914 -0.035,0.052 -0.0416,0.11183 -0.0156,0.17383 0.007,0.018 0.016,0.0266 0,-0.0254 1.556,0.052 3.10982,-0.13194 4.50782,-0.71094 1.79499,-0.739 3.10268,-1.95244 3.92968,-3.64844 0.167,-0.326 0.30688,-0.6948 0.42188,-1.0918 0.272,-0.93 0.37817,-1.86989 0.32617,-2.83789 -0.028,-0.378 -0.0788,-0.7807 -0.17578,-1.2207 -0.245,-1.133 -0.66013,-2.10891 -1.32813,-3.12891 -0.229,-0.352 -0.47547,-0.66822 -0.73047,-0.94921 -1.33599,-1.476 -3.11031,-2.43508 -5.07031,-2.83008 -1.651,-0.335 -3.47081,-0.30919 -5.13281,0.008 -0.94,0.177 -1.85603,0.3772 -2.83203,0.6582 -0.078,0.018 -0.13978,0.001 -0.17578,-0.0508 -0.009,-0.019 -0.0168,-0.0367 -0.008,-0.0527 0.212,-0.801 0.37085,-1.61908 0.46485,-2.45508 0.107,-0.957 0.13361,-1.94928 -0.0254,-2.86328 -0.068,-0.439 -0.11452,-0.86955 -0.22852,-1.31055 -0.141,-0.536 -0.28287,-0.99309 -0.42187,-1.37109 -0.387,-1.02 -0.95888,-2.10118 -1.54688,-3.07618 -0.458,-0.75599 -0.91386,-1.50356 -1.38086,-2.26756 -0.615,-1.02 -1.17737,-2.04821 -1.60937,-3.15821 -0.113,-0.288 -0.17403,-0.59514 -0.33203,-0.86914 0,0 -7.7e-4,-0.008 -0.01,-0.008 -0.017,-0.017 -0.0455,-0.009 -0.0625,0.008 -0.078,0.106 -0.0949,0.32622 -0.13086,0.44922 -0.026,0.113 -0.0613,0.22852 -0.11328,0.35352 -0.307,0.772 -0.63356,1.4575 -0.97656,2.0625 -0.158,0.283 -0.32638,0.57228 -0.48438,0.86328 -0.113,0.21 -0.39222,0.6587 -0.82422,1.3457 -0.36,0.56899 -0.74857,1.21124 -1.14257,1.90624 -0.38,0.661 -0.71177,1.33507 -1.00977,2.03906 -0.186,0.413 -0.31817,0.85321 -0.45117,1.28321 -0.236,0.791 -0.38492,1.68903 -0.41992,2.70703 -0.062,1.504 0.104,2.95333 0.5,4.36133 0.01,0.016 0.01,0.0337 0,0.0527 -0.009,0.052 -0.071,0.0854 -0.12305,0.0684 -0.976,-0.281 -1.96131,-0.50859 -2.94531,-0.68359 -1.011,-0.186 -2.05549,-0.26447 -3.14649,-0.23047 -2.213,0.063 -4.37745,0.74711 -6.06445,2.16211 -1.381,1.161 -2.32884,2.60222 -2.83984,4.32422 -0.193,0.642 -0.28765,1.29489 -0.30665,1.96289 -0.009,0.342 -2.3e-4,0.68397 0.01,1.04297 0.026,0.68699 0.16488,1.38198 0.42188,2.08398 0.475,1.294 1.22957,2.36599 2.26757,3.20898 0.914,0.747 2.12643,1.31727 3.23243,1.57227 1.06499,0.255 2.12932,0.31659 3.23632,0.30859 0.017,0 0.0348,-0.009 0.0508,-0.0176 0.045,-0.026 0.0553,-0.08 0.0293,-0.12305 -0.651,-0.985 -1.10686,-2.01375 -1.38086,-3.09375 -0.14,-0.571 -0.18462,-1.13427 -0.14062,-1.69727 0.097,-1.185 0.61464,-2.11834 1.55664,-2.77734 0.5,-0.342 1.12489,-0.55305 1.71289,-0.62305 1.292,-0.149 2.44347,0.1738 3.48047,0.9668 0.685,0.527 1.20326,1.15163 1.57226,1.89062 0.432,0.862 0.70455,1.75669 0.81055,2.67969 0.069,0.633 0.0774,1.33457 0.0254,2.10156 -0.036,0.501 -0.15048,1.04507 -0.27148,1.53907 -0.097,0.42 -0.26319,0.89368 -0.49219,1.42968 -0.423,0.985 -1.00319,1.86368 -1.74219,2.63868 -1.037,1.091 -2.34488,1.85376 -3.79687,2.25976 -0.456,0.13 -0.8951,0.28077 -1.3711,0.38477 -1.512,0.335 -3.005,0.42267 -4.5,0.26367 -0.65,-0.061 -1.31133,-0.20211 -1.98633,-0.41211 -1.23099,-0.378 -2.35423,-0.923 -3.36523,-1.625 -0.415,-0.29 -0.79111,-0.61598 -1.16211,-0.95898 -0.904,-0.826 -1.65223,-1.74877 -2.24023,-2.75977 -0.203,-0.343 -0.38827,-0.70427 -0.57227,-1.07227 -0.272,-0.555 -0.52686,-1.22286 -0.75586,-2.00586 -0.132,-0.42099 -0.20133,-0.71037 -0.23633,-0.85937 -0.116,-0.536 -0.19404,-1.03052 -0.24804,-1.47852 -0.043,-0.378 -0.0691,-0.77254 -0.0781,-1.18554 -0.045,-1.891 0.23036,-3.71619 0.81836,-5.49219 0.43,-1.301 0.99155,-2.52402 1.68555,-3.66602 0.257,-0.422 0.51097,-0.85323 0.79297,-1.24023 0.192,-0.272 0.36812,-0.55536 0.57812,-0.81836 0.756,-0.932 1.40813,-1.67823 1.95313,-2.24023 1.212,-1.258 2.68253,-2.66357 4.39453,-4.22657 1.355,-1.232 2.69755,-2.47972 4.06054,-3.76171 1.521,-1.426 2.95422,-2.92895 4.32422,-4.50195 0.555,-0.643 1.12503,-1.36256 1.58203,-1.97656 0.624,-0.827 1.2225,-1.72341 1.8125,-2.69141 0.923,-1.521 1.89832,-3.40158 2.94532,-5.64257 0.323,-0.694 0.74667,-1.6624 1.26367,-2.9004 0.071,-0.158 0.10562,-0.31737 0.14062,-0.48437 0.009,-0.01 0.01,-0.009 0.01,-0.0176 0.017,-0.052 0.069,-0.0697 0.12305,-0.0527 z"
     id="path16" /></svg>
