<?xml version="1.0" encoding="UTF-8" standalone="no"?>
<svg
   width="600"
   height="600"
   viewBox="0 0 600 600"
   version="1.1"
   xml:space="preserve"
   style="clip-rule:evenodd;fill-rule:evenodd;stroke-linejoin:round;stroke-miterlimit:2"
   id="svg23"
   sodipodi:docname="bg-logo_dark.svg"
   inkscape:version="1.3 (0e150ed6c4, 2023-07-21)"
   xmlns:inkscape="http://www.inkscape.org/namespaces/inkscape"
   xmlns:sodipodi="http://sodipodi.sourceforge.net/DTD/sodipodi-0.dtd"
   xmlns="http://www.w3.org/2000/svg"
   xmlns:svg="http://www.w3.org/2000/svg"><defs
     id="defs23" /><sodipodi:namedview
     id="namedview23"
     pagecolor="#ffffff"
     bordercolor="#000000"
     borderopacity="0.25"
     inkscape:showpageshadow="2"
     inkscape:pageopacity="0.0"
     inkscape:pagecheckerboard="true"
     inkscape:deskcolor="#d1d1d1"
     inkscape:zoom="1.307047"
     inkscape:cx="199.68677"
     inkscape:cy="388.27984"
     inkscape:window-width="1920"
     inkscape:window-height="1017"
     inkscape:window-x="1912"
     inkscape:window-y="337"
     inkscape:window-maximized="1"
     inkscape:current-layer="svg23" /><path
     style="clip-rule:evenodd;fill:#ffffff;fill-opacity:1;fill-rule:nonzero;stroke-linejoin:round;stroke-miterlimit:2"
     d="m 365.71277,530.71033 c -0.0219,0.009 -0.0384,0.0267 -0.0469,0.0527 0,0.009 -7.7e-4,0.01 -0.01,0.0195 -0.035,0.167 -0.0716,0.32443 -0.14258,0.48243 -0.517,1.23799 -0.93872,2.20639 -1.26172,2.90039 -1.047,2.24099 -2.02231,4.12158 -2.94531,5.64257 -0.59,0.968 -1.1885,1.86441 -1.8125,2.69141 -0.457,0.614 -1.02703,1.33356 -1.58203,1.97656 -1.37,1.573 -2.80322,3.07596 -4.32422,4.50196 -1.363,1.28199 -2.7075,2.52972 -4.0625,3.76171 -1.712,1.563 -3.18058,2.96857 -4.39258,4.22657 -0.545,0.562 -1.19712,1.31019 -1.95312,2.24219 -0.21,0.26299 -0.38613,0.54635 -0.57813,0.81835 -0.282,0.387 -0.53597,0.81629 -0.79297,1.23829 -0.694,1.14199 -1.25554,2.36501 -1.68554,3.66601 -0.588,1.776 -0.86336,3.60119 -0.81836,5.49219 0.009,0.413 0.0351,0.8095 0.0781,1.1875 0.054,0.448 0.13205,0.94056 0.24805,1.47656 0.035,0.149 0.10433,0.44033 0.23633,0.86133 0.229,0.783 0.48386,1.44891 0.75586,2.00391 0.184,0.368 0.36926,0.72926 0.57226,1.07226 0.588,1.011 1.33624,1.93377 2.24024,2.75977 0.371,0.343 0.74711,0.66898 1.16211,0.95898 1.011,0.702 2.13423,1.247 3.36523,1.625 0.675,0.21 1.33633,0.35306 1.98633,0.41406 1.495,0.159 2.988,0.0694 4.5,-0.26562 0.476,-0.104 0.91509,-0.25477 1.37109,-0.38477 1.452,-0.406 2.75988,-1.16876 3.79688,-2.25976 0.739,-0.775 1.31723,-1.65172 1.74023,-2.63672 0.229,-0.536 0.39714,-1.01164 0.49414,-1.43164 0.121,-0.494 0.23549,-1.03806 0.27149,-1.53906 0.052,-0.767 0.0436,-1.46857 -0.0254,-2.10157 -0.106,-0.923 -0.37855,-1.81769 -0.81055,-2.67968 -0.369,-0.739 -0.88727,-1.36363 -1.57227,-1.89063 -1.037,-0.793 -2.19042,-1.1158 -3.48242,-0.9668 -0.588,0.07 -1.21094,0.28105 -1.71094,0.62305 -0.94199,0.659 -1.45964,1.59235 -1.55664,2.77734 -0.044,0.563 -10e-4,1.12627 0.13868,1.69727 0.274,1.08 0.72986,2.1107 1.38085,3.0957 0.026,0.043 0.0177,0.0971 -0.0273,0.12305 -0.016,0.009 -0.0338,0.0176 -0.0508,0.0176 -1.107,0.008 -2.17133,-0.0536 -3.23633,-0.3086 -1.106,-0.255 -2.32037,-0.82722 -3.23437,-1.57421 -1.038,-0.843 -1.79063,-1.91499 -2.26563,-3.20899 -0.257,-0.702 -0.39587,-1.39503 -0.42187,-2.08203 -0.01,-0.359 -0.0188,-0.70292 -0.01,-1.04492 0.019,-0.668 0.11364,-1.31894 0.30664,-1.96094 0.511,-1.722 1.45885,-3.16322 2.83985,-4.32422 1.68699,-1.415 3.85145,-2.10106 6.06445,-2.16406 1.091,-0.034 2.13548,0.0445 3.14648,0.23047 0.984,0.175 1.96932,0.40455 2.94532,0.68555 0.052,0.017 0.11404,-0.0183 0.12304,-0.0703 0.01,-0.019 0.01,-0.0367 0,-0.0527 -0.396,-1.408 -0.562,-2.85733 -0.5,-4.36133 0.035,-1.018 0.18392,-1.91603 0.41992,-2.70703 0.133,-0.43 0.26518,-0.86825 0.45118,-1.28125 0.298,-0.704 0.62976,-1.38002 1.00976,-2.04102 0.394,-0.695 0.78063,-1.33725 1.14063,-1.90625 0.432,-0.687 0.71317,-1.1357 0.82617,-1.3457 0.158,-0.291 0.32637,-0.57833 0.48437,-0.86133 0.343,-0.605 0.66957,-1.29245 0.97657,-2.06445 0.052,-0.125 0.0873,-0.23856 0.11328,-0.35156 0.036,-0.123 0.0529,-0.34322 0.13086,-0.44922 0.017,-0.017 0.0455,-0.0268 0.0625,-0.01 0.009,0 0.01,0.01 0.01,0.01 0.158,0.274 0.21903,0.58114 0.33203,0.86914 0.432,1.11 0.99438,2.13625 1.60938,3.15625 0.467,0.764 0.92286,1.51158 1.38086,2.26758 0.588,0.975 1.15987,2.05812 1.54687,3.07812 0.139,0.378 0.28088,0.83314 0.42188,1.36914 0.114,0.441 0.15856,0.87155 0.22656,1.31055 0.159,0.914 0.13434,1.90823 0.0273,2.86523 -0.094,0.836 -0.25284,1.65213 -0.46484,2.45313 -0.009,0.016 -10e-4,0.0337 0.008,0.0527 0.036,0.052 0.0978,0.0688 0.17578,0.0508 0.976,-0.281 1.89204,-0.4812 2.83204,-0.6582 1.66199,-0.317 3.47986,-0.34281 5.13086,-0.008 1.95999,0.395 3.73626,1.35408 5.07226,2.83008 0.255,0.281 0.50147,0.59722 0.73047,0.94921 0.668,1.02 1.08117,1.99591 1.32617,3.12891 0.097,0.44 0.14974,0.84466 0.17774,1.22266 0.052,0.968 -0.0542,1.90789 -0.32618,2.83789 -0.115,0.397 -0.25487,0.76384 -0.42187,1.08984 -0.827,1.696 -2.13469,2.90944 -3.92969,3.64844 -1.398,0.579 -2.95181,0.76489 -4.50781,0.71289 0.016,0.052 0.007,0.0434 0,0.0254 -0.026,-0.062 -0.0194,-0.12378 0.0156,-0.17578 0.414,-0.668 0.75811,-1.38014 1.03711,-2.11914 0.186,-0.493 0.31768,-1.03692 0.38868,-1.54492 0.087,-0.687 0.0435,-1.44333 -0.18555,-2.11133 -0.29,-0.86 -0.98497,-1.58056 -1.79297,-1.97656 -0.352,-0.177 -0.73834,-0.29252 -1.15234,-0.35352 -1.105,-0.158 -2.14415,0.0558 -3.11914,0.63477 -0.52,0.307 -0.95913,0.68481 -1.32813,1.13281 -0.316,0.388 -0.62294,0.83478 -0.83594,1.30078 -0.474,1.037 -0.74667,2.17984 -0.76367,3.33984 -0.009,0.59 0.009,1.09849 0.0606,1.52149 0.018,0.168 0.0795,0.47364 0.18554,0.93164 0.061,0.245 0.12318,0.49247 0.20118,0.73047 0.115,0.36 0.19404,0.59794 0.24804,0.71093 0.297,0.739 0.67653,1.44041 1.14453,2.06641 1.062,1.45 2.48554,2.46025 4.26954,3.03125 0.97499,0.316 1.92497,0.57078 2.91796,0.67578 1.336,0.141 2.73397,0.13275 4.04297,-0.15625 1.705,-0.379 3.243,-1.07375 4.625,-2.09375 1.055,-0.78 2.06389,-1.81855 2.83789,-2.93554 1.222,-1.765 2.00466,-3.70852 2.34766,-5.85352 0.069,-0.404 0.11267,-0.80836 0.13867,-1.19336 0.203,-3.042 -0.47311,-5.88077 -2.03711,-8.50976 -0.413,-0.694 -0.82623,-1.3191 -1.24023,-1.8711 -0.484,-0.652 -1.055,-1.36386 -1.625,-2.00586 -0.897,-1.002 -1.70697,-1.8443 -2.41797,-2.5293 -1.389,-1.33699 -3.04257,-2.88476 -4.97656,-4.63476 -1.344,-1.214 -2.64558,-2.46842 -4.01758,-3.85742 -1.07,-1.082 -2.07291,-2.19022 -3.00391,-3.32422 -0.387,-0.475 -0.77358,-0.98161 -1.14258,-1.47461 -0.62599,-0.817 -1.25754,-1.79438 -1.81054,-2.73438 -1.002,-1.71399 -1.91672,-3.48078 -2.76172,-5.30078 -0.491,-1.063 -0.98438,-2.21512 -1.48438,-3.45312 -0.026,-0.064 -0.0613,-0.097 -0.11328,-0.125 -0.027,-0.009 -0.0543,-0.009 -0.0762,0 z"
     id="path25" /><path
     style="clip-rule:evenodd;fill:#ffffff;fill-opacity:0.26153848;fill-rule:nonzero;stroke-linejoin:round;stroke-miterlimit:2"
     d="m 286.61511,468.18164 c -0.0219,0.009 -0.0398,0.0248 -0.0488,0.0508 0,0.009 2.3e-4,0.009 -0.01,0.0176 -0.035,0.168 -0.0677,0.32738 -0.13867,0.48438 -0.52,1.23899 -0.94158,2.20734 -1.26758,2.90234 -1.046,2.24099 -2.02036,4.11963 -2.94336,5.64062 -0.588,0.968 -1.1885,1.86441 -1.8125,2.69141 -0.458,0.616 -1.02803,1.33456 -1.58203,1.97656 -1.37,1.573 -2.80327,3.076 -4.32227,4.5 -1.36399,1.284 -2.70754,2.53072 -4.06054,3.76172 -1.715,1.565 -3.18353,2.97247 -4.39453,4.23047 -0.546,0.562 -1.19718,1.30824 -1.95118,2.24023 -0.212,0.263 -0.38803,0.54341 -0.58203,0.81641 -0.281,0.386 -0.53597,0.81828 -0.79297,1.23828 -0.69399,1.143 -1.2555,2.36602 -1.6875,3.66602 -0.588,1.777 -0.8604,3.60409 -0.8164,5.49609 0.01,0.413 0.0361,0.8056 0.0801,1.18359 0.052,0.449 0.13109,0.94152 0.24609,1.47852 0.035,0.15 0.10433,0.43938 0.23633,0.85938 0.231,0.78399 0.48381,1.45086 0.75781,2.00586 0.182,0.36899 0.36931,0.72826 0.57031,1.07226 0.59,1.011 1.33524,1.93381 2.24024,2.75781 0.37,0.343 0.74911,0.66799 1.16211,0.95899 1.011,0.703 2.13523,1.24695 3.36523,1.62695 0.676,0.21 1.33728,0.35306 1.98828,0.41406 1.493,0.158 2.9871,0.0693 4.4961,-0.26367 0.477,-0.105 0.917,-0.25567 1.375,-0.38867 1.44999,-0.403 2.75787,-1.16786 3.79687,-2.25586 0.737,-0.775 1.31828,-1.65367 1.73828,-2.63867 0.229,-0.536 0.39714,-1.0106 0.49414,-1.4336 0.121,-0.491 0.23644,-1.03611 0.27344,-1.5371 0.052,-0.765 0.0437,-1.46862 -0.0273,-2.09961 -0.106,-0.923 -0.37955,-1.8216 -0.81055,-2.6836 -0.369,-0.737 -0.88531,-1.36167 -1.57031,-1.88867 -1.038,-0.791 -2.18943,-1.1178 -3.48242,-0.9668 -0.589,0.071 -1.2219,0.282 -1.7129,0.625 -0.93999,0.659 -1.45964,1.58739 -1.55664,2.77539 -0.045,0.562 -3.7e-4,1.12727 0.14063,1.69727 0.272,1.081 0.72886,2.11075 1.38086,3.09375 0.026,0.044 0.0147,0.097 -0.0293,0.12305 -0.015,0.008 -0.0328,0.0176 -0.0508,0.0176 -1.108,0.009 -2.17138,-0.0516 -3.23437,-0.30664 -1.107,-0.255 -2.32038,-0.82722 -3.23438,-1.57421 -1.037,-0.845 -1.79358,-1.91699 -2.26758,-3.20899 -0.255,-0.704 -0.39783,-1.39703 -0.42383,-2.08203 -0.009,-0.361 -0.0178,-0.70488 -0.008,-1.04688 0.018,-0.66899 0.11464,-1.31698 0.30664,-1.95898 0.512,-1.722 1.4598,-3.16422 2.8418,-4.32422 1.686,-1.414 3.84755,-2.10006 6.06055,-2.16406 1.091,-0.035 2.13743,0.0445 3.14843,0.22851 0.985,0.177 1.97232,0.4045 2.94532,0.6875 0.052,0.017 0.11404,-0.0173 0.12304,-0.0703 0.009,-0.018 0.009,-0.0357 0,-0.0547 -0.397,-1.40499 -0.56295,-2.85537 -0.50195,-4.35937 0.036,-1.018 0.18564,-1.91603 0.43164,-2.70703 0.134,-0.432 0.26327,-0.86821 0.44727,-1.28321 0.3,-0.70199 0.63372,-1.38006 1.01172,-2.03906 0.39599,-0.694 0.78057,-1.3362 1.14257,-1.9082 0.43,-0.685 0.71218,-1.13275 0.82617,-1.34375 0.158,-0.29 0.32638,-0.58033 0.48438,-0.86133 0.343,-0.605 0.66561,-1.29141 0.97461,-2.0664 0.054,-0.122 0.0892,-0.23561 0.11523,-0.34961 0.035,-0.122 0.0529,-0.34522 0.13086,-0.44922 0.019,-0.019 0.0455,-0.0258 0.0625,-0.01 0.009,0 0.01,0.01 0.01,0.01 0.158,0.272 0.21903,0.58114 0.33203,0.86914 0.432,1.108 0.99338,2.1363 1.60938,3.15429 0.46599,0.765 0.92285,1.51454 1.38085,2.26954 0.588,0.97599 1.15888,2.05717 1.54688,3.07617 0.141,0.379 0.28092,0.83604 0.41992,1.37304 0.116,0.439 0.15747,0.8696 0.23047,1.3086 0.156,0.914 0.13134,1.90623 0.0273,2.86523 -0.099,0.836 -0.25679,1.65318 -0.46679,2.45117 -0.009,0.019 -0.001,0.0367 0.008,0.0547 0.036,0.053 0.0978,0.0707 0.17578,0.0527 0.977,-0.282 1.88908,-0.48516 2.83008,-0.66016 1.661,-0.317 3.48077,-0.34277 5.13476,-0.01 1.959,0.395 3.73432,1.35504 5.07032,2.83204 0.255,0.281 0.50147,0.59721 0.73047,0.94921 0.66799,1.018 1.08017,1.99496 1.32617,3.12696 0.097,0.441 0.14978,0.84465 0.17578,1.22265 0.054,0.966 -0.0522,1.90885 -0.32422,2.83985 -0.115,0.396 -0.25488,0.76579 -0.42188,1.09179 -0.82699,1.696 -2.13568,2.90754 -3.92968,3.64454 -1.398,0.581 -2.95182,0.76589 -4.50782,0.71289 0.009,0.043 -0.01,0.0353 -0.01,0.0273 -0.026,-0.061 -0.0184,-0.12178 0.0176,-0.17578 0.411,-0.669 0.75611,-1.38019 1.03711,-2.11719 0.184,-0.493 0.31576,-1.03887 0.38476,-1.54687 0.089,-0.687 0.0454,-1.44233 -0.18359,-2.11133 -0.289,-0.862 -0.98497,-1.58156 -1.79297,-1.97656 -0.352,-0.176 -0.73934,-0.29057 -1.15234,-0.35157 -1.106,-0.159 -2.14415,0.0518 -3.11914,0.63282 -0.518,0.307 -0.96013,0.68481 -1.32813,1.13281 -0.317,0.385 -0.62398,0.83578 -0.83398,1.30078 -0.477,1.037 -0.74768,2.17984 -0.76368,3.33984 -0.01,0.59 0.009,1.09849 0.0605,1.52149 0.017,0.167 0.0776,0.47364 0.18359,0.93164 0.062,0.246 0.12318,0.49247 0.20118,0.73047 0.116,0.359 0.19404,0.59593 0.24804,0.71093 0.298,0.737 0.67758,1.44141 1.14258,2.06641 1.063,1.45 2.48849,2.4612 4.27149,3.0332 0.978,0.316 1.92597,0.56783 2.91797,0.67383 1.33699,0.142 2.73497,0.1328 4.04296,-0.1582 1.705,-0.378 3.24601,-1.0718 4.625,-2.0918 1.056,-0.782 2.0639,-1.81855 2.83789,-2.93554 1.223,-1.766 2.00566,-3.70752 2.34766,-5.85352 0.071,-0.402 0.11463,-0.80831 0.14063,-1.19531 0.203,-3.042 -0.47407,-5.87977 -2.03907,-8.50977 -0.414,-0.694 -0.82723,-1.31809 -1.24023,-1.87109 -0.484,-0.651 -1.054,-1.36091 -1.625,-2.00391 -0.898,-1.001 -1.70497,-1.84425 -2.41797,-2.53125 -1.389,-1.335 -3.04056,-2.88281 -4.97656,-4.63281 -1.344,-1.213 -2.64368,-2.46942 -4.01367,-3.85742 -1.073,-1.082 -2.07682,-2.18927 -3.00782,-3.32227 -0.387,-0.475 -0.77358,-0.98556 -1.14258,-1.47656 -0.62299,-0.819 -1.25754,-1.79238 -1.81054,-2.73438 -1.001,-1.71399 -1.91577,-3.47979 -2.75977,-5.30078 -0.493,-1.062 -0.98333,-2.21412 -1.48633,-3.45312 -0.026,-0.062 -0.0593,-0.097 -0.11328,-0.12305 -0.0265,-0.009 -0.0523,-0.009 -0.0742,0 z"
     id="path24" /><path
     style="clip-rule:evenodd;fill:#ffffff;fill-opacity:0.26153848;fill-rule:nonzero;stroke-linejoin:round;stroke-miterlimit:2"
     d="m 202.77332,448.54297 c -0.054,0.028 -0.0863,0.061 -0.11328,0.125 -0.499,1.238 -0.99333,2.39012 -1.48633,3.45312 -0.843,1.82 -1.75777,3.58679 -2.75977,5.30079 -0.554,0.93999 -1.18654,1.91542 -1.81054,2.73242 -0.368,0.493 -0.75558,1.00156 -1.14258,1.47656 -0.932,1.134 -1.93386,2.24222 -3.00586,3.32422 -1.372,1.389 -2.67363,2.64342 -4.01563,3.85742 -1.93599,1.75 -3.58756,3.29581 -4.97656,4.63281 -0.713,0.685 -1.52297,1.52925 -2.41797,2.53125 -0.572,0.642 -1.141,1.35191 -1.625,2.00391 -0.415,0.552 -0.82923,1.17905 -1.24023,1.87305 -1.565,2.62899 -2.24006,5.46581 -2.03906,8.50781 0.028,0.385 0.0706,0.79131 0.14062,1.19531 0.343,2.145 1.12466,4.08852 2.34766,5.85352 0.772,1.117 1.78389,2.15554 2.83789,2.93554 1.383,1.02 2.92,1.71475 4.625,2.09375 1.309,0.289 2.70697,0.29725 4.04297,0.15625 0.99299,-0.105 1.94101,-0.35978 2.91601,-0.67578 1.786,-0.571 3.21044,-1.58125 4.27344,-3.03125 0.465,-0.626 0.84358,-1.32936 1.14258,-2.06836 0.054,-0.113 0.13309,-0.35094 0.24609,-0.71093 0.08,-0.238 0.14017,-0.48352 0.20117,-0.72852 0.106,-0.458 0.16755,-0.76559 0.18555,-0.93359 0.053,-0.423 0.0695,-0.92954 0.0625,-1.51954 -0.017,-1.15999 -0.29163,-2.30284 -0.76563,-3.33984 -0.211,-0.466 -0.51798,-0.91278 -0.83398,-1.30078 -0.369,-0.448 -0.81113,-0.82777 -1.32813,-1.13477 -0.97599,-0.579 -2.01409,-0.79081 -3.12109,-0.63281 -0.412,0.061 -0.79839,0.17652 -1.15039,0.35352 -0.807,0.396 -1.50492,1.11656 -1.79492,1.97656 -0.229,0.668 -0.27164,1.42433 -0.18164,2.11133 0.068,0.508 0.20076,1.05192 0.38476,1.54492 0.281,0.739 0.62511,1.45114 1.03711,2.11914 0.035,0.052 0.0436,0.11378 0.0176,0.17578 -0.009,0.018 -0.0168,0.0247 -0.008,-0.0273 -1.556,0.052 -3.11182,-0.13194 -4.50781,-0.71094 -1.795,-0.739 -3.10565,-1.95244 -3.93164,-3.64844 -0.168,-0.326 -0.30588,-0.69479 -0.42188,-1.09179 -0.271,-0.93 -0.37822,-1.8699 -0.32422,-2.83789 0.027,-0.378 0.0818,-0.78071 0.17578,-1.22071 0.246,-1.133 0.65918,-2.10891 1.32617,-3.1289 0.229,-0.352 0.47547,-0.66822 0.73047,-0.94922 1.337,-1.476 3.11232,-2.43508 5.07032,-2.83008 1.65299,-0.335 3.47476,-0.30919 5.13476,0.008 0.94,0.177 1.85308,0.3772 2.83008,0.6582 0.08,0.018 0.14078,0.001 0.17578,-0.0508 0.01,-0.019 0.0168,-0.0367 0.01,-0.0527 -0.211,-0.801 -0.37175,-1.61713 -0.46875,-2.45313 -0.104,-0.957 -0.12871,-1.95123 0.0293,-2.86523 0.069,-0.439 0.11552,-0.86955 0.22852,-1.31055 0.14,-0.536 0.27887,-0.99114 0.42187,-1.36914 0.385,-1.02 0.95883,-2.10312 1.54883,-3.07812 0.456,-0.756 0.91191,-1.50358 1.37891,-2.26758 0.614,-1.02 1.17742,-2.04625 1.60742,-3.15625 0.114,-0.288 0.17499,-0.59514 0.33399,-0.86914 0,0 -0.001,-0.01 0.008,-0.01 0.017,-0.017 0.0445,-0.007 0.0625,0.01 0.079,0.106 0.0969,0.32622 0.13086,0.44922 0.028,0.113 0.0612,0.22656 0.11523,0.35156 0.309,0.772 0.63161,1.45945 0.97461,2.06445 0.158,0.283 0.32538,0.57033 0.48438,0.86133 0.113,0.21 0.39617,0.6587 0.82617,1.3457 0.361,0.569 0.74758,1.21125 1.14258,1.90625 0.378,0.661 0.71171,1.33507 1.01171,2.03907 0.184,0.413 0.31327,0.8532 0.44727,1.2832 0.246,0.791 0.39469,1.68903 0.42969,2.70703 0.062,1.504 -0.104,2.95333 -0.5,4.36133 -0.01,0.016 -0.01,0.0337 0,0.0527 0.009,0.052 0.071,0.0873 0.12304,0.0703 0.976,-0.281 1.96132,-0.51055 2.94532,-0.68555 1.011,-0.186 2.05744,-0.26447 3.14843,-0.23047 2.213,0.063 4.37551,0.74906 6.0625,2.16406 1.381,1.161 2.32785,2.60027 2.83985,4.32227 0.191,0.642 0.28959,1.29489 0.30859,1.96289 0.009,0.342 -0.002,0.68592 -0.0117,1.04492 -0.026,0.687 -0.16687,1.38003 -0.42187,2.08203 -0.475,1.294 -1.23063,2.36599 -2.26563,3.20899 -0.915,0.747 -2.12833,1.31726 -3.23632,1.57226 -1.063,0.255 -2.12443,0.31855 -3.23243,0.31055 -0.019,0 -0.0377,-0.0105 -0.0527,-0.0195 -0.047,-0.026 -0.0533,-0.08 -0.0273,-0.12305 0.65099,-0.985 1.1069,-2.01375 1.3789,-3.09375 0.142,-0.571 0.18463,-1.13427 0.14063,-1.69726 -0.097,-1.185 -0.61469,-2.11835 -1.55469,-2.77735 -0.501,-0.342 -1.12489,-0.55305 -1.71289,-0.62305 -1.294,-0.149 -2.44538,0.1738 -3.48438,0.9668 -0.685,0.527 -1.20131,1.15163 -1.57031,1.89063 -0.432,0.862 -0.70455,1.75668 -0.81055,2.67968 -0.07,0.633 -0.0793,1.33457 -0.0273,2.10157 0.038,0.501 0.15244,1.04506 0.27344,1.53906 0.097,0.42 0.26514,0.89369 0.49414,1.42969 0.421,0.985 1.00128,1.86367 1.73828,2.63867 1.039,1.091 2.34688,1.85376 3.79687,2.25976 0.458,0.13 0.899,0.28077 1.375,0.38477 1.51,0.335 3.0041,0.42267 4.4961,0.26367 0.652,-0.061 1.31228,-0.20211 1.98828,-0.41211 1.23,-0.378 2.35423,-0.923 3.36523,-1.625 0.413,-0.29 0.79111,-0.61598 1.16211,-0.95898 0.904,-0.826 1.65219,-1.74877 2.24219,-2.75977 0.201,-0.343 0.38536,-0.70426 0.56836,-1.07226 0.273,-0.555 0.52681,-1.22286 0.75781,-2.00586 0.132,-0.421 0.20033,-0.71038 0.23633,-0.85938 0.115,-0.536 0.19409,-1.03051 0.24609,-1.47851 0.045,-0.378 0.0711,-0.77255 0.0801,-1.18555 0.045,-1.891 -0.23036,-3.71619 -0.81836,-5.49219 -0.432,-1.301 -0.99154,-2.52401 -1.68554,-3.66601 -0.257,-0.422 -0.51197,-0.85324 -0.79297,-1.24024 -0.194,-0.272 -0.36808,-0.5534 -0.58008,-0.8164 -0.756,-0.932 -1.40617,-1.68019 -1.95117,-2.24219 -1.212,-1.258 -2.68054,-2.66357 -4.39453,-4.22656 -1.353,-1.232 -2.69751,-2.47972 -4.0625,-3.76172 -1.519,-1.426 -2.95222,-2.92896 -4.32422,-4.50196 -0.553,-0.643 -1.12408,-1.36256 -1.58008,-1.97656 -0.624,-0.827 -1.2235,-1.72341 -1.8125,-2.69141 -0.923,-1.52099 -1.89936,-3.40158 -2.94336,-5.64257 -0.326,-0.694 -0.74663,-1.66239 -1.26563,-2.90039 -0.071,-0.158 -0.10557,-0.31738 -0.14257,-0.48438 -0.007,-0.01 -0.008,-0.009 -0.008,-0.0176 -0.019,-0.052 -0.071,-0.0697 -0.12304,-0.0527 z"
     id="path23" /><path
     style="clip-rule:evenodd;fill:#ffffff;fill-opacity:1;fill-rule:nonzero;stroke-linejoin:round;stroke-miterlimit:2"
     d="m 122.83972,422.4668 c -0.054,0.026 -0.0873,0.06 -0.11328,0.12304 -0.501,1.238 -0.99428,2.39013 -1.48828,3.45313 -0.843,1.82 -1.75681,3.58678 -2.75781,5.30078 -0.553,0.94 -1.1885,1.91738 -1.8125,2.73437 -0.368,0.493 -0.75458,1.00061 -1.14258,1.47461 -0.93,1.134 -1.93191,2.24222 -3.00391,3.32422 -1.37199,1.389 -2.67358,2.64538 -4.01757,3.85938 -1.936,1.75 -3.58561,3.29681 -4.97461,4.63281 -0.711,0.685 -1.52102,1.5273 -2.41602,2.5293 -0.573,0.642 -1.144907,1.35386 -1.628907,2.00586 -0.41299,0.553 -0.82528,1.17709 -1.23828,1.87109 -1.56299,2.629 -2.24206,5.46877 -2.03906,8.50977 0.026,0.385 0.06963,0.79131 0.14063,1.19531 0.344,2.145 1.12665,4.08656 2.34765,5.85156 0.774,1.117 1.783887,2.15556 2.837887,2.93555 1.381,1.02 2.919,1.71475 4.625,2.09375 1.31,0.289 2.70597,0.29725 4.04297,0.15625 0.994,-0.104 1.94197,-0.35878 2.91797,-0.67578 1.783,-0.571 3.20649,-1.58126 4.27149,-3.03125 0.46499,-0.626 0.84457,-1.32741 1.14257,-2.06641 0.054,-0.114 0.1331,-0.35094 0.2461,-0.71094 0.078,-0.238 0.14917,-0.48547 0.20117,-0.73047 0.106,-0.458 0.16855,-0.76364 0.18555,-0.93164 0.052,-0.422 0.0695,-0.93148 0.0605,-1.52148 -0.017,-1.159 -0.28862,-2.30285 -0.76562,-3.33984 -0.21,-0.466 -0.51799,-0.91379 -0.83399,-1.30079 -0.369,-0.449 -0.80917,-0.82581 -1.32617,-1.13281 -0.976,-0.579 -2.01305,-0.79081 -3.12305,-0.63281 -0.411,0.061 -0.79743,0.17456 -1.14843,0.35156 -0.808,0.396 -1.50593,1.11657 -1.79493,1.97656 -0.22899,0.668 -0.27159,1.42433 -0.18359,2.11133 0.071,0.508 0.20072,1.05288 0.38672,1.54688 0.281,0.739 0.62416,1.44919 1.03516,2.11719 0.037,0.052 0.0465,0.11478 0.0195,0.17578 -0.01,0.009 -0.0188,0.0196 -0.008,-0.0254 -1.55599,0.052 -3.11176,-0.13194 -4.50976,-0.71094 -1.793,-0.739 -3.10274,-1.95439 -3.92774,-3.65039 -0.16799,-0.325 -0.30782,-0.69289 -0.42382,-1.08789 -0.271,-0.932 -0.37627,-1.87185 -0.32227,-2.83985 0.024,-0.378 0.0769,-0.7817 0.17188,-1.2207 0.247,-1.134 0.66208,-2.10986 1.33007,-3.13086 0.227,-0.351 0.47352,-0.66822 0.72852,-0.94922 1.337,-1.476 3.11231,-2.43412 5.07031,-2.82812 1.653,-0.335 3.47477,-0.31014 5.13477,0.006 0.94,0.177 1.85308,0.37915 2.83008,0.66015 0.079,0.019 0.14178,-7.3e-4 0.17578,-0.0527 0.009,-0.019 0.0168,-0.0357 0.008,-0.0527 -0.21,-0.801 -0.36884,-1.61712 -0.46484,-2.45312 -0.105,-0.956 -0.13361,-1.95124 0.0254,-2.86524 0.07,-0.439 0.11647,-0.86954 0.23047,-1.31054 0.139,-0.536 0.28087,-0.99114 0.42187,-1.36914 0.387,-1.02 0.95688,-2.10313 1.54688,-3.07813 0.456,-0.756 0.9139,-1.50262 1.3789,-2.26562 0.616,-1.02 1.17938,-2.04921 1.60938,-3.15821 0.115,-0.289 0.17598,-0.59514 0.33398,-0.86914 0,0 7.7e-4,-0.01 0.01,-0.01 0.015,-0.017 0.0416,-0.007 0.0586,0.01 0.08,0.106 0.0988,0.32622 0.13281,0.44922 0.026,0.113 0.0612,0.22856 0.11524,0.35156 0.307,0.772 0.63356,1.45941 0.97656,2.06641 0.158,0.281 0.32247,0.56938 0.48047,0.85938 0.113,0.21 0.39617,0.6607 0.82617,1.3457 0.361,0.569 0.75049,1.21225 1.14649,1.90625 0.37599,0.661 0.70781,1.33702 1.00781,2.04101 0.184,0.413 0.31622,0.85321 0.44922,1.28321 0.238,0.791 0.38692,1.68708 0.41992,2.70508 0.062,1.50399 -0.10305,2.95333 -0.49805,4.36132 -0.009,0.017 -0.009,0.0337 0,0.0527 0.01,0.052 0.0691,0.0863 0.1211,0.0703 0.97799,-0.281 1.96036,-0.50859 2.94335,-0.68359 1.011,-0.187 2.05944,-0.26642 3.14844,-0.23242 2.215,0.063 4.37546,0.74906 6.06445,2.16406 1.381,1.161 2.32885,2.60222 2.83985,4.32422 0.193,0.642 0.28959,1.29293 0.30859,1.96093 0.007,0.343 2.4e-4,0.68588 -0.01,1.04688 -0.028,0.685 -0.16688,1.37908 -0.42188,2.08008 -0.473,1.294 -1.23058,2.36694 -2.26758,3.21093 -0.915,0.746 -2.12637,1.31727 -3.23437,1.57227 -1.063,0.256 -2.12733,0.31559 -3.23633,0.30859 -0.017,0 -0.0328,-0.009 -0.0508,-0.0176 -0.045,-0.026 -0.0553,-0.0801 -0.0273,-0.12305 0.65099,-0.985 1.1069,-2.01375 1.3789,-3.09375 0.14,-0.571 0.18463,-1.13527 0.14063,-1.69727 -0.095,-1.186 -0.61469,-2.12029 -1.55469,-2.77929 -0.491,-0.342 -1.12489,-0.55305 -1.71289,-0.62305 -1.294,-0.149 -2.44542,0.17575 -3.48242,0.96875 -0.685,0.526 -1.20327,1.14967 -1.57227,1.88867 -0.432,0.862 -0.70455,1.75764 -0.81055,2.68164 -0.069,0.632 -0.0774,1.33457 -0.0234,2.10156 0.034,0.501 0.14848,1.04311 0.27148,1.53711 0.097,0.42 0.26319,0.89564 0.49219,1.43164 0.421,0.985 1.00323,1.86272 1.74023,2.63672 1.038,1.09099 2.34688,1.85377 3.79688,2.25977 0.456,0.13 0.89609,0.28272 1.37109,0.38672 1.512,0.335 3.00696,0.42267 4.50195,0.26367 0.65,-0.061 1.30933,-0.20306 1.98633,-0.41406 1.229,-0.378 2.35424,-0.923 3.36524,-1.625 0.413,-0.29 0.79015,-0.61599 1.16015,-0.95899 0.905,-0.826 1.65219,-1.74876 2.24219,-2.75976 0.201,-0.343 0.38631,-0.70227 0.57031,-1.07227 0.274,-0.555 0.52882,-1.21995 0.75782,-2.00195 0.13,-0.423 0.20132,-0.71428 0.23632,-0.86328 0.114,-0.536 0.19215,-1.02857 0.24414,-1.47657 0.045,-0.378 0.0691,-0.7745 0.0781,-1.1875 0.045,-1.88899 -0.22645,-3.71618 -0.81445,-5.49218 -0.432,-1.301 -0.9935,-2.52307 -1.6875,-3.66407 -0.255,-0.423 -0.51197,-0.85323 -0.79297,-1.24023 -0.193,-0.272 -0.36808,-0.55636 -0.58008,-0.81836 -0.756,-0.933 -1.40813,-1.67919 -1.95313,-2.24219 -1.21199,-1.258 -2.67857,-2.66256 -4.39257,-4.22656 -1.353,-1.232 -2.6976,-2.47972 -4.0586,-3.76172 -1.523,-1.426 -2.95417,-2.927 -4.32617,-4.5 -0.555,-0.642 -1.12603,-1.36451 -1.58203,-1.97851 -0.625,-0.827 -1.22255,-1.72341 -1.81055,-2.69141 -0.914,-1.521 -1.89154,-3.40158 -2.93554,-5.64258 -0.326,-0.694 -0.74858,-1.66044 -1.26758,-2.89844 -0.069,-0.158 -0.10463,-0.31737 -0.14063,-0.48437 -0.009,-0.009 -0.008,-0.01 -0.008,-0.0176 -0.019,-0.052 -0.071,-0.0717 -0.12305,-0.0527 z"
     id="path22" /><path
     style="clip-rule:evenodd;fill:#ffffff;fill-opacity:1;fill-rule:nonzero;stroke-linejoin:round;stroke-miterlimit:2"
     d="m 427.25379,269.71484 c -3.33065,0.10327 -6.67038,3.28465 -8.47657,5.60352 -2.76899,3.555 -5.27458,7.30958 -7.51757,11.26758 -3.127,5.51399 -6.14927,10.80133 -9.07227,15.86133 -2.485,4.30399 -5.10557,8.11259 -7.85156,11.43359 -3.207,3.881 -7.40126,7.3889 -12.78125,6.25391 -2.582,-0.544 -5.04115,-1.37977 -7.36914,-2.50977 -8.95999,-4.324 -17.18512,-10.24285 -25.53711,-15.21484 -7.98799,-4.758 -21.77242,-11.69667 -30.31641,-4.26368 -2.065,1.791 -0.99579,4.16999 0.7832,5.58399 2.571,2.039 5.32191,3.82347 8.25391,5.35547 6.33499,3.30799 12.05335,6.40873 17.15234,9.30273 6.234,3.548 18.97222,11.88843 16.69922,20.60742 -1.452,5.545 -5.8378,9.12371 -10.96679,11.59571 -3.905,1.88199 -7.85462,3.5285 -11.84961,4.9375 -6.424,2.27299 -13.37662,4.69367 -20.84961,7.26367 -5.38,1.849 -10.21215,3.78745 -14.49414,5.81445 -4.196,1.982 -13.66651,6.98877 -9.35352,13.13477 1.26,1.797 3.05472,2.88258 5.38672,3.26758 3.459,0.572 7.1671,0.60846 11.12109,0.10546 11.71999,-1.48299 23.78,-4.68975 35.70899,-5.84375 4.42399,-0.434 10.67572,-0.18634 14.13672,2.84766 3.99599,3.504 4.52804,9.94672 3.87304,15.01172 -0.503,3.909 -1.23893,8.03596 -2.21093,12.37695 -0.836,3.742 -1.23164,7.21407 -1.18164,10.41407 0.069,4.73199 1.97026,7.9224 5.69726,9.5664 7.34499,3.248 12.08424,-2.30065 14.74024,-8.30664 1.60999,-3.648 2.87125,-7.34017 3.78125,-11.07617 1.44199,-5.903 2.66311,-12.02887 3.6621,-18.38086 1.318,-8.32799 2.61382,-16.78977 3.88282,-25.38477 1.071,-7.23099 3.12225,-14.43919 6.15625,-21.61718 5.12899,-12.12799 11.83369,-23.91698 18.67969,-35.04297 4.85099,-7.88799 8.85205,-14.86093 11.99804,-20.91992 1.429,-2.755 2.5941,-5.67477 3.4961,-8.75977 1.11699,-3.818 1.04229,-7.86441 -3.09571,-9.81641 -0.74868,-0.35231 -1.51654,-0.49258 -2.28515,-0.46875 z"
     id="path21" /><path
     style="clip-rule:evenodd;fill:#ffffff;fill-opacity:1;fill-rule:nonzero;stroke-linejoin:round;stroke-miterlimit:2"
     d="m 374.73621,266.3457 c -7.34554,0.0147 -15.07526,1.74516 -21.90625,4.06641 -1.028,0.35 -1.03644,0.72319 -0.0234,1.11719 l 8.4668,3.29297 c 0.052,0.021 0.0948,0.0585 0.13281,0.10351 0.102,0.139 0.0795,0.33641 -0.0606,0.44141 l -12.08007,9.21093 c -0.039,0.032 -0.0691,0.0759 -0.0801,0.12891 -0.026,0.122 0.0508,0.24549 0.17382,0.27149 3.304,0.70599 6.61746,1.23017 9.93946,1.57617 0.067,0.006 0.1315,0.0314 0.1875,0.0684 0.178,0.125 0.22265,0.37164 0.0976,0.55664 l -6.02343,8.63672 c -0.013,0.017 -0.0213,0.0376 -0.0274,0.0586 -0.018,0.095 0.0388,0.18503 0.13282,0.20703 0.171,0.032 0.33986,0.0246 0.50585,-0.0254 2.446,-0.754 4.93304,-1.5777 7.45704,-2.4707 0.361,-0.129 0.56914,-0.003 0.61914,0.37695 1.067,7.73399 6.09007,15.47061 13.66406,17.72461 6.85799,2.035 12.8263,0.44446 17.9043,-4.76953 2.64899,-2.722 4.44472,-6.01505 5.38672,-9.87305 1.70699,-7.00199 0.64344,-13.61675 -3.18555,-19.84375 -3.485,-5.65899 -7.47134,-9.05686 -14.11133,-10.25586 -2.31575,-0.41825 -4.72141,-0.60451 -7.16992,-0.59961 z"
     id="path20" /><path
     style="clip-rule:evenodd;fill:#ffffff;fill-opacity:1;fill-rule:nonzero;stroke-linejoin:round;stroke-miterlimit:2"
     d="m 176.82019,224.31836 c -1.96,0.062 -3.48798,0.90239 -4.58398,2.52539 -1.977,2.928 -0.57336,7.86558 0.55664,10.89258 1.437,3.85899 3.34742,7.95125 5.73242,12.28125 8.76699,15.89698 18.54066,31.89858 25.47266,48.85156 2.89299,7.07299 4.99903,14.63621 5.95703,22.2832 1.569,12.55899 2.96636,23.13829 4.19336,31.73828 0.693,4.86 1.73223,10.01676 3.11523,15.46876 1.953,7.70499 6.16937,20.98885 17.19336,16.88085 7.42499,-2.76299 6.38773,-12.22869 5.17774,-18.55468 -0.952,-4.929 -1.67221,-9.70246 -2.15821,-14.31446 -0.299,-2.84299 -0.049,-5.6955 0.75,-8.5625 2.107,-7.54499 8.90317,-8.90131 15.78516,-8.44531 8.15499,0.538 16.11248,2.53724 24.23047,4.36524 5.43899,1.22899 10.73382,2.17575 15.88281,2.84375 4.626,0.594 14.63639,0.63196 15.02539,-6.33204 0.296,-5.36099 -8.74344,-9.83659 -12.64844,-11.55859 -6.92299,-3.073 -14.55826,-6.0721 -22.90625,-8.99609 -6.07999,-2.134 -11.69194,-4.36441 -16.83593,-6.69141 -5.584,-2.52 -10.84365,-5.20243 -13.93164,-10.60742 -1.348,-2.357 -1.8461,-4.53883 -1.4961,-6.54883 1.354,-7.74199 14.36482,-13.05978 20.88281,-15.42578 5.331,-1.929 10.47641,-3.86741 15.44141,-5.81641 1.939,-0.765 6.92943,-3.27198 3.27344,-5.58398 -7.44,-4.695 -17.68865,-2.46 -25.93164,0.375 -5.277,1.819 -11.06806,3.92984 -17.37305,6.33984 -5.71499,2.182 -12.68315,4.51266 -18.61914,4.09766 -3.744,-0.265 -7.38957,-3.56529 -9.60156,-6.36328 -2.948,-3.74 -5.7103,-7.97699 -8.2793,-12.70899 -2.982,-5.49499 -5.95021,-10.9633 -8.9082,-16.40429 -2.718,-5.003 -8.90349,-16.2223 -15.39649,-16.0293 z"
     id="path19" /><path
     style="clip-rule:evenodd;fill:#ffffff;fill-opacity:1;fill-rule:nonzero;stroke-linejoin:round;stroke-miterlimit:2"
     d="m 225.36121,222.40234 c -5.62916,-0.008 -10.90429,2.00851 -14.45703,7.40625 -2.783,4.233 -4.48071,8.68929 -5.09571,13.36329 -1.117,8.51299 2.18757,17.55777 9.47657,22.13476 5.38899,3.394 12.09202,3.38164 17.54101,0.18164 6.178,-3.634 9.63085,-10.17638 10.46485,-17.48437 0.071,-0.629 0.26221,-0.66819 0.57421,-0.11719 1.08,1.902 1.98761,3.97384 2.72461,6.21484 0.074,0.231 0.22604,0.31124 0.45703,0.24024 l 22.83008,-6.63477 c 0.022,-0.007 0.0454,-0.0163 0.0664,-0.0273 0.141,-0.082 0.19328,-0.26225 0.11328,-0.40625 -0.166,-0.283 -0.36928,-0.53677 -0.61328,-0.75977 -9.39099,-8.54999 -19.62232,-16.10569 -30.94531,-21.05469 -4.16587,-1.81868 -8.75849,-3.05027 -13.13672,-3.05664 z"
     id="path18" /><path
     style="clip-rule:evenodd;fill:#ffffff;fill-opacity:1;fill-rule:nonzero;stroke-linejoin:round;stroke-miterlimit:2"
     d="m 63.749883,201.72266 c -0.052,0.026 -0.08728,0.061 -0.113281,0.125 -0.501,1.238 -0.995329,2.39012 -1.486328,3.45312 -0.843,1.82 -1.757767,3.58683 -2.759766,5.29883 -0.551999,0.942 -1.186501,1.90738 -1.8125,2.73437 -0.368,0.493 -0.755579,1.00157 -1.142578,1.47657 -0.929999,1.134 -1.931907,2.24026 -3.003906,3.32226 -1.371999,1.388 -2.67358,2.64538 -4.017579,3.85938 -1.933998,1.749 -3.58561,3.29581 -4.974609,4.63281 -0.710999,0.685 -1.521016,1.52925 -2.416015,2.53125 -0.572,0.642 -1.142954,1.35291 -1.626954,2.00391 -0.412999,0.553 -0.827234,1.17904 -1.240234,1.87304 -1.563998,2.629 -2.242062,5.46587 -2.039062,8.50586 0.026,0.387 0.07262,0.79327 0.140624,1.19727 0.343,2.145 1.126658,4.08652 2.347657,5.85351 0.773999,1.116 1.781891,2.15355 2.83789,2.93555 1.380999,1.02 2.918049,1.71475 4.623047,2.09375 1.308999,0.289 2.707923,0.29725 4.044922,0.15625 0.993999,-0.105 1.94297,-0.35978 2.917969,-0.67578 1.783998,-0.572 3.208485,-1.58125 4.271484,-3.03125 0.467,-0.626 0.844579,-1.32936 1.142578,-2.06836 0.054,-0.113 0.131094,-0.35094 0.246094,-0.71094 0.078,-0.238 0.140172,-0.48351 0.201172,-0.72851 0.106,-0.458 0.167547,-0.7666 0.185547,-0.9336 0.052,-0.423 0.06955,-0.93148 0.06055,-1.52148 -0.017,-1.16 -0.289673,-2.30189 -0.763672,-3.33789 -0.212,-0.466 -0.519938,-0.91474 -0.835938,-1.30274 -0.368999,-0.448 -0.807172,-0.82581 -1.326171,-1.13281 -0.976,-0.579 -2.012142,-0.79081 -3.119141,-0.63281 -0.413,0.061 -0.801344,0.17456 -1.152344,0.35156 -0.807999,0.394 -1.502969,1.11652 -1.792969,1.97852 -0.228999,0.668 -0.273546,1.42237 -0.185546,2.10937 0.07,0.508 0.202672,1.05388 0.388671,1.54688 0.279,0.738 0.62311,1.45114 1.03711,2.11914 0.035,0.052 0.04262,0.11183 0.01563,0.17383 -0.007,0.009 -0.02677,0.0176 -0.0098,-0.0254 -1.553998,0.052 -3.109814,-0.13193 -4.507812,-0.71093 -1.792999,-0.739 -3.102689,-1.95244 -3.929688,-3.64844 -0.166,-0.326 -0.307875,-0.6948 -0.421875,-1.0918 -0.273,-0.93 -0.377219,-1.87089 -0.324219,-2.83789 0.026,-0.378 0.08078,-0.7807 0.175782,-1.2207 0.246999,-1.133 0.659172,-2.11086 1.326172,-3.13086 0.228999,-0.352 0.476469,-0.66627 0.730468,-0.94727 1.335999,-1.47599 3.112268,-2.43507 5.072266,-2.83007 1.652998,-0.335 3.470814,-0.30919 5.132812,0.008 0.939999,0.177 1.855079,0.3772 2.830078,0.6582 0.081,0.018 0.138829,0.001 0.173829,-0.0508 0.01,-0.019 0.01876,-0.0367 0.0098,-0.0527 -0.211,-0.801 -0.367844,-1.61908 -0.464844,-2.45508 -0.105999,-0.959 -0.132609,-1.94928 0.02539,-2.86328 0.071,-0.439 0.115516,-0.87155 0.228516,-1.31055 0.14,-0.536 0.282828,-0.99305 0.423828,-1.37305 0.384999,-1.018 0.956875,-2.09922 1.546875,-3.07422 0.455999,-0.75599 0.911907,-1.50357 1.378906,-2.26757 0.615,-1.02 1.179376,-2.04821 1.609375,-3.15821 0.113,-0.288 0.174032,-0.59714 0.332031,-0.86914 0,0 7.66e-4,-0.008 0.0098,-0.008 0.017,-0.017 0.0455,-0.0112 0.0625,0.008 0.08,0.106 0.09486,0.32622 0.130859,0.44922 0.026,0.113 0.06128,0.22852 0.113282,0.35352 0.308999,0.772 0.635516,1.4575 0.978515,2.0625 0.158,0.283 0.323422,0.57228 0.482422,0.86328 0.113,0.21 0.396172,0.6587 0.826172,1.3457 0.361,0.569 0.747579,1.21125 1.142578,1.90625 0.378,0.659 0.709766,1.33506 1.009766,2.03906 0.184,0.413 0.317219,0.85321 0.449218,1.28321 0.246,0.791 0.394688,1.68903 0.429688,2.70703 0.062,1.504 -0.104,2.95333 -0.5,4.36133 -0.01,0.016 -0.01,0.0337 0,0.0527 0.009,0.052 0.07005,0.0854 0.123047,0.0684 0.974999,-0.282 1.95936,-0.50859 2.943359,-0.68359 1.010998,-0.186 2.057439,-0.26647 3.148438,-0.23047 2.213998,0.063 4.376501,0.74711 6.0625,2.16211 1.380998,1.161 2.331797,2.60222 2.841797,4.32422 0.192999,0.64199 0.28764,1.29489 0.30664,1.96289 0.009,0.342 -7.65e-4,0.68397 -0.0098,1.04297 -0.026,0.68699 -0.164923,1.38198 -0.419922,2.08398 -0.477,1.294 -1.231579,2.36598 -2.267578,3.20898 -0.915999,0.747 -2.13033,1.31727 -3.236328,1.57227 -1.063999,0.255 -2.126377,0.31664 -3.234376,0.30664 -0.017,0 -0.03573,-0.007 -0.05273,-0.0156 -0.045,-0.026 -0.05334,-0.08 -0.02734,-0.12304 0.652,-0.985 1.10786,-2.01375 1.38086,-3.09375 0.14,-0.571 0.185625,-1.13427 0.140625,-1.69727 -0.095,-1.185 -0.614642,-2.11834 -1.556641,-2.77734 -0.491999,-0.342 -1.124891,-0.554 -1.71289,-0.625 -1.291998,-0.15 -2.44347,0.17575 -3.480469,0.96875 -0.685,0.527 -1.205219,1.15162 -1.574219,1.89062 -0.432,0.86 -0.701594,1.75669 -0.808594,2.67969 -0.068,0.631 -0.07934,1.33461 -0.02734,2.09961 0.036,0.503 0.152438,1.04702 0.273438,1.54102 0.097,0.42 0.263188,0.89368 0.492188,1.42968 0.422999,0.985 1.001235,1.86368 1.740234,2.63868 1.036999,1.08899 2.346829,1.85376 3.798828,2.25976 0.456,0.13 0.895094,0.28077 1.371094,0.38477 1.511998,0.333 3.004048,0.42267 4.498047,0.26367 0.649999,-0.061 1.312282,-0.20211 1.988281,-0.41211 1.229999,-0.378 2.354235,-0.923 3.365234,-1.625 0.415,-0.292 0.79311,-0.61594 1.16211,-0.96094 0.903999,-0.824 1.652235,-1.74681 2.240234,-2.75781 0.203,-0.343 0.386313,-0.70427 0.570312,-1.07227 0.272,-0.555 0.52686,-1.22286 0.75586,-2.00586 0.132,-0.421 0.202281,-0.71037 0.238281,-0.85937 0.115,-0.536 0.192097,-1.03052 0.246097,-1.47852 0.043,-0.378 0.06912,-0.77254 0.07812,-1.18554 0.045,-1.891 -0.228405,-3.71615 -0.816404,-5.49414 -0.43,-1.3 -0.991548,-2.52307 -1.685547,-3.66407 -0.257,-0.422 -0.509969,-0.85323 -0.792969,-1.24023 -0.192,-0.274 -0.370078,-0.55536 -0.580078,-0.81836 -0.755999,-0.932 -1.407126,-1.67823 -1.953125,-2.24023 -1.211999,-1.258 -2.67958,-2.66352 -4.392578,-4.22852 -1.354999,-1.231 -2.699502,-2.47777 -4.0625,-3.75977 -1.520999,-1.42599 -2.954221,-2.92895 -4.324219,-4.50195 -0.554999,-0.643 -1.124032,-1.36251 -1.582031,-1.97851 -0.624,-0.827 -1.220548,-1.72146 -1.810547,-2.68946 -0.923999,-1.521 -1.899314,-3.40158 -2.945313,-5.64258 -0.323999,-0.69399 -0.746672,-1.66239 -1.263671,-2.90039 -0.071,-0.159 -0.104626,-0.31737 -0.140626,-0.48437 -0.009,-0.01 -0.0098,-0.009 -0.0098,-0.0176 -0.017,-0.052 -0.06905,-0.0697 -0.123047,-0.0527 z"
     id="path17" /><path
     style="clip-rule:evenodd;fill:#ffffff;fill-opacity:1;fill-rule:nonzero;stroke-linejoin:round;stroke-miterlimit:2"
     d="m 142.84949,155.09375 c -0.054,0.026 -0.0873,0.06 -0.11328,0.12305 -0.503,1.238 -0.99528,2.39012 -1.48828,3.45312 -0.844,1.82 -1.75682,3.58678 -2.75782,5.30078 -0.553,0.94 -1.18754,1.91738 -1.81054,2.73438 -0.369,0.493 -0.75753,1.00061 -1.14453,1.47461 -0.931,1.134 -1.93286,2.24222 -3.00586,3.32422 -1.37,1.38899 -2.67163,2.64537 -4.01563,3.85937 -1.936,1.75 -3.58756,3.29682 -4.97656,4.63281 -0.713,0.685 -1.51997,1.5273 -2.41797,2.5293 -0.571,0.642 -1.141,1.35386 -1.625,2.00586 -0.413,0.553 -0.82623,1.17709 -1.24023,1.87109 -1.565,2.629 -2.24011,5.46877 -2.03711,8.50977 0.026,0.385 0.0696,0.78936 0.14062,1.19336 0.342,2.145 1.12271,4.08852 2.34571,5.85351 0.77399,1.117 1.78384,2.15555 2.83984,2.93555 1.379,1.02 2.91805,1.71475 4.62305,2.09375 1.30799,0.289 2.70597,0.29725 4.04296,0.15625 0.992,-0.104 1.94193,-0.35878 2.91993,-0.67578 1.78299,-0.571 3.20653,-1.58125 4.26953,-3.03125 0.465,-0.626 0.84458,-1.32741 1.14258,-2.06641 0.054,-0.114 0.13204,-0.35093 0.24804,-0.71093 0.078,-0.238 0.13917,-0.48547 0.20117,-0.73047 0.106,-0.458 0.16855,-0.76364 0.18555,-0.93164 0.052,-0.422 0.0705,-0.93149 0.0606,-1.52149 -0.016,-1.159 -0.28867,-2.30284 -0.76367,-3.33984 -0.212,-0.466 -0.51894,-0.91378 -0.83594,-1.30078 -0.368,-0.449 -0.80817,-0.82582 -1.32617,-1.13282 -0.975,-0.57899 -2.0151,-0.79081 -3.1211,-0.63281 -0.413,0.061 -0.80034,0.17457 -1.15234,0.35157 -0.808,0.39599 -1.50397,1.11656 -1.79297,1.97656 -0.229,0.668 -0.27259,1.42433 -0.18359,2.11133 0.069,0.508 0.20076,1.05287 0.38476,1.54687 0.281,0.739 0.62611,1.44919 1.03711,2.11719 0.036,0.052 0.0455,0.11478 0.0195,0.17578 -0.01,0.009 -0.0175,0.0196 -0.0195,-0.0254 -1.554,0.052 -3.10981,-0.13194 -4.50781,-0.71094 -1.793,-0.739 -3.10274,-1.95439 -3.92774,-3.65039 -0.16799,-0.325 -0.30882,-0.69289 -0.42382,-1.08789 -0.272,-0.932 -0.37622,-1.87184 -0.32422,-2.83984 0.026,-0.378 0.0808,-0.78366 0.17578,-1.22266 0.247,-1.134 0.65817,-2.10791 1.32617,-3.12891 0.229,-0.351 0.47647,-0.66822 0.73047,-0.94921 1.336,-1.476 3.11227,-2.43413 5.07227,-2.82813 1.65299,-0.335 3.47086,-0.31014 5.13085,0.006 0.942,0.177 1.85604,0.37916 2.83204,0.66016 0.078,0.019 0.13878,-7.4e-4 0.17578,-0.0527 0.008,-0.019 0.0168,-0.0357 0.008,-0.0527 -0.211,-0.801 -0.36784,-1.61713 -0.46484,-2.45313 -0.106,-0.956 -0.13261,-1.95123 0.0254,-2.86523 0.071,-0.439 0.11551,-0.86955 0.22851,-1.31055 0.14,-0.536 0.28288,-0.99114 0.42188,-1.36914 0.387,-1.02 0.95883,-2.10313 1.54883,-3.07813 0.456,-0.75599 0.9119,-1.50262 1.3789,-2.26562 0.616,-1.02 1.17938,-2.0492 1.60938,-3.1582 0.113,-0.289 0.17403,-0.59514 0.33203,-0.86914 0,0 7.6e-4,-0.01 0.01,-0.01 0.019,-0.017 0.0455,-0.007 0.0625,0.01 0.08,0.106 0.0949,0.32622 0.13086,0.44922 0.026,0.11299 0.0613,0.22856 0.11328,0.35156 0.309,0.772 0.63352,1.4594 0.97852,2.0664 0.158,0.281 0.32342,0.56938 0.48242,0.85938 0.115,0.21 0.39617,0.6607 0.82617,1.3457 0.361,0.569 0.74658,1.21225 1.14258,1.90625 0.378,0.661 0.70977,1.33702 1.00977,2.04102 0.184,0.413 0.31622,0.8532 0.44922,1.2832 0.245,0.791 0.39564,1.68708 0.43164,2.70508 0.061,1.504 -0.10596,2.95333 -0.50196,4.36133 -0.01,0.017 -0.01,0.0337 0,0.0527 0.009,0.052 0.0711,0.0863 0.12305,0.0703 0.975,-0.281 1.96031,-0.50859 2.94531,-0.68359 1.01,-0.187 2.05549,-0.26642 3.14649,-0.23242 2.215,0.063 4.3765,0.74906 6.0625,2.16406 1.381,1.161 2.33179,2.60222 2.84179,4.32422 0.191,0.642 0.28965,1.29294 0.30665,1.96094 0.009,0.343 0.001,0.68587 -0.008,1.04687 -0.026,0.685 -0.16683,1.37908 -0.42383,2.08008 -0.473,1.294 -1.23057,2.36694 -2.26757,3.21094 -0.914,0.746 -2.12638,1.31726 -3.23438,1.57226 -1.064,0.256 -2.12637,0.3156 -3.23437,0.3086 -0.017,0 -0.0357,-0.009 -0.0527,-0.0176 -0.045,-0.026 -0.0534,-0.08 -0.0254,-0.12305 0.65,-0.985 1.10591,-2.0157 1.37891,-3.0957 0.14,-0.571 0.18562,-1.13331 0.14062,-1.69531 -0.097,-1.186 -0.61469,-2.1203 -1.55469,-2.7793 -0.49399,-0.342 -1.12683,-0.55305 -1.71484,-0.62305 -1.292,-0.149 -2.44347,0.17575 -3.48047,0.96875 -0.685,0.526 -1.20326,1.14968 -1.57226,1.88867 -0.432,0.862 -0.70355,1.75765 -0.81055,2.68165 -0.068,0.63199 -0.0793,1.33261 -0.0273,2.0996 0.036,0.501 0.15239,1.04507 0.27539,1.53907 0.095,0.42 0.26123,0.89564 0.49023,1.43164 0.423,0.985 1.00319,1.86272 1.74219,2.63672 1.037,1.091 2.34687,1.85376 3.79687,2.25976 0.456,0.13 0.89514,0.28272 1.36914,0.38672 1.514,0.335 3.00796,0.42267 4.50196,0.26367 0.65,-0.061 1.31033,-0.20306 1.98633,-0.41406 1.22999,-0.378 2.35618,-0.923 3.36718,-1.625 0.413,-0.29 0.78916,-0.61598 1.16016,-0.95898 0.905,-0.826 1.65223,-1.74877 2.24023,-2.75977 0.203,-0.343 0.38727,-0.70227 0.57227,-1.07227 0.271,-0.555 0.52686,-1.21995 0.75586,-2.00195 0.132,-0.423 0.20228,-0.71428 0.23828,-0.86328 0.113,-0.536 0.19214,-1.02856 0.24414,-1.47656 0.043,-0.378 0.0691,-0.7745 0.0781,-1.1875 0.045,-1.889 -0.22841,-3.71619 -0.81641,-5.49219 -0.43,-1.301 -0.99155,-2.52502 -1.68555,-3.66602 -0.257,-0.423 -0.50997,-0.85128 -0.79297,-1.23828 -0.192,-0.272 -0.37007,-0.55636 -0.58007,-0.81836 -0.756,-0.933 -1.40713,-1.67918 -1.95313,-2.24218 -1.212,-1.258 -2.67858,-2.66257 -4.39258,-4.22657 -1.353,-1.232 -2.6995,-2.47972 -4.0625,-3.76171 -1.521,-1.426 -2.95026,-2.92701 -4.32226,-4.5 -0.555,-0.642 -1.12403,-1.36452 -1.58203,-1.97852 -0.624,-0.827 -1.22155,-1.72341 -1.81055,-2.69141 -0.915,-1.521 -1.8915,-3.40158 -2.9375,-5.64257 -0.324,-0.694 -0.74563,-1.6624 -1.26563,-2.9004 -0.069,-0.158 -0.10367,-0.31542 -0.13867,-0.48242 -0.01,-0.009 -0.01,-0.01 -0.01,-0.0176 -0.018,-0.052 -0.0701,-0.0717 -0.12305,-0.0527 z"
     id="path16" /><path
     style="clip-rule:evenodd;fill:#ffffff;fill-opacity:1;fill-rule:nonzero;stroke-linejoin:round;stroke-miterlimit:2"
     d="m 221.12097,121.7793 c -0.052,0.028 -0.0873,0.061 -0.11328,0.125 -0.5,1.238 -0.99337,2.39012 -1.48437,3.45312 -0.845,1.82 -1.75972,3.58678 -2.76172,5.30078 -0.553,0.94 -1.18455,1.91543 -1.81055,2.73242 -0.369,0.493 -0.75558,1.00157 -1.14258,1.47657 -0.931,1.134 -1.9339,2.24222 -3.0039,3.32422 -1.372,1.38899 -2.67358,2.64342 -4.01758,3.85742 -1.934,1.75 -3.58756,3.29581 -4.97656,4.63281 -0.711,0.685 -1.52097,1.52925 -2.41797,2.53125 -0.57,0.642 -1.141,1.35191 -1.625,2.00391 -0.414,0.552 -0.82724,1.17904 -1.24024,1.87304 -1.56399,2.629 -2.24011,5.46582 -2.03711,8.50782 0.026,0.385 0.0697,0.79131 0.13868,1.19531 0.343,2.145 1.12565,4.08852 2.34765,5.85351 0.774,1.117 1.78289,2.15555 2.83789,2.93555 1.382,1.02 2.92,1.71475 4.625,2.09375 1.309,0.289 2.70697,0.29725 4.04297,0.15625 0.993,-0.105 1.94297,-0.35978 2.91797,-0.67578 1.784,-0.571 3.20753,-1.58125 4.26953,-3.03125 0.468,-0.626 0.84753,-1.32936 1.14453,-2.06836 0.054,-0.113 0.13305,-0.35094 0.24805,-0.71094 0.078,-0.238 0.14017,-0.48351 0.20117,-0.72851 0.106,-0.458 0.16755,-0.7656 0.18555,-0.9336 0.052,-0.423 0.0696,-0.92953 0.0606,-1.51953 -0.017,-1.16 -0.28968,-2.30284 -0.76368,-3.33984 -0.213,-0.466 -0.51993,-0.91474 -0.83593,-1.30274 -0.369,-0.448 -0.80813,-0.82581 -1.32813,-1.13281 -0.975,-0.579 -2.01414,-0.79081 -3.11914,-0.63281 -0.414,0.061 -0.80034,0.17652 -1.15234,0.35352 -0.808,0.39599 -1.50297,1.11656 -1.79297,1.97656 -0.229,0.668 -0.27255,1.42433 -0.18555,2.11133 0.071,0.508 0.20267,1.05192 0.38867,1.54492 0.279,0.739 0.62311,1.45114 1.03711,2.11914 0.035,0.052 0.0416,0.11378 0.0156,0.17578 -0.007,0.018 -0.016,0.0247 0,-0.0273 -1.556,0.052 -3.10982,-0.13194 -4.50781,-0.71094 -1.795,-0.739 -3.10269,-1.95244 -3.92969,-3.64844 -0.167,-0.326 -0.30688,-0.6948 -0.42188,-1.0918 -0.272,-0.93 -0.37817,-1.86989 -0.32617,-2.83789 0.028,-0.378 0.0807,-0.7807 0.17774,-1.2207 0.24499,-1.133 0.65817,-2.10891 1.32617,-3.12891 0.229,-0.352 0.47547,-0.66822 0.73047,-0.94921 1.33599,-1.476 3.11226,-2.43508 5.07226,-2.83008 1.651,-0.335 3.46886,-0.30919 5.13086,0.008 0.94,0.177 1.85603,0.3772 2.83203,0.6582 0.078,0.018 0.13978,0.001 0.17578,-0.0508 0.009,-0.019 0.0168,-0.0367 0.008,-0.0527 -0.212,-0.801 -0.37085,-1.61713 -0.46485,-2.45313 -0.107,-0.957 -0.13165,-1.95123 0.0273,-2.86523 0.068,-0.439 0.11256,-0.86955 0.22656,-1.31055 0.141,-0.536 0.28287,-0.99114 0.42187,-1.36914 0.387,-1.02 0.95888,-2.10313 1.54688,-3.07813 0.458,-0.75599 0.91386,-1.50357 1.38086,-2.26757 0.615,-1.02 1.17737,-2.04625 1.60937,-3.15625 0.113,-0.288 0.17403,-0.59514 0.33203,-0.86914 0,0 7.7e-4,-0.01 0.01,-0.01 0.017,-0.017 0.0455,-0.007 0.0625,0.01 0.078,0.106 0.0949,0.32622 0.13086,0.44922 0.026,0.11299 0.0613,0.22656 0.11328,0.35156 0.307,0.772 0.63356,1.45945 0.97656,2.06445 0.158,0.283 0.32638,0.57033 0.48438,0.86133 0.113,0.21 0.39417,0.6587 0.82617,1.3457 0.36,0.569 0.74662,1.21125 1.14062,1.90625 0.38,0.661 0.71177,1.33507 1.00977,2.03906 0.186,0.413 0.31817,0.85321 0.45117,1.28321 0.236,0.791 0.38492,1.68903 0.41992,2.70703 0.062,1.504 -0.104,2.95333 -0.5,4.36133 -0.01,0.016 -0.01,0.0337 0,0.0527 0.009,0.052 0.0711,0.0873 0.12305,0.0703 0.976,-0.281 1.96131,-0.51054 2.94531,-0.68554 1.011,-0.186 2.05549,-0.26447 3.14649,-0.23047 2.213,0.063 4.37745,0.74906 6.06445,2.16406 1.381,1.161 2.32884,2.60027 2.83984,4.32227 0.193,0.642 0.28765,1.29489 0.30664,1.96289 0.009,0.342 2.4e-4,0.68397 -0.01,1.04297 -0.026,0.68699 -0.16488,1.38198 -0.42188,2.08398 -0.475,1.294 -1.22762,2.36599 -2.26562,3.20898 -0.914,0.747 -2.12838,1.31727 -3.23438,1.57227 -1.06499,0.255 -2.12932,0.31855 -3.23632,0.31055 -0.017,0 -0.0348,-0.0105 -0.0508,-0.0195 -0.045,-0.026 -0.0533,-0.08 -0.0274,-0.12305 0.651,-0.985 1.10686,-2.01375 1.38086,-3.09375 0.14,-0.571 0.18267,-1.13427 0.13867,-1.69727 -0.097,-1.185 -0.61464,-2.11834 -1.55664,-2.77734 -0.5,-0.342 -1.12294,-0.55305 -1.71094,-0.62305 -1.29199,-0.149 -2.44542,0.1738 -3.48242,0.9668 -0.685,0.527 -1.20326,1.15163 -1.57226,1.89062 -0.432,0.862 -0.70455,1.75669 -0.81055,2.67969 -0.069,0.633 -0.0774,1.33457 -0.0254,2.10156 0.036,0.501 0.15048,1.04507 0.27148,1.53907 0.097,0.42 0.26514,0.89368 0.49414,1.42968 0.423,0.985 1.00124,1.86368 1.74024,2.63868 1.037,1.091 2.34488,1.85376 3.79687,2.25976 0.456,0.13 0.8951,0.28077 1.3711,0.38477 1.512,0.335 3.005,0.42267 4.5,0.26367 0.65,-0.061 1.31133,-0.20211 1.98633,-0.41211 1.23099,-0.378 2.35423,-0.923 3.36523,-1.625 0.415,-0.29 0.79111,-0.61598 1.16211,-0.95898 0.904,-0.826 1.65419,-1.74877 2.24219,-2.75977 0.203,-0.343 0.38631,-0.70427 0.57031,-1.07227 0.272,-0.555 0.52686,-1.22286 0.75586,-2.00586 0.132,-0.42099 0.20133,-0.71037 0.23633,-0.85937 0.116,-0.536 0.19404,-1.03052 0.24804,-1.47852 0.043,-0.378 0.0691,-0.77254 0.0781,-1.18554 0.045,-1.891 -0.23036,-3.71619 -0.81836,-5.49219 -0.43,-1.301 -0.99155,-2.52402 -1.68555,-3.66602 -0.257,-0.422 -0.51097,-0.85323 -0.79297,-1.24023 -0.192,-0.272 -0.36812,-0.55341 -0.57812,-0.81641 -0.756,-0.932 -1.40813,-1.68018 -1.95313,-2.24218 -1.212,-1.258 -2.68058,-2.66357 -4.39257,-4.22657 -1.355,-1.232 -2.69951,-2.47972 -4.0625,-3.76171 -1.521,-1.426 -2.95422,-2.92896 -4.32422,-4.50196 -0.555,-0.643 -1.12503,-1.36256 -1.58203,-1.97656 -0.624,-0.827 -1.2225,-1.72341 -1.8125,-2.69141 -0.923,-1.521 -1.89832,-3.40158 -2.94532,-5.64257 -0.323,-0.694 -0.74472,-1.6624 -1.26172,-2.9004 -0.071,-0.158 -0.10757,-0.31737 -0.14257,-0.48437 -0.009,-0.01 -0.01,-0.009 -0.01,-0.0176 -0.017,-0.052 -0.0691,-0.0697 -0.12305,-0.0527 z"
     id="path15" /><path
     style="clip-rule:evenodd;fill:#ffffff;fill-opacity:1;fill-rule:nonzero;stroke-linejoin:round;stroke-miterlimit:2"
     d="m 300.22058,95.972656 c -0.054,0.026 -0.0873,0.06105 -0.11328,0.123047 -0.503,1.238999 -0.99333,2.393079 -1.48633,3.455078 -0.844,1.820989 -1.75876,3.584829 -2.75976,5.298829 -0.553,0.942 -1.18755,1.91733 -1.81055,2.73633 -0.369,0.491 -0.75558,0.99961 -1.14258,1.47461 -0.931,1.133 -1.93481,2.24222 -3.00781,3.32422 -1.37,1.38799 -2.66967,2.64442 -4.01367,3.85742 -1.936,1.75 -3.58757,3.29781 -4.97656,4.63281 -0.713,0.687 -1.51997,1.53025 -2.41797,2.53125 -0.571,0.643 -1.141,1.35291 -1.625,2.00391 -0.413,0.553 -0.82624,1.17709 -1.24024,1.87109 -1.565,2.63 -2.24206,5.46777 -2.03906,8.50977 0.026,0.387 0.0696,0.79331 0.14063,1.19531 0.342,2.146 1.12465,4.08752 2.34765,5.85351 0.774,1.117 1.78189,2.15355 2.83789,2.93555 1.379,1.02 2.92,1.7138 4.625,2.0918 1.308,0.291 2.70597,0.3002 4.04297,0.1582 0.992,-0.106 1.93997,-0.35978 2.91797,-0.67578 1.783,-0.572 3.20849,-1.58125 4.27148,-3.03125 0.465,-0.625 0.84458,-1.32941 1.14258,-2.06641 0.054,-0.115 0.13205,-0.35193 0.24805,-0.71093 0.078,-0.238 0.13917,-0.48447 0.20117,-0.73047 0.106,-0.458 0.1666,-0.76464 0.18359,-0.93164 0.052,-0.423 0.0706,-0.93149 0.0606,-1.52149 -0.016,-1.16 -0.28667,-2.30284 -0.76367,-3.33984 -0.21,-0.465 -0.51698,-0.91578 -0.83398,-1.30078 -0.368,-0.448 -0.81013,-0.82582 -1.32813,-1.13282 -0.975,-0.581 -2.01314,-0.79181 -3.11914,-0.63281 -0.413,0.061 -0.80034,0.17361 -1.15234,0.34961 -0.808,0.395 -1.50397,1.11652 -1.79297,1.97852 -0.229,0.669 -0.2726,1.42237 -0.1836,2.10937 0.069,0.508 0.20077,1.05388 0.38477,1.54688 0.281,0.737 0.62611,1.44819 1.03711,2.11718 0.036,0.054 0.0436,0.11479 0.0176,0.17579 0,0.008 -0.0188,0.0176 -0.01,-0.0254 -1.556,0.053 -3.10981,-0.13189 -4.50781,-0.71289 -1.794,-0.73699 -3.10269,-1.95048 -3.92969,-3.64648 -0.167,-0.326 -0.30687,-0.69384 -0.42187,-1.08984 -0.272,-0.931 -0.37822,-1.87385 -0.32422,-2.83985 0.026,-0.378 0.0788,-0.78165 0.17578,-1.22265 0.246,-1.132 0.65817,-2.10896 1.32617,-3.12696 0.229,-0.352 0.47547,-0.66822 0.73047,-0.94922 1.336,-1.47699 3.11131,-2.43703 5.07031,-2.83203 1.654,-0.333 3.47377,-0.30723 5.13477,0.01 0.941,0.175 1.85308,0.37816 2.83008,0.66015 0.078,0.018 0.13978,2.7e-4 0.17578,-0.0527 0.009,-0.018 0.0188,-0.0357 0.01,-0.0547 -0.21,-0.798 -0.36975,-1.61517 -0.46875,-2.45117 -0.104,-0.959 -0.12865,-1.95123 0.0273,-2.86523 0.073,-0.439 0.11447,-0.87155 0.23046,-1.31055 0.139,-0.537 0.27893,-0.99209 0.41993,-1.37109 0.388,-1.019 0.95887,-2.10018 1.54687,-3.07618 0.458,-0.75499 0.91486,-1.50453 1.38086,-2.26953 0.616,-1.018 1.17738,-2.04629 1.60938,-3.15429 0.113,-0.288 0.17403,-0.59714 0.33203,-0.86914 0,0 7.6e-4,-0.01 0.01,-0.01 0.017,-0.016 0.0435,-0.009 0.0625,0.01 0.078,0.104 0.0959,0.32526 0.13086,0.44726 0.026,0.114 0.0612,0.22956 0.11524,0.35156 0.309,0.775 0.63161,1.46141 0.97461,2.06641 0.158,0.281 0.32637,0.57133 0.48437,0.86133 0.114,0.211 0.39617,0.65875 0.82617,1.34375 0.362,0.572 0.74658,1.2142 1.14258,1.9082 0.378,0.659 0.71172,1.33706 1.01172,2.03906 0.184,0.415 0.31327,0.85121 0.44727,1.28321 0.246,0.791 0.39564,1.68903 0.43164,2.70703 0.061,1.504 -0.10496,2.95437 -0.50196,4.35937 -0.009,0.019 -0.009,0.0367 0,0.0547 0.009,0.053 0.0711,0.0873 0.12305,0.0703 0.973,-0.283 1.96031,-0.5105 2.94531,-0.6875 1.011,-0.184 2.05744,-0.26351 3.14844,-0.22851 2.213,0.064 4.37455,0.74811 6.06055,2.16211 1.382,1.16 2.32979,2.60417 2.84179,4.32617 0.192,0.642 0.28864,1.28998 0.30664,1.95898 0.01,0.342 10e-4,0.68588 -0.008,1.04688 -0.026,0.685 -0.16883,1.37803 -0.42383,2.08203 -0.474,1.292 -1.23058,2.36398 -2.26757,3.20898 -0.914,0.747 -2.12738,1.31922 -3.23438,1.57422 -1.063,0.255 -2.12638,0.31564 -3.23437,0.30664 -0.018,0 -0.0358,-0.01 -0.0508,-0.0176 -0.044,-0.026 -0.0553,-0.079 -0.0293,-0.12304 0.652,-0.983 1.10886,-2.01275 1.38086,-3.09375 0.141,-0.57 0.18562,-1.13527 0.14062,-1.69727 -0.097,-1.188 -0.61664,-2.11834 -1.55664,-2.77734 -0.491,-0.343 -1.12389,-0.55205 -1.71289,-0.62305 -1.293,-0.151 -2.44442,0.17385 -3.48242,0.96485 -0.685,0.527 -1.20131,1.15362 -1.57031,1.89062 -0.431,0.862 -0.70455,1.75864 -0.81055,2.68164 -0.071,0.631 -0.0793,1.33656 -0.0273,2.10156 0.037,0.501 0.15243,1.04416 0.27343,1.53516 0.097,0.423 0.26514,0.89955 0.49414,1.43555 0.42,0.985 1.00129,1.86172 1.73829,2.63672 1.03899,1.08799 2.34687,1.85481 3.79687,2.25781 0.458,0.133 0.898,0.28367 1.375,0.38867 1.509,0.333 3.0031,0.42167 4.49609,0.26367 0.651,-0.061 1.31229,-0.20406 1.98828,-0.41406 1.23,-0.38 2.35424,-0.92395 3.36524,-1.62695 0.413,-0.291 0.79211,-0.61599 1.16211,-0.95899 0.905,-0.824 1.65023,-1.74681 2.24023,-2.75781 0.201,-0.344 0.38832,-0.70327 0.57032,-1.07227 0.274,-0.555 0.52681,-1.22186 0.75781,-2.00586 0.132,-0.42 0.20133,-0.71132 0.23633,-0.86132 0.115,-0.537 0.19409,-1.02757 0.24609,-1.47657 0.044,-0.378 0.0701,-0.77254 0.0801,-1.18554 0.044,-1.892 -0.22841,-3.71715 -0.81641,-5.49414 -0.432,-1.3 -0.9935,-2.52302 -1.6875,-3.66602 -0.257,-0.42 -0.51197,-0.85228 -0.79297,-1.23828 -0.194,-0.273 -0.37003,-0.55341 -0.58203,-0.81641 -0.754,-0.932 -1.40517,-1.68018 -1.95117,-2.24218 -1.211,-1.258 -2.67953,-2.66352 -4.39453,-4.22852 -1.353,-1.231 -2.69655,-2.47772 -4.06055,-3.76172 -1.519,-1.424 -2.95227,-2.927 -4.32226,-4.5 -0.554,-0.642 -1.12404,-1.36251 -1.58203,-1.97851 -0.624,-0.827 -1.22451,-1.72146 -1.8125,-2.68946 -0.923,-1.521 -1.89737,-3.40158 -2.94336,-5.642576 -0.326,-0.694999 -0.74758,-1.661391 -1.26758,-2.90039 -0.071,-0.157 -0.10367,-0.316375 -0.13867,-0.484375 -0.01,-0.009 -0.01,-0.0086 -0.01,-0.01758 -0.018,-0.052 -0.0701,-0.06973 -0.12305,-0.05273 z"
     id="path14" /><path
     style="clip-rule:evenodd;fill:#ffffff;fill-opacity:1;fill-rule:nonzero;stroke-linejoin:round;stroke-miterlimit:2"
     d="m 384.06238,76.335938 c -0.0219,0.0086 -0.0393,0.02673 -0.0488,0.05273 0,0.009 -8.1e-4,0.0076 -0.008,0.01758 -0.037,0.167 -0.0716,0.326375 -0.14258,0.484375 -0.519,1.237999 -0.93962,2.206391 -1.26562,2.900391 -1.044,2.240997 -2.02036,4.121579 -2.94336,5.642578 -0.589,0.967999 -1.1885,1.864407 -1.8125,2.691406 -0.456,0.613999 -1.02708,1.333563 -1.58008,1.976562 -1.372,1.572999 -2.80522,3.075955 -4.32422,4.501954 -1.365,1.281998 -2.7095,2.529724 -4.0625,3.761718 -1.714,1.562999 -3.18253,2.968568 -4.39453,4.226568 -0.545,0.562 -1.19517,1.30823 -1.95117,2.24023 -0.212,0.263 -0.38608,0.54636 -0.58008,0.81836 -0.281,0.387 -0.53597,0.81824 -0.79297,1.24023 -0.694,1.142 -1.25355,2.36502 -1.68555,3.66602 -0.588,1.776 -0.86336,3.60119 -0.81836,5.49219 0.009,0.413 0.0351,0.80755 0.0801,1.18555 0.052,0.44799 0.1311,0.94251 0.2461,1.47851 0.036,0.149 0.10432,0.43838 0.23632,0.85938 0.231,0.78299 0.48482,1.45086 0.75782,2.00585 0.183,0.368 0.36736,0.72927 0.56836,1.07227 0.59,1.011 1.33818,1.93377 2.24218,2.75977 0.371,0.343 0.74911,0.66898 1.16211,0.95898 1.011,0.702 2.13524,1.247 3.36524,1.625 0.676,0.21 1.33628,0.35111 1.98828,0.41211 1.492,0.159 2.98609,0.0713 4.49609,-0.26367 0.476,-0.104 0.917,-0.25477 1.375,-0.38477 1.45,-0.406 2.75788,-1.16876 3.79688,-2.25976 0.737,-0.775 1.31728,-1.65368 1.73828,-2.63867 0.229,-0.536 0.39714,-1.00969 0.49414,-1.42969 0.121,-0.494 0.23544,-1.03807 0.27344,-1.53907 0.052,-0.76699 0.0427,-1.46856 -0.0273,-2.10156 -0.106,-0.923 -0.37854,-1.81769 -0.81054,-2.67968 -0.369,-0.739 -0.88532,-1.36363 -1.57032,-1.89063 -1.039,-0.793 -2.19037,-1.1158 -3.48437,-0.9668 -0.588,0.07 -1.21189,0.28105 -1.71289,0.62305 -0.94,0.659 -1.45769,1.59234 -1.55469,2.77734 -0.044,0.563 -0.001,1.12627 0.14063,1.69727 0.27199,1.08 0.7279,2.10875 1.3789,3.09375 0.026,0.043 0.0197,0.097 -0.0273,0.12305 -0.015,0.009 -0.0337,0.0176 -0.0527,0.0176 -1.108,0.008 -2.16942,-0.0536 -3.23242,-0.30859 -1.108,-0.255 -2.32133,-0.82527 -3.23633,-1.57227 -1.035,-0.84299 -1.79062,-1.91498 -2.26562,-3.20898 -0.255,-0.702 -0.39588,-1.39698 -0.42188,-2.08398 -0.01,-0.359 -0.0207,-0.70097 -0.0117,-1.04297 0.019,-0.668 0.1176,-1.32089 0.3086,-1.96289 0.512,-1.722 1.45884,-3.16322 2.83984,-4.32422 1.687,-1.415 3.8495,-2.09911 6.0625,-2.16211 1.091,-0.034 2.13744,0.0445 3.14844,0.23047 0.984,0.175 1.96931,0.40259 2.94531,0.68359 0.052,0.017 0.11405,-0.0164 0.12305,-0.0684 0.01,-0.019 0.01,-0.0367 0,-0.0527 -0.396,-1.408 -0.562,-2.85733 -0.5,-4.36133 0.035,-1.018006 0.18369,-1.916039 0.42969,-2.707034 0.134,-0.429999 0.26326,-0.870203 0.44726,-1.283203 0.3,-0.703999 0.63372,-1.378063 1.01172,-2.039063 0.395,-0.694999 0.78158,-1.33725 1.14258,-1.90625 0.43,-0.686999 0.71317,-1.135703 0.82617,-1.345703 0.159,-0.290999 0.32638,-0.580281 0.48438,-0.863281 0.343,-0.604999 0.66561,-1.290501 0.97461,-2.0625 0.054,-0.125 0.0872,-0.240516 0.11523,-0.353516 0.034,-0.122999 0.0519,-0.343218 0.13086,-0.449218 0.018,-0.017 0.0455,-0.02481 0.0625,-0.0078 0.009,0 0.008,0.0078 0.008,0.0078 0.159,0.273999 0.21999,0.581141 0.33399,0.86914 0.43,1.109999 0.99342,2.138205 1.60742,3.158204 0.467,0.763999 0.92486,1.511578 1.38086,2.267578 0.59,0.974999 1.16187,2.056173 1.54687,3.076172 0.143,0.377999 0.28188,0.835094 0.42188,1.371093 0.113,0.440996 0.15951,0.871548 0.22851,1.310547 0.158,0.914004 0.1333,1.906284 0.0293,2.863284 -0.097,0.836 -0.25775,1.65408 -0.46875,2.45508 -0.007,0.016 -2.3e-4,0.0337 0.01,0.0527 0.035,0.052 0.0958,0.0688 0.17579,0.0508 0.977,-0.281 1.89008,-0.4812 2.83007,-0.6582 1.66,-0.317 3.48177,-0.34281 5.13477,-0.008 1.958,0.395 3.73331,1.35408 5.07031,2.83008 0.255,0.281 0.50147,0.59721 0.73047,0.94921 0.667,1.02 1.08017,1.99591 1.32617,3.12891 0.094,0.44 0.14878,0.8427 0.17578,1.2207 0.054,0.968 -0.0532,1.9079 -0.32421,2.83789 -0.116,0.397 -0.25388,0.7658 -0.42188,1.0918 -0.826,1.696 -2.13664,2.90944 -3.93164,3.64844 -1.396,0.579 -2.95181,0.76294 -4.50781,0.71094 0.009,0.052 0.001,0.0453 -0.008,0.0273 -0.026,-0.062 -0.0174,-0.12378 0.0176,-0.17578 0.412,-0.668 0.75611,-1.38014 1.03711,-2.11914 0.184,-0.493 0.31677,-1.03888 0.38477,-1.54688 0.09,-0.687 0.0474,-1.44137 -0.18164,-2.10937 -0.29,-0.86 -0.98793,-1.58252 -1.79492,-1.97852 -0.352,-0.177 -0.7384,-0.29056 -1.1504,-0.35156 -1.10699,-0.158 -2.14509,0.0538 -3.12109,0.63281 -0.517,0.307 -0.95912,0.68482 -1.32812,1.13281 -0.316,0.388 -0.62299,0.83674 -0.83399,1.30274 -0.474,1.037 -0.74862,2.17984 -0.76562,3.33984 -0.007,0.59 0.01,1.09653 0.0625,1.51953 0.018,0.168 0.0795,0.4756 0.18554,0.9336 0.061,0.245 0.12118,0.49051 0.20118,0.72851 0.113,0.36 0.19209,0.59794 0.24609,0.71094 0.299,0.739 0.67758,1.44236 1.14258,2.06836 1.063,1.45 2.48744,2.46025 4.27343,3.03125 0.975,0.316 1.92302,0.57078 2.91602,0.67578 1.336,0.141 2.73397,0.13275 4.04297,-0.15625 1.705,-0.379 3.242,-1.07375 4.625,-2.09375 1.054,-0.78 2.06589,-1.81855 2.83789,-2.93555 1.223,-1.76499 2.00466,-3.70851 2.34766,-5.85351 0.07,-0.404 0.11262,-0.81031 0.14062,-1.19531 0.201,-3.042 -0.47406,-5.87882 -2.03906,-8.50782 -0.411,-0.69399 -0.82524,-1.32104 -1.24024,-1.87304 -0.484,-0.652 -1.053,-1.36191 -1.625,-2.00391 -0.89499,-1.002 -1.70497,-1.84625 -2.41796,-2.53125 -1.389,-1.337003 -3.04057,-2.882819 -4.97657,-4.632813 -1.342,-1.213999 -2.64362,-2.470377 -4.01562,-3.859375 -1.072,-1.081999 -2.07386,-2.188267 -3.00586,-3.322266 -0.387,-0.474999 -0.77458,-0.983563 -1.14258,-1.476562 -0.624,-0.817 -1.25655,-1.792423 -1.81055,-2.732422 -1.002,-1.713999 -1.91676,-3.480783 -2.75976,-5.300782 -0.493,-1.062998 -0.98733,-2.215126 -1.48633,-3.453124 -0.027,-0.064 -0.0593,-0.097 -0.11328,-0.125 -0.026,-0.0085 -0.0523,-0.0086 -0.0742,0 z"
     id="path13" /><path
     style="clip-rule:evenodd;fill:#ffffff;fill-opacity:1;fill-rule:nonzero;stroke-linejoin:round;stroke-miterlimit:2"
     d="m 463.99597,50.259766 c -0.0219,0.0089 -0.0393,0.02673 -0.0488,0.05273 0,0.008 10e-4,0.0086 -0.008,0.01758 -0.036,0.167 -0.0716,0.324422 -0.14062,0.482422 -0.519,1.237999 -0.94158,2.206391 -1.26758,2.900391 -1.044,2.240997 -2.02155,4.121579 -2.93555,5.642578 -0.588,0.967999 -1.18554,1.864407 -1.81054,2.691406 -0.456,0.613999 -1.02704,1.334563 -1.58203,1.976563 -1.372,1.572998 -2.80318,3.075954 -4.32618,4.501953 -1.361,1.281998 -2.70559,2.52972 -4.05859,3.761718 -1.714,1.563999 -3.18058,2.968564 -4.39258,4.226563 -0.545,0.562999 -1.19712,1.309188 -1.95312,2.242187 -0.212,0.262 -0.38708,0.544407 -0.58008,0.816407 -0.281,0.386999 -0.53797,0.817234 -0.79297,1.240234 -0.694,1.140999 -1.2555,2.365017 -1.6875,3.666016 -0.588,1.775998 -0.85945,3.603189 -0.81445,5.492187 0.009,0.413 0.0331,0.807547 0.0781,1.185547 0.052,0.448 0.13014,0.942516 0.24414,1.478516 0.035,0.148999 0.10633,0.440281 0.23633,0.863281 0.229,0.781999 0.48381,1.446954 0.75781,2.001953 0.184,0.37 0.36932,0.729266 0.57031,1.072266 0.59,1.010999 1.33719,1.933766 2.24219,2.759765 0.37,0.343 0.74716,0.668991 1.16016,0.958991 1.011,0.70199 2.13623,1.247 3.36523,1.625 0.677,0.211 1.33633,0.35306 1.98633,0.41406 1.495,0.159 2.98996,0.0694 4.50195,-0.26563 0.475,-0.104 0.9151,-0.25476 1.3711,-0.38476 1.45,-0.406 2.75887,-1.16878 3.79687,-2.25977 0.737,-0.773999 1.31924,-1.653673 1.74024,-2.638672 0.229,-0.535999 0.39519,-1.009688 0.49219,-1.429688 0.12299,-0.493999 0.23748,-1.038063 0.27148,-1.539062 0.054,-0.766999 0.0456,-1.46761 -0.0234,-2.099609 -0.106,-0.923999 -0.37855,-1.819642 -0.81054,-2.681641 -0.369,-0.738999 -0.88727,-1.362672 -1.57227,-1.888672 -1.037,-0.792999 -2.18842,-1.11775 -3.48242,-0.96875 -0.588,0.07 -1.22189,0.281047 -1.71289,0.623047 -0.94,0.658999 -1.45969,1.591345 -1.55469,2.777344 -0.044,0.561999 6.2e-4,1.126266 0.14062,1.697265 0.272,1.079999 0.72791,2.108751 1.37891,3.09375 0.028,0.043 0.0177,0.09705 -0.0273,0.123047 -0.018,0.009 -0.0338,0.01953 -0.0508,0.01953 -1.109,0.007 -2.17333,-0.05455 -3.23633,-0.310546 -1.108,-0.255 -2.31938,-0.824314 -3.23438,-1.570313 -1.037,-0.843999 -1.79458,-1.916939 -2.26758,-3.210937 -0.255,-0.701 -0.39387,-1.395079 -0.42187,-2.080078 -0.01,-0.361 -0.0168,-0.703876 -0.01,-1.046876 0.019,-0.667999 0.1156,-1.318938 0.3086,-1.960937 0.511,-1.721998 1.45884,-3.16322 2.83984,-4.324219 1.689,-1.414998 3.84946,-2.101062 6.06445,-2.164062 1.089,-0.034 2.13744,0.04347 3.14844,0.230468 0.983,0.175 1.96536,0.404548 2.94336,0.685547 0.052,0.016 0.1111,-0.01831 0.1211,-0.07031 0.009,-0.019 0.009,-0.03574 0,-0.05273 -0.395,-1.407998 -0.56005,-2.857329 -0.49805,-4.361328 0.033,-1.017999 0.18192,-1.916032 0.41992,-2.707031 0.133,-0.429999 0.26522,-0.870203 0.44922,-1.283203 0.3,-0.703999 0.63181,-1.378063 1.00781,-2.039062 0.396,-0.694 0.78549,-1.337251 1.14649,-1.90625 0.43,-0.685 0.71317,-1.135704 0.82617,-1.345704 0.158,-0.289999 0.32247,-0.578375 0.48047,-0.859375 0.343,-0.606999 0.66956,-1.294407 0.97656,-2.066406 0.054,-0.123 0.0892,-0.238562 0.11523,-0.351562 0.034,-0.123 0.0528,-0.343219 0.13282,-0.449219 0.017,-0.017 0.0436,-0.02677 0.0586,-0.0098 0.009,0 0.01,0.0098 0.01,0.0098 0.15799,0.274 0.21898,0.580141 0.33398,0.86914 0.43,1.108999 0.99337,2.138205 1.60937,3.158204 0.465,0.762999 0.92291,1.509625 1.37891,2.265625 0.59,0.974999 1.15988,2.058126 1.54688,3.078125 0.141,0.377999 0.28287,0.833141 0.42187,1.36914 0.114,0.441 0.16047,0.871548 0.23047,1.310547 0.159,0.913999 0.13039,1.909235 0.0254,2.865235 -0.096,0.835999 -0.25484,1.652125 -0.46484,2.453124 -0.009,0.017 -0.001,0.03373 0.008,0.05273 0.034,0.052 0.0968,0.06978 0.17578,0.05078 0.977,-0.281 1.89008,-0.481203 2.83008,-0.658203 1.66,-0.316 3.48177,-0.342812 5.13476,-0.0078 1.958,0.394 3.73332,1.35408 5.07032,2.830079 0.255,0.280999 0.50151,0.598219 0.72851,0.949218 0.668,1.020999 1.08308,1.994908 1.33008,3.128907 0.095,0.438999 0.14788,0.842703 0.17187,1.220703 0.054,0.967999 -0.0513,1.909798 -0.32226,2.841797 -0.116,0.394999 -0.25583,0.762891 -0.42383,1.08789 -0.825,1.695999 -2.13473,2.909438 -3.92773,3.648438 -1.398,0.578999 -2.95377,0.762937 -4.50977,0.710937 0.011,0.045 0.002,0.03634 -0.008,0.02734 -0.027,-0.061 -0.0175,-0.123781 0.0195,-0.175781 0.411,-0.668 0.75416,-1.378188 1.03516,-2.117188 0.186,-0.493999 0.31572,-1.038875 0.38671,-1.546875 0.088,-0.686999 0.0454,-1.443329 -0.18359,-2.111328 -0.289,-0.859999 -0.98497,-1.580563 -1.79297,-1.976562 -0.351,-0.177 -0.73939,-0.292516 -1.15039,-0.353516 -1.11,-0.158 -2.14705,0.05381 -3.12305,0.632813 -0.51699,0.306999 -0.95717,0.685766 -1.32617,1.134765 -0.316,0.387 -0.62398,0.834782 -0.83398,1.300781 -0.477,1.036999 -0.74863,2.180845 -0.76563,3.339844 -0.009,0.59 0.009,1.099485 0.0605,1.521484 0.017,0.168 0.0796,0.473642 0.18555,0.931641 0.052,0.245 0.12317,0.490516 0.20117,0.728516 0.113,0.359999 0.19209,0.59889 0.24609,0.71289 0.298,0.739 0.67758,1.440402 1.14258,2.066407 1.065,1.449997 2.48849,2.460257 4.27149,3.031257 0.97599,0.317 1.92397,0.57178 2.91796,0.67578 1.337,0.141 2.73297,0.13275 4.04297,-0.15625 1.706,-0.379 3.244,-1.07375 4.625,-2.09375 1.054,-0.779999 2.06585,-1.818549 2.83985,-2.935553 1.221,-1.764998 2.0017,-3.708518 2.3457,-5.853516 0.071,-0.403999 0.11463,-0.808359 0.14063,-1.193359 0.20299,-3.040997 -0.47607,-5.880768 -2.03907,-8.509766 -0.413,-0.693999 -0.82528,-1.320047 -1.23828,-1.873047 -0.484,-0.651999 -1.05591,-1.361906 -1.62891,-2.003906 -0.89499,-1.001999 -1.70306,-1.844297 -2.41406,-2.529297 -1.389,-1.335998 -3.04056,-2.884767 -4.97656,-4.634765 -1.344,-1.213999 -2.64558,-2.468424 -4.01758,-3.857422 -1.072,-1.081999 -2.07391,-2.19022 -3.0039,-3.324219 -0.388,-0.473999 -0.77458,-0.98161 -1.14258,-1.474609 -0.624,-0.816999 -1.2595,-1.794376 -1.8125,-2.734375 -1.001,-1.713999 -1.91482,-3.480783 -2.75782,-5.300781 -0.49399,-1.062999 -0.98728,-2.215127 -1.48828,-3.453126 -0.026,-0.063 -0.0593,-0.09705 -0.11328,-0.123046 -0.026,-0.0095 -0.0523,-0.0089 -0.0742,0 z"
     id="path1" /></svg>
