<?xml version="1.0" encoding="UTF-8" standalone="no"?>
<svg
   width="600"
   height="600"
   viewBox="0 0 600 600"
   version="1.1"
   xml:space="preserve"
   style="clip-rule:evenodd;fill-rule:evenodd;stroke-linejoin:round;stroke-miterlimit:2"
   id="svg23"
   sodipodi:docname="bg-logo_light-1.svg"
   inkscape:version="1.3 (0e150ed6c4, 2023-07-21)"
   xmlns:inkscape="http://www.inkscape.org/namespaces/inkscape"
   xmlns:sodipodi="http://sodipodi.sourceforge.net/DTD/sodipodi-0.dtd"
   xmlns="http://www.w3.org/2000/svg"
   xmlns:svg="http://www.w3.org/2000/svg"><defs
     id="defs23" /><sodipodi:namedview
     id="namedview23"
     pagecolor="#ffffff"
     bordercolor="#000000"
     borderopacity="0.25"
     inkscape:showpageshadow="2"
     inkscape:pageopacity="0.0"
     inkscape:pagecheckerboard="true"
     inkscape:deskcolor="#d1d1d1"
     inkscape:zoom="1.307047"
     inkscape:cx="183.62002"
     inkscape:cy="320.18741"
     inkscape:window-width="1920"
     inkscape:window-height="1017"
     inkscape:window-x="-8"
     inkscape:window-y="-8"
     inkscape:window-maximized="1"
     inkscape:current-layer="svg23" /><g
     id="g1"
     transform="translate(-6.0520019,13.982)"
     style="fill:#1b445f;fill-opacity:1"><path
       style="clip-rule:evenodd;fill:#1b445f;fill-opacity:1;fill-rule:nonzero;stroke-linejoin:round;stroke-miterlimit:2"
       d="m 440.62274,527.03348 c -0.0219,0.009 -0.0403,0.0267 -0.0488,0.0527 0,0.009 0.001,0.008 -0.008,0.0176 -0.035,0.167 -0.0716,0.32638 -0.14258,0.48438 -0.517,1.23799 -0.93872,2.20639 -1.26171,2.90039 -1.047,2.24098 -2.02232,4.12159 -2.94532,5.64258 -0.59,0.96799 -1.1885,1.8644 -1.8125,2.6914 -0.457,0.614 -1.02703,1.33356 -1.58203,1.97656 -1.37,1.573 -2.80322,3.07596 -4.32422,4.50196 -1.363,1.28199 -2.7075,2.52973 -4.0625,3.76172 -1.712,1.56299 -3.18058,2.96856 -4.39258,4.22656 -0.545,0.562 -1.19712,1.31019 -1.95312,2.24219 -0.21,0.26299 -0.38613,0.5444 -0.57813,0.8164 -0.282,0.387 -0.53596,0.81824 -0.79296,1.24024 -0.694,1.14199 -1.2575,2.36501 -1.6875,3.66601 -0.588,1.776 -0.86141,3.60119 -0.81641,5.49219 0.009,0.413 0.0351,0.80755 0.0781,1.18555 0.054,0.448 0.13205,0.94251 0.24805,1.47851 0.035,0.149 0.10433,0.43838 0.23633,0.85938 0.229,0.783 0.48386,1.45086 0.75586,2.00586 0.184,0.368 0.36731,0.72926 0.57031,1.07226 0.588,1.011 1.33819,1.93377 2.24219,2.75977 0.371,0.343 0.74711,0.66898 1.16211,0.95898 1.011,0.702 2.13423,1.247 3.36523,1.625 0.675,0.21 1.33633,0.35111 1.98633,0.41211 1.495,0.159 2.98605,0.0713 4.49805,-0.26367 0.476,-0.104 0.91704,-0.25477 1.37304,-0.38477 1.452,-0.406 2.75988,-1.16876 3.79688,-2.25976 0.739,-0.775 1.31723,-1.65368 1.74023,-2.63867 0.229,-0.536 0.39714,-1.00969 0.49414,-1.42969 0.121,-0.494 0.23549,-1.03806 0.27149,-1.53906 0.052,-0.767 0.0436,-1.46857 -0.0254,-2.10157 -0.106,-0.923 -0.37855,-1.81769 -0.81055,-2.67968 -0.369,-0.739 -0.88727,-1.36363 -1.57226,-1.89063 -1.037,-0.793 -2.19043,-1.1158 -3.48243,-0.9668 -0.588,0.07 -1.21093,0.28105 -1.71093,0.62305 -0.94199,0.659 -1.45964,1.59236 -1.55664,2.77734 -0.044,0.563 -10e-4,1.12627 0.13867,1.69727 0.274,1.08 0.72986,2.10875 1.38086,3.09375 0.026,0.043 0.0178,0.097 -0.0273,0.12305 -0.016,0.009 -0.0357,0.0195 -0.0527,0.0195 -1.107,0.008 -2.16938,-0.0555 -3.23438,-0.31055 -1.106,-0.255 -2.32037,-0.82527 -3.23437,-1.57226 -1.038,-0.843 -1.79063,-1.91499 -2.26563,-3.20899 -0.257,-0.702 -0.39782,-1.39698 -0.42382,-2.08398 -0.01,-0.359 -0.0186,-0.70097 -0.01,-1.04297 0.019,-0.668 0.11559,-1.32089 0.30859,-1.96289 0.511,-1.722 1.45885,-3.16127 2.83985,-4.32227 1.68699,-1.415 3.8495,-2.10106 6.0625,-2.16406 1.09099,-0.034 2.13744,0.0445 3.14843,0.23047 0.984,0.175 1.96932,0.40455 2.94532,0.68555 0.052,0.017 0.11209,-0.0183 0.12109,-0.0703 0.01,-0.019 0.01,-0.0367 0,-0.0527 -0.396,-1.408 -0.562,-2.85733 -0.5,-4.36133 0.035,-1.018 0.18392,-1.91603 0.41992,-2.70703 0.133,-0.43 0.26518,-0.8702 0.45117,-1.2832 0.298,-0.704 0.63172,-1.37807 1.01172,-2.03907 0.394,-0.695 0.78063,-1.33725 1.14063,-1.90625 0.432,-0.687 0.71317,-1.1357 0.82617,-1.3457 0.158,-0.291 0.32638,-0.57833 0.48438,-0.86133 0.343,-0.605 0.66956,-1.29245 0.97656,-2.06445 0.052,-0.125 0.0873,-0.23856 0.11328,-0.35156 0.036,-0.123 0.0529,-0.34322 0.13086,-0.44922 0.017,-0.017 0.0455,-0.0266 0.0625,-0.01 0.009,0 0.008,0.01 0.008,0.01 0.158,0.274 0.22099,0.58114 0.33399,0.86914 0.432,1.11 0.99437,2.13625 1.60937,3.15625 0.467,0.764 0.92286,1.51158 1.38086,2.26758 0.588,0.975 1.15988,2.05812 1.54687,3.07812 0.139,0.378 0.28088,0.83314 0.42188,1.36914 0.114,0.441 0.15856,0.87155 0.22656,1.31055 0.159,0.914 0.13238,1.90823 0.0254,2.86523 -0.094,0.836 -0.25284,1.65213 -0.46484,2.45313 -0.009,0.016 5.3e-4,0.0337 0.01,0.0527 0.036,0.052 0.0978,0.0688 0.17578,0.0508 0.976,-0.281 1.89203,-0.4812 2.83203,-0.6582 1.66199,-0.317 3.47987,-0.34262 5.13086,-0.008 1.95999,0.395 3.73626,1.35408 5.07226,2.83008 0.255,0.281 0.50147,0.59723 0.73047,0.94922 0.668,1.01999 1.08117,1.9959 1.32617,3.1289 0.097,0.44 0.14974,0.84271 0.17774,1.2207 0.052,0.968 -0.0542,1.90791 -0.32617,2.8379 -0.115,0.397 -0.25488,0.76579 -0.42188,1.09179 -0.827,1.696 -2.13469,2.90944 -3.92969,3.64844 -1.398,0.579 -2.95181,0.76294 -4.50781,0.71094 0.016,0.052 0.007,0.0453 0,0.0273 -0.026,-0.062 -0.0194,-0.12378 0.0156,-0.17578 0.414,-0.668 0.75811,-1.38014 1.03711,-2.11914 0.18599,-0.493 0.31571,-1.03692 0.38671,-1.54492 0.087,-0.687 0.0454,-1.44333 -0.18359,-2.11133 -0.29,-0.86 -0.98497,-1.58056 -1.79297,-1.97656 -0.352,-0.177 -0.73834,-0.29252 -1.15234,-0.35352 -1.105,-0.158 -2.14414,0.0538 -3.11914,0.63281 -0.51999,0.307 -0.95913,0.68677 -1.32813,1.13477 -0.316,0.388 -0.62294,0.83478 -0.83594,1.30078 -0.474,1.037 -0.74667,2.17985 -0.76367,3.33984 -0.009,0.59 0.009,1.09655 0.0605,1.51954 0.018,0.168 0.0795,0.47559 0.18555,0.93359 0.061,0.245 0.12317,0.49052 0.20117,0.72851 0.115,0.36 0.19405,0.59794 0.24804,0.71094 0.297,0.739 0.67458,1.44236 1.14258,2.06836 1.062,1.45 2.48749,2.46025 4.27149,3.03125 0.97499,0.316 1.92498,0.57078 2.91797,0.67578 1.33599,0.141 2.73397,0.13275 4.04296,-0.15625 1.705,-0.379 3.24301,-1.07375 4.625,-2.09375 1.055,-0.78 2.0639,-1.81855 2.8379,-2.93554 1.22199,-1.765 2.00465,-3.70852 2.34765,-5.85352 0.069,-0.404 0.11267,-0.81031 0.13867,-1.19531 0.203,-3.042 -0.47311,-5.87883 -2.03711,-8.50781 -0.413,-0.694 -0.82623,-1.32105 -1.24023,-1.87305 -0.484,-0.652 -1.055,-1.36191 -1.625,-2.00391 -0.897,-1.002 -1.70697,-1.84625 -2.41797,-2.53125 -1.389,-1.337 -3.04257,-2.88281 -4.97656,-4.63281 -1.344,-1.214 -2.64558,-2.46842 -4.01758,-3.85742 -1.07,-1.082 -2.07291,-2.19022 -3.00391,-3.32422 -0.387,-0.475 -0.77357,-0.98356 -1.14257,-1.47656 -0.62599,-0.817 -1.25755,-1.79243 -1.81055,-2.73243 -1.002,-1.71398 -1.91672,-3.48078 -2.76172,-5.30078 -0.491,-1.063 -0.98437,-2.21512 -1.48437,-3.45312 -0.026,-0.064 -0.0632,-0.097 -0.11524,-0.125 -0.027,-0.009 -0.0523,-0.009 -0.0742,0 z"
       id="path7" /><path
       style="clip-rule:evenodd;fill:#1b445f;fill-opacity:1;fill-rule:nonzero;stroke-linejoin:round;stroke-miterlimit:2"
       d="m 165.66792,314.05479 c -0.054,0.026 -0.0873,0.06 -0.11328,0.12305 -0.501,1.238 -0.99428,2.39012 -1.48828,3.45312 -0.843,1.82 -1.75681,3.58678 -2.75781,5.30078 -0.553,0.94 -1.1885,1.91739 -1.8125,2.73438 -0.368,0.493 -0.75458,1.00061 -1.14258,1.47461 -0.93,1.134 -1.93191,2.24222 -3.00391,3.32422 -1.37198,1.38899 -2.67359,2.64342 -4.01757,3.85742 -1.936,1.74999 -3.58757,3.29877 -4.97657,4.63476 -0.711,0.685 -1.52101,1.5273 -2.41601,2.5293 -0.573,0.642 -1.14296,1.35191 -1.62696,2.00391 -0.413,0.553 -0.82723,1.17904 -1.24023,1.87304 -1.563,2.629 -2.24011,5.46877 -2.03711,8.50977 0.026,0.385 0.0696,0.78936 0.14063,1.19336 0.344,2.14499 1.1247,4.08852 2.3457,5.85351 0.774,1.117 1.78584,2.15556 2.83984,2.93555 1.381,1.02 2.91705,1.71475 4.62305,2.09375 1.31,0.289 2.70597,0.29725 4.04297,0.15625 0.994,-0.104 1.94392,-0.35878 2.91992,-0.67578 1.783,-0.571 3.2065,-1.58126 4.27148,-3.03125 0.465,-0.626 0.84263,-1.32741 1.14063,-2.06641 0.054,-0.114 0.13505,-0.35093 0.24805,-0.71093 0.078,-0.238 0.14917,-0.48547 0.20117,-0.73047 0.106,-0.458 0.16659,-0.76364 0.18359,-0.93164 0.052,-0.422 0.0715,-0.93149 0.0625,-1.52149 -0.017,-1.159 -0.28862,-2.30285 -0.76562,-3.33984 -0.21,-0.466 -0.51799,-0.91378 -0.83399,-1.30078 -0.369,-0.449 -0.80917,-0.82582 -1.32617,-1.13282 -0.976,-0.57899 -2.01305,-0.79276 -3.12305,-0.63476 -0.411,0.061 -0.79939,0.17652 -1.15039,0.35352 -0.808,0.39599 -1.50398,1.11657 -1.79297,1.97656 -0.229,0.668 -0.27159,1.42433 -0.18359,2.11133 0.071,0.508 0.20072,1.05287 0.38672,1.54687 0.281,0.739 0.62416,1.44919 1.03516,2.11719 0.037,0.052 0.0465,0.11478 0.0195,0.17578 -0.01,0.009 -0.0206,0.0178 -0.01,-0.0273 -1.556,0.052 -3.11177,-0.13195 -4.50976,-0.71094 -1.793,-0.739 -3.10275,-1.95244 -3.92774,-3.64844 -0.168,-0.325 -0.30783,-0.69289 -0.42383,-1.08789 -0.271,-0.932 -0.37626,-1.87184 -0.32226,-2.83984 0.024,-0.378 0.0769,-0.78366 0.17187,-1.22266 0.247,-1.134 0.66209,-2.10791 1.33008,-3.12891 0.227,-0.351 0.47352,-0.66822 0.72852,-0.94921 1.33699,-1.476 3.11231,-2.43608 5.07031,-2.83008 1.653,-0.335 3.47477,-0.30837 5.13476,0.008 0.94,0.177 1.85308,0.3772 2.83008,0.6582 0.079,0.019 0.13983,10e-4 0.17383,-0.0508 0.009,-0.019 0.0205,-0.0357 0.0117,-0.0527 -0.21,-0.801 -0.36884,-1.61713 -0.46484,-2.45313 -0.105,-0.956 -0.13362,-1.95123 0.0254,-2.86523 0.07,-0.439 0.11451,-0.86955 0.22851,-1.31055 0.139,-0.536 0.28283,-0.99114 0.42383,-1.36914 0.387,-1.02 0.95688,-2.10313 1.54688,-3.07813 0.45599,-0.75599 0.9139,-1.50262 1.3789,-2.26562 0.616,-1.02 1.17742,-2.0492 1.60742,-3.1582 0.115,-0.289 0.17794,-0.59514 0.33594,-0.86914 0,0 5.4e-4,-0.01 0.01,-0.01 0.015,-0.017 0.0416,-0.007 0.0586,0.01 0.08,0.106 0.0988,0.32622 0.13281,0.44922 0.026,0.11299 0.0612,0.22856 0.11524,0.35156 0.307,0.772 0.63161,1.4594 0.97461,2.0664 0.158,0.281 0.32442,0.56938 0.48242,0.85938 0.113,0.21 0.39617,0.6607 0.82617,1.3457 0.361,0.569 0.74853,1.21225 1.14453,1.90625 0.376,0.661 0.70977,1.33507 1.00977,2.03906 0.184,0.413 0.31622,0.85321 0.44922,1.28321 0.238,0.791 0.38692,1.68903 0.41992,2.70703 0.062,1.50399 -0.105,2.95334 -0.5,4.36133 -0.009,0.017 -0.009,0.0337 0,0.0527 0.01,0.052 0.0691,0.0863 0.12109,0.0703 0.978,-0.281 1.96232,-0.51054 2.94531,-0.68554 1.011,-0.187 2.05944,-0.26447 3.14844,-0.23047 2.215,0.063 4.37546,0.74906 6.06445,2.16406 1.38099,1.161 2.32885,2.60222 2.83985,4.32422 0.193,0.642 0.28959,1.29294 0.30859,1.96094 0.007,0.343 4.8e-4,0.68587 -0.01,1.04687 -0.028,0.685 -0.16688,1.37908 -0.42188,2.08008 -0.473,1.294 -1.23058,2.36695 -2.26758,3.21094 -0.915,0.746 -2.12834,1.31531 -3.23632,1.57031 -1.063,0.256 -2.12538,0.31755 -3.23438,0.31055 -0.017,0 -0.0347,-0.0105 -0.0527,-0.0195 -0.045,-0.026 -0.0534,-0.08 -0.0254,-0.12305 0.65098,-0.985 1.1069,-2.01376 1.3789,-3.09375 0.14,-0.571 0.18463,-1.13331 0.14063,-1.69531 -0.095,-1.186 -0.61469,-2.1203 -1.55469,-2.7793 -0.491,-0.342 -1.12489,-0.55305 -1.71289,-0.62305 -1.294,-0.149 -2.44542,0.17575 -3.48242,0.96875 -0.685,0.526 -1.20522,1.14968 -1.57422,1.88867 -0.432,0.862 -0.7026,1.75765 -0.8086,2.68165 -0.069,0.63199 -0.0794,1.33261 -0.0254,2.0996 0.034,0.501 0.15044,1.04507 0.27344,1.53907 0.097,0.42 0.26319,0.89368 0.49219,1.42968 0.421,0.985 1.00323,1.86468 1.74023,2.63868 1.038,1.09099 2.34688,1.85376 3.79688,2.25976 0.456,0.13 0.89609,0.28077 1.37109,0.38477 1.512,0.335 3.00696,0.42462 4.50195,0.26562 0.64999,-0.061 1.30738,-0.20306 1.98438,-0.41406 1.229,-0.378 2.35619,-0.923 3.36719,-1.625 0.413,-0.29 0.79015,-0.61598 1.16015,-0.95898 0.905,-0.826 1.65219,-1.74877 2.24219,-2.75977 0.201,-0.343 0.38436,-0.70227 0.56836,-1.07227 0.274,-0.555 0.53077,-1.21995 0.75977,-2.00195 0.13,-0.423 0.19937,-0.71428 0.23437,-0.86328 0.114,-0.536 0.19409,-1.03052 0.24609,-1.47852 0.045,-0.378 0.0691,-0.77254 0.0781,-1.18554 0.045,-1.88899 -0.22645,-3.71619 -0.81445,-5.49219 -0.432,-1.301 -0.9935,-2.52502 -1.6875,-3.66602 -0.255,-0.423 -0.51197,-0.85323 -0.79297,-1.24023 -0.193,-0.272 -0.36808,-0.55441 -0.58008,-0.81641 -0.756,-0.933 -1.40814,-1.67918 -1.95313,-2.24218 -1.21199,-1.258 -2.67858,-2.66257 -4.39257,-4.22657 -1.353,-1.232 -2.69955,-2.47972 -4.06055,-3.76171 -1.523,-1.426 -2.95417,-2.92896 -4.32617,-4.50196 -0.555,-0.642 -1.12408,-1.36256 -1.58008,-1.97656 -0.625,-0.827 -1.22255,-1.72341 -1.81055,-2.69141 -0.914,-1.521 -1.89155,-3.40158 -2.93554,-5.64257 -0.326,-0.694 -0.74858,-1.6624 -1.26758,-2.9004 -0.069,-0.158 -0.10463,-0.31542 -0.14063,-0.48242 -0.009,-0.009 -0.01,-0.01 -0.01,-0.0176 -0.0188,-0.0513 -0.0697,-0.0705 -0.1211,-0.0527 z"
       id="path6" /><path
       style="clip-rule:evenodd;fill:#1b445f;fill-opacity:1;fill-rule:nonzero;stroke-linejoin:round;stroke-miterlimit:2"
       d="m 485.25946,168.58033 c -3.33065,0.10327 -6.67037,3.28268 -8.47656,5.60156 -2.76899,3.55499 -5.27459,7.31154 -7.51758,11.26953 -3.127,5.51399 -6.15123,10.79939 -9.07422,15.85938 -2.485,4.30399 -5.10362,8.11455 -7.84961,11.43555 -3.20699,3.88099 -7.40321,7.38889 -12.7832,6.2539 -2.58199,-0.544 -5.04114,-1.37976 -7.36914,-2.50976 -8.95998,-4.324 -17.18318,-10.24481 -25.53516,-15.2168 -7.98798,-4.75799 -21.77242,-11.6947 -30.3164,-4.26172 -2.065,1.791 -0.99579,4.16999 0.7832,5.58398 2.571,2.039 5.32191,3.82348 8.25391,5.35547 6.33498,3.30799 12.05335,6.40874 17.15234,9.30274 6.23399,3.54799 18.97222,11.88844 16.69922,20.60742 -1.452,5.54499 -5.83781,9.12371 -10.9668,11.5957 -3.90499,1.88199 -7.85462,3.52656 -11.84961,4.93555 -6.42399,2.273 -13.37662,4.69563 -20.84961,7.26562 -5.37999,1.849 -10.21215,3.78746 -14.49414,5.81446 -4.19599,1.982 -13.6665,6.98683 -9.35351,13.13281 1.25999,1.797 3.05472,2.88453 5.38672,3.26953 3.45899,0.572 7.1671,0.60652 11.12109,0.10352 11.71998,-1.483 23.78001,-4.6878 35.70898,-5.8418 4.42399,-0.434 10.67378,-0.18634 14.13477,2.84766 3.99599,3.50399 4.53,9.94672 3.875,15.01172 -0.503,3.90899 -1.24089,8.03596 -2.21289,12.37695 -0.836,3.742 -1.22969,7.21406 -1.17969,10.41406 0.069,4.73199 1.97027,7.92046 5.69727,9.56445 7.34498,3.24799 12.08423,-2.2987 14.74023,-8.30468 1.60999,-3.648 2.87125,-7.34018 3.78125,-11.07618 1.44199,-5.90299 2.66311,-12.02887 3.66211,-18.38085 1.31799,-8.32799 2.61187,-16.78978 3.88086,-25.38477 1.071,-7.23098 3.12421,-14.4392 6.1582,-21.61719 5.12899,-12.12798 11.83175,-23.91699 18.67774,-35.04297 4.85099,-7.88798 8.85205,-14.86093 11.99804,-20.91992 1.429,-2.755 2.59605,-5.67477 3.49805,-8.75976 1.11699,-3.818 1.04229,-7.86441 -3.0957,-9.81641 -0.74868,-0.35231 -1.51655,-0.49258 -2.28516,-0.46875 z"
       id="path4" /><path
       style="clip-rule:evenodd;fill:#1b445f;fill-opacity:1;fill-rule:nonzero;stroke-linejoin:round;stroke-miterlimit:2"
       d="m 432.74188,165.21119 c -7.34553,0.0147 -15.07526,1.74516 -21.90625,4.06641 -1.028,0.35 -1.03647,0.72318 -0.0234,1.11718 l 8.46679,3.29297 c 0.052,0.021 0.0948,0.0585 0.13282,0.10352 0.10199,0.139 0.0775,0.33445 -0.0625,0.43945 l -12.07813,9.21289 c -0.039,0.032 -0.0691,0.0759 -0.0801,0.12891 -0.026,0.122 0.0508,0.24548 0.17383,0.27148 3.30399,0.70599 6.61746,1.23017 9.93945,1.57617 0.067,0.006 0.1315,0.0314 0.1875,0.0684 0.178,0.125 0.22271,0.37164 0.0977,0.55664 l -6.02539,8.63672 c -0.013,0.017 -0.0194,0.0376 -0.0254,0.0586 -0.018,0.095 0.0388,0.18503 0.13281,0.20703 0.171,0.032 0.33986,0.0246 0.50586,-0.0254 2.44599,-0.754 4.93303,-1.57771 7.45703,-2.47071 0.361,-0.129 0.56914,-0.003 0.61914,0.37696 1.067,7.73398 6.09008,15.47061 13.66406,17.72461 6.85799,2.03499 12.82631,0.44445 17.9043,-4.76954 2.64899,-2.72199 4.44473,-6.01505 5.38672,-9.87304 1.707,-7.00198 0.6415,-13.61676 -3.1875,-19.84375 -3.48499,-5.65899 -7.46939,-9.05882 -14.10937,-10.25781 -2.31575,-0.41825 -4.72142,-0.60256 -7.16993,-0.59766 z"
       id="path3" /><path
       style="clip-rule:evenodd;fill:#1b445f;fill-opacity:1;fill-rule:nonzero;stroke-linejoin:round;stroke-miterlimit:2"
       d="m 165.41491,55.006116 c -0.0219,0.0088 -0.0384,0.02674 -0.0469,0.05273 0,0.0086 -0.003,0.0076 -0.0117,0.01758 -0.035,0.167 -0.0696,0.326375 -0.14063,0.484375 -0.517,1.237999 -0.94067,2.206391 -1.26367,2.90039 -1.047,2.240988 -2.02231,4.12158 -2.94531,5.642579 -0.59,0.967999 -1.1885,1.864407 -1.8125,2.691406 -0.457,0.613999 -1.02703,1.333563 -1.58203,1.976562 -1.37,1.572999 -2.80322,3.075955 -4.32422,4.501953 -1.36299,1.281989 -2.70555,2.52972 -4.06055,3.761719 -1.712,1.562999 -3.18253,2.968564 -4.39453,4.226563 -0.545,0.561999 -1.19712,1.308235 -1.95312,2.240234 -0.21,0.263 -0.38613,0.54636 -0.57813,0.818359 -0.282,0.387 -0.53597,0.818235 -0.79297,1.240235 -0.694,1.141989 -1.25554,2.365019 -1.68554,3.666009 -0.588,1.776 -0.86336,3.60119 -0.81836,5.49219 0.009,0.413 0.0351,0.80755 0.0781,1.18555 0.054,0.448 0.13205,0.94251 0.24805,1.47851 0.035,0.149 0.10433,0.43839 0.23633,0.85938 0.229,0.783 0.48386,1.45086 0.75586,2.00586 0.184,0.368 0.36926,0.72926 0.57226,1.07226 0.588,1.011 1.33624,1.93377 2.24024,2.75977 0.371,0.343 0.74711,0.66898 1.16211,0.95898 1.01099,0.702 2.13424,1.247 3.36523,1.625 0.675,0.21 1.33633,0.35111 1.98633,0.41211 1.495,0.159 2.988,0.0713 4.5,-0.26367 0.476,-0.104 0.91509,-0.25476 1.37109,-0.38476 1.45199,-0.406 2.75988,-1.16877 3.79688,-2.25977 0.739,-0.775 1.31918,-1.65367 1.74218,-2.63867 0.229,-0.536 0.39519,-1.00969 0.49219,-1.42969 0.121,-0.494 0.23549,-1.03806 0.27149,-1.53906 0.052,-0.76699 0.0436,-1.46856 -0.0254,-2.10156 -0.106,-0.923 -0.37855,-1.81769 -0.81055,-2.67969 -0.369,-0.73899 -0.88727,-1.36363 -1.57227,-1.89063 -1.037,-0.793 -2.18847,-1.11579 -3.48047,-0.96679 -0.588,0.07 -1.21289,0.28104 -1.71289,0.62304 -0.942,0.659 -1.45964,1.59235 -1.55664,2.77735 -0.044,0.563 6.3e-4,1.12626 0.14063,1.69726 0.274,1.08 0.72986,2.10875 1.38086,3.09375 0.026,0.0431 0.0157,0.0971 -0.0293,0.12305 -0.016,0.009 -0.0338,0.0176 -0.0508,0.0176 -1.107,0.008 -2.17134,-0.0536 -3.23633,-0.3086 -1.106,-0.255 -2.31842,-0.82526 -3.23242,-1.57226 -1.038,-0.84299 -1.79258,-1.91499 -2.26758,-3.20899 -0.257,-0.70199 -0.39587,-1.39699 -0.42187,-2.08398 -0.0102,-0.359 -0.0188,-0.70097 -0.01,-1.04297 0.019,-0.668 0.11364,-1.32089 0.30664,-1.96289 0.511,-1.722 1.45885,-3.163217 2.83984,-4.324216 1.687,-1.414999 3.85146,-2.09911 6.06446,-2.16211 1.091,-0.034 2.13548,0.04447 3.14648,0.230469 0.984,0.175 1.96932,0.402594 2.94532,0.683594 0.052,0.017 0.11404,-0.01636 0.12304,-0.06836 0.01,-0.019 0.01,-0.03673 0,-0.05273 -0.396,-1.407998 -0.562,-2.857329 -0.5,-4.361328 0.035,-1.017999 0.18392,-1.916032 0.41992,-2.707031 0.133,-0.43 0.26518,-0.870204 0.45118,-1.283203 0.298,-0.70399 0.62976,-1.378063 1.00976,-2.039063 0.394,-0.694999 0.78258,-1.33725 1.14258,-1.90625 0.432,-0.686999 0.71122,-1.135703 0.82422,-1.345703 0.158,-0.291 0.32637,-0.580281 0.48437,-0.863281 0.343,-0.605 0.66957,-1.290501 0.97657,-2.0625 0.052,-0.125 0.0873,-0.240516 0.11328,-0.353516 0.036,-0.123 0.0529,-0.343219 0.13086,-0.449218 0.017,-0.017 0.0455,-0.02481 0.0625,-0.0078 0.009,0 0.01,0.0078 0.01,0.0078 0.158,0.273999 0.21903,0.58114 0.33203,0.86914 0.432,1.109999 0.99438,2.138204 1.60938,3.158203 0.467,0.763999 0.92286,1.511589 1.38086,2.267578 0.588,0.974999 1.15987,2.056173 1.54687,3.076172 0.139,0.378 0.28088,0.835095 0.42188,1.371094 0.114,0.441 0.16051,0.871547 0.22851,1.310547 0.15901,0.913999 0.13239,1.906282 0.0254,2.863281 -0.094,0.835999 -0.25284,1.654079 -0.46484,2.455078 -0.009,0.016 -0.001,0.03373 0.008,0.05273 0.036,0.0518 0.0978,0.06878 0.17578,0.05078 0.976,-0.281 1.89204,-0.481203 2.83203,-0.658203 1.662,-0.31719 3.48182,-0.342812 5.13282,-0.0078 1.96,0.395 3.73432,1.35408 5.07031,2.830078 0.255,0.28099 0.50147,0.597218 0.73047,0.949218 0.668,1.02 1.08312,1.99591 1.32812,3.1289 0.097,0.44 0.14779,0.84271 0.17578,1.22071 0.052,0.968 -0.0542,1.90789 -0.32617,2.83789 -0.115,0.397 -0.25487,0.7658 -0.42187,1.0918 -0.827,1.69599 -2.1347,2.90943 -3.92969,3.64843 -1.398,0.579 -2.95181,0.76294 -4.50781,0.71094 0.016,0.052 0.007,0.0434 0,0.0254 -0.026,-0.062 -0.0194,-0.12183 0.0156,-0.17383 0.414,-0.668 0.75811,-1.38014 1.03711,-2.11914 0.186,-0.493 0.31767,-1.03887 0.38867,-1.54687 0.087,-0.687 0.0435,-1.44138 -0.18554,-2.10938 -0.29,-0.86 -0.98302,-1.58251 -1.79102,-1.97851 -0.352,-0.177 -0.7403,-0.29057 -1.1543,-0.35157 -1.10499,-0.158 -2.14414,0.0538 -3.11914,0.63282 -0.52,0.307 -0.95912,0.68481 -1.32812,1.13281 -0.316,0.388 -0.62294,0.83673 -0.83594,1.30273 -0.474,1.037 -0.74472,2.17985 -0.76172,3.33985 -0.009,0.59 0.007,1.09653 0.0586,1.51953 0.018,0.168 0.0815,0.47559 0.1875,0.93359 0.061,0.245 0.12317,0.49052 0.20117,0.72852 0.115,0.36 0.19209,0.59794 0.24609,0.71093 0.297,0.739 0.67653,1.44237 1.14453,2.06836 1.062,1.45 2.48554,2.46025 4.26953,3.03125 0.975,0.316 1.92497,0.57079 2.91797,0.67579 1.336,0.141 2.73397,0.13275 4.04297,-0.15625 1.705,-0.379 3.243,-1.07376 4.625,-2.09375 1.055,-0.78 2.06389,-1.81855 2.83789,-2.93555 1.222,-1.76499 2.00466,-3.70852 2.34766,-5.85352 0.069,-0.404 0.11267,-0.81031 0.13867,-1.19531 0.203,-3.042 -0.47312,-5.87881 -2.03711,-8.50781 -0.413,-0.693994 -0.82623,-1.321046 -1.24023,-1.873046 -0.484,-0.651999 -1.055,-1.361907 -1.625,-2.003906 -0.897,-1.001999 -1.70697,-1.846251 -2.41797,-2.53125 -1.389,-1.336999 -3.04257,-2.882814 -4.97656,-4.632813 -1.344,-1.213998 -2.64364,-2.470376 -4.01563,-3.859374 -1.07,-1.081999 -2.07291,-2.188267 -3.0039,-3.322266 -0.387,-0.475 -0.77554,-0.983563 -1.14454,-1.476563 -0.626,-0.816989 -1.25754,-1.792422 -1.81054,-2.732421 -1.002,-1.713999 -1.91672,-3.480784 -2.76172,-5.300782 -0.491,-1.062999 -0.98438,-2.215126 -1.48438,-3.453125 -0.026,-0.064 -0.0613,-0.097 -0.11328,-0.125 -0.0263,-0.0078 -0.0529,-0.0086 -0.0742,0 z"
       id="path14" /></g></svg>
