<?xml version="1.0" encoding="UTF-8" standalone="no"?>
<svg
   width="600"
   height="600"
   viewBox="0 0 600 600"
   version="1.1"
   xml:space="preserve"
   style="clip-rule:evenodd;fill-rule:evenodd;stroke-linejoin:round;stroke-miterlimit:2"
   id="svg23"
   sodipodi:docname="favicon_light.svg"
   inkscape:version="1.3 (0e150ed6c4, 2023-07-21)"
   xmlns:inkscape="http://www.inkscape.org/namespaces/inkscape"
   xmlns:sodipodi="http://sodipodi.sourceforge.net/DTD/sodipodi-0.dtd"
   xmlns="http://www.w3.org/2000/svg"
   xmlns:svg="http://www.w3.org/2000/svg"><defs
     id="defs23" /><sodipodi:namedview
     id="namedview23"
     pagecolor="#ffffff"
     bordercolor="#000000"
     borderopacity="0.25"
     inkscape:showpageshadow="2"
     inkscape:pageopacity="0.0"
     inkscape:pagecheckerboard="0"
     inkscape:deskcolor="#d1d1d1"
     inkscape:zoom="0.6535235"
     inkscape:cx="210.39794"
     inkscape:cy="433.8023"
     inkscape:window-width="1920"
     inkscape:window-height="1017"
     inkscape:window-x="-8"
     inkscape:window-y="-8"
     inkscape:window-maximized="1"
     inkscape:current-layer="svg23" /><path
     id="path20"
     style="fill:#1b445f;fill-opacity:1;fill-rule:nonzero;stroke-width:1"
     d="m 134.24102,42.207469 c -13.95037,-0.0203 -27.01942,4.978367 -35.823942,18.355233 -6.896913,10.490342 -11.10896,21.534082 -12.633069,33.117326 -2.768185,21.097182 5.422561,43.512402 23.486361,54.855252 13.35519,8.41111 29.96752,8.37809 43.47139,0.44775 15.31051,-9.00589 23.86869,-25.21944 25.93553,-43.33035 0.17596,-1.55881 0.65062,-1.65653 1.42382,-0.29103 2.6765,4.71359 4.92551,9.84865 6.75197,15.40237 0.18338,0.57242 0.56256,0.77145 1.13502,0.5955 l 56.57461,-16.44113 c 0.0546,-0.0173 0.11359,-0.0421 0.16566,-0.0695 0.34943,-0.20321 0.47585,-0.64831 0.27759,-1.00518 -0.41139,-0.70133 -0.91315,-1.33012 -1.51784,-1.88276 C 220.21507,80.772175 194.85966,62.048048 166.79867,49.783284 156.47466,45.276161 145.0913,42.223254 134.24102,42.207469 Z M 13.948087,46.953547 c -4.8573315,0.153651 -8.6453439,2.23729 -11.3614834,6.25945 -4.899462,7.256258 -1.4213515,19.490596 1.3790491,26.992199 3.5612162,9.563485 8.2985523,19.706844 14.2091303,30.437584 21.726643,39.39642 45.945993,79.05184 63.125077,121.06528 7.169519,17.52853 12.38795,36.27363 14.762086,55.22465 3.888354,31.12408 7.353584,57.34004 10.394364,78.65281 1.71741,12.0442 4.28947,24.82445 7.71686,38.33577 4.83998,19.09477 15.29394,52.01322 42.61395,41.83266 18.40085,-6.84736 15.82651,-30.30371 12.82785,-45.981 -2.35927,-12.2152 -4.14165,-24.04286 -5.34606,-35.47245 -0.74098,-7.04561 -0.1242,-14.11571 1.85589,-21.2208 5.22164,-18.69823 22.06416,-22.06205 39.11933,-20.93198 20.20997,1.33327 39.93081,6.29175 60.04908,10.82194 13.47909,3.04575 26.60294,5.39203 39.36335,7.04749 11.4643,1.47207 36.2703,1.56274 37.23433,-15.69564 0.73354,-13.2858 -21.66454,-24.37687 -31.34204,-28.64437 -17.15677,-7.61561 -36.08109,-15.0468 -56.76936,-22.29314 -15.06764,-5.28854 -28.97493,-10.81534 -41.72295,-16.58217 -13.83844,-6.24513 -26.8727,-12.89441 -34.52547,-26.28924 -3.34065,-5.84118 -4.57694,-11.24946 -3.70955,-16.23069 3.35553,-19.18647 35.59929,-32.36482 51.75239,-38.22832 13.21144,-4.78049 25.96197,-9.58055 38.26637,-14.41061 4.80529,-1.89585 17.17577,-8.11231 8.11535,-13.84198 -18.43803,-11.63528 -43.83653,-6.09224 -64.26458,0.93354 -13.07762,4.5079 -27.4275,9.73878 -43.05275,15.71131 -14.16308,5.4075 -31.43589,11.17881 -46.14666,10.15034 -9.27849,-0.65673 -18.31346,-8.83544 -23.795303,-15.76951 C 87.39052,149.55808 80.547319,139.06163 74.18074,127.33465 66.790666,113.71677 59.433125,100.16585 52.102524,86.6818 45.366695,74.283214 30.039234,46.475252 13.948087,46.953547 Z M 454.86545,151.10757 c -18.20396,0.0365 -37.36008,4.32611 -54.28887,10.0787 -2.54763,0.86738 -2.56866,1.79287 -0.0582,2.7693 l 20.98127,8.16012 c 0.12887,0.052 0.23711,0.14367 0.33133,0.2552 0.25278,0.34448 0.19248,0.83229 -0.15447,1.0925 l -29.93387,22.83043 c -0.0966,0.0793 -0.17197,0.18878 -0.19925,0.32013 -0.0644,0.30235 0.125,0.6072 0.42983,0.67161 8.18809,1.74963 16.39992,3.04909 24.6326,3.90657 0.16604,0.0149 0.32464,0.0762 0.46342,0.1679 0.44112,0.30978 0.5538,0.92057 0.24402,1.37904 l -14.93,21.40437 c -0.0322,0.0422 -0.0478,0.0912 -0.0627,0.14328 -0.0446,0.23543 0.0962,0.46258 0.32909,0.51714 0.42379,0.0793 0.84229,0.059 1.25369,-0.0649 6.06174,-1.86857 12.22554,-3.90758 18.48059,-6.12064 0.89464,-0.3197 1.40736,-0.0103 1.53128,0.9313 2.64427,19.16663 15.09495,38.33991 33.86506,43.92586 16.9957,5.04318 31.78466,1.1033 44.36912,-11.81819 6.56481,-6.74575 11.0172,-14.90591 13.3517,-24.46692 4.23033,-17.35259 1.59095,-33.74594 -7.89819,-49.17788 -8.63663,-14.02431 -18.51331,-22.44923 -34.96875,-25.42063 -5.73896,-1.03652 -11.7007,-1.49642 -17.76868,-1.48427 z m 130.14999,8.35041 c -8.25412,0.25592 -16.52972,8.13781 -21.00587,13.88452 -6.86223,8.81011 -13.07192,18.11914 -18.6306,27.92798 -7.74942,13.66496 -15.24179,26.7653 -22.48567,39.30514 -6.15839,10.66631 -12.64922,20.10746 -19.45443,28.33767 -7.94768,9.618 -18.3472,18.30919 -31.68007,15.49639 -6.3988,-1.34815 -12.49189,-3.421 -18.26121,-6.2214 -22.20494,-10.71587 -42.58584,-25.3827 -63.28402,-37.70445 -19.7961,-11.79142 -53.95732,-28.98742 -75.13132,-10.56674 -5.11754,4.43852 -2.4678,10.33552 1.94097,13.83974 6.37153,5.05313 13.18898,9.4767 20.45516,13.27335 15.69958,8.19798 29.87,15.8823 42.50649,23.0543 15.44929,8.79275 47.01793,29.46191 41.38491,51.06959 -3.5984,13.74179 -14.46494,22.60774 -27.17578,28.73392 -9.67749,4.66403 -19.46694,8.74499 -29.36748,12.23682 -15.92014,5.63301 -33.15198,11.6347 -51.6718,18.00375 -13.33289,4.58226 -25.30618,9.38501 -35.91796,14.40838 -10.39866,4.91185 -33.87052,17.3175 -23.1819,32.5487 3.12256,4.45337 7.57023,7.1478 13.34946,8.10191 8.5722,1.41755 17.76191,1.50399 27.56083,0.25744 29.04487,-3.6752 58.93141,-11.62013 88.49421,-14.48001 10.9637,-1.07556 26.45651,-0.46028 35.03366,7.05868 9.90301,8.68371 11.22286,24.6485 9.59962,37.20073 -1.24655,9.68742 -3.07154,19.91466 -5.48038,30.67266 -2.07181,9.27353 -3.04992,17.87981 -2.926,25.81016 0.171,11.72698 4.88097,19.62931 14.11735,23.70351 18.2026,8.04931 29.94918,-5.69626 36.53136,-20.5805 3.98996,-9.04059 7.11384,-18.19248 9.36903,-27.45114 3.5736,-14.629 6.60225,-29.81167 9.07799,-45.5534 3.26631,-20.63869 6.47489,-41.60976 9.61977,-62.91015 2.65418,-17.92008 7.74013,-35.7815 15.25909,-53.57024 12.71084,-30.05598 29.32397,-59.27149 46.28992,-86.84427 12.02191,-19.54828 21.93587,-36.8286 29.7324,-51.84419 3.54138,-6.82752 6.43068,-14.06349 8.66606,-21.70883 2.76818,-9.46188 2.58507,-19.49061 -7.66983,-24.32813 -1.85543,-0.87311 -3.75917,-1.22095 -5.66396,-1.16189 z" /></svg>
