<?xml version="1.0" encoding="UTF-8" standalone="no"?>
<svg
   width="600"
   height="600"
   viewBox="0 0 600 600"
   version="1.1"
   xml:space="preserve"
   style="clip-rule:evenodd;fill-rule:evenodd;stroke-linejoin:round;stroke-miterlimit:2"
   id="svg23"
   sodipodi:docname="logo_light.svg"
   inkscape:version="1.3 (0e150ed6c4, 2023-07-21)"
   xmlns:inkscape="http://www.inkscape.org/namespaces/inkscape"
   xmlns:sodipodi="http://sodipodi.sourceforge.net/DTD/sodipodi-0.dtd"
   xmlns="http://www.w3.org/2000/svg"
   xmlns:svg="http://www.w3.org/2000/svg"><defs
     id="defs23" /><sodipodi:namedview
     id="namedview23"
     pagecolor="#ffffff"
     bordercolor="#000000"
     borderopacity="0.25"
     inkscape:showpageshadow="2"
     inkscape:pageopacity="0.0"
     inkscape:pagecheckerboard="0"
     inkscape:deskcolor="#d1d1d1"
     inkscape:zoom="1.307047"
     inkscape:cx="203.12965"
     inkscape:cy="320.18741"
     inkscape:window-width="1920"
     inkscape:window-height="1017"
     inkscape:window-x="-8"
     inkscape:window-y="-8"
     inkscape:window-maximized="1"
     inkscape:current-layer="svg23" /><path
     d="m 288.8735,140.22913 c 0.026,-0.061 0.017,-0.122 -0.019,-0.176 -0.411,-0.669 -0.756,-1.38 -1.037,-2.117 -0.184,-0.493 -0.316,-1.039 -0.385,-1.547 -0.089,-0.687 -0.045,-1.442 0.184,-2.111 0.289,-0.862 0.985,-1.582 1.793,-1.977 0.352,-0.176 0.739,-0.29 1.152,-0.351 1.106,-0.159 2.145,0.052 3.12,0.633 0.518,0.307 0.959,0.685 1.327,1.133 0.317,0.385 0.624,0.836 0.834,1.301 0.477,1.037 0.749,2.18 0.765,3.34 0.01,0.59 -0.009,1.098 -0.061,1.521 -0.017,0.167 -0.078,0.474 -0.184,0.932 -0.062,0.246 -0.123,0.492 -0.201,0.73 -0.116,0.359 -0.194,0.596 -0.248,0.711 -0.298,0.737 -0.678,1.441 -1.143,2.066 -1.063,1.45 -2.487,2.461 -4.27,3.033 -0.978,0.316 -1.927,0.569 -2.919,0.675 -1.337,0.142 -2.735,0.133 -4.043,-0.158 -1.705,-0.378 -3.245,-1.072 -4.624,-2.092 -1.056,-0.782 -2.065,-1.819 -2.839,-2.936 -1.223,-1.766 -2.005,-3.708 -2.347,-5.854 -0.071,-0.402 -0.114,-0.808 -0.14,-1.195 -0.203,-3.042 0.473,-5.879 2.038,-8.509 0.414,-0.694 0.827,-1.318 1.24,-1.871 0.484,-0.651 1.054,-1.362 1.625,-2.005 0.898,-1.001 1.705,-1.844 2.418,-2.531 1.389,-1.335 3.04,-2.882 4.976,-4.632 1.344,-1.213 2.645,-2.47 4.015,-3.858 1.073,-1.082 2.076,-2.19 3.007,-3.323 0.387,-0.475 0.774,-0.985 1.143,-1.476 0.623,-0.819 1.258,-1.793 1.811,-2.735 1.001,-1.714 1.915,-3.479 2.759,-5.299996 0.493,-1.062 0.984,-2.215 1.487,-3.454 0.026,-0.062 0.059,-0.097 0.113,-0.123 0.053,-0.017 0.105,0 0.123,0.052 0,0.009 0,0.009 0.01,0.018 0.035,0.168 0.068,0.326 0.139,0.483 0.52,1.239 0.94,2.207 1.266,2.902 1.046,2.240996 2.022,4.120996 2.945,5.641996 0.588,0.968 1.187,1.863 1.811,2.69 0.458,0.616 1.028,1.336 1.582,1.978 1.37,1.573 2.804,3.076 4.323,4.5 1.364,1.284 2.708,2.531 4.061,3.762 1.715,1.565 3.184,2.971 4.395,4.229 0.546,0.562 1.197,1.309 1.951,2.241 0.212,0.263 0.387,0.544 0.581,0.817 0.281,0.386 0.536,0.818 0.793,1.238 0.694,1.143 1.255,2.366 1.687,3.666 0.588,1.777 0.861,3.603 0.817,5.495 -0.01,0.413 -0.036,0.807 -0.08,1.185 -0.052,0.449 -0.131,0.94 -0.246,1.477 -0.035,0.15 -0.104,0.441 -0.236,0.861 -0.231,0.784 -0.484,1.45 -0.758,2.005 -0.182,0.369 -0.369,0.728 -0.57,1.072 -0.59,1.011 -1.336,1.935 -2.241,2.759 -0.37,0.343 -0.748,0.668 -1.161,0.959 -1.011,0.703 -2.136,1.247 -3.366,1.627 -0.676,0.21 -1.337,0.352 -1.988,0.413 -1.493,0.158 -2.988,0.069 -4.497,-0.264 -0.477,-0.105 -0.916,-0.255 -1.374,-0.388 -1.45,-0.403 -2.759,-1.169 -3.798,-2.257 -0.737,-0.775 -1.318,-1.653 -1.738,-2.638 -0.229,-0.536 -0.397,-1.011 -0.494,-1.434 -0.121,-0.491 -0.236,-1.036 -0.273,-1.537 -0.052,-0.765 -0.043,-1.469 0.028,-2.1 0.106,-0.923 0.378,-1.82 0.809,-2.682 0.369,-0.737 0.887,-1.363 1.572,-1.89 1.038,-0.791 2.189,-1.117 3.482,-0.966 0.589,0.071 1.222,0.281 1.713,0.624 0.94,0.659 1.459,1.589 1.556,2.777 0.045,0.562 0,1.126 -0.141,1.696 -0.272,1.081 -0.728,2.111 -1.38,3.094 -0.026,0.044 -0.016,0.098 0.028,0.124 0.015,0.008 0.034,0.017 0.052,0.017 1.108,0.009 2.171,-0.052 3.234,-0.307 1.107,-0.255 2.321,-0.826 3.235,-1.573 1.037,-0.845 1.793,-1.917 2.267,-3.209 0.255,-0.704 0.397,-1.398 0.423,-2.083 0.009,-0.361 0.019,-0.704 0.009,-1.046 -0.018,-0.669 -0.115,-1.318 -0.307,-1.96 -0.512,-1.722 -1.459,-3.165 -2.841,-4.325 -1.686,-1.414 -3.849,-2.099 -6.062,-2.163 -1.091,-0.035 -2.137,0.045 -3.148,0.229 -0.985,0.177 -1.972,0.404 -2.945,0.687 -0.052,0.017 -0.114,-0.018 -0.123,-0.071 -0.009,-0.018 -0.009,-0.035 0,-0.054 0.397,-1.405 0.562,-2.855 0.501,-4.359 -0.036,-1.018 -0.184,-1.916 -0.43,-2.707 -0.134,-0.432 -0.265,-0.869 -0.449,-1.284 -0.3,-0.702 -0.633,-1.38 -1.011,-2.039 -0.396,-0.694 -0.781,-1.336 -1.143,-1.908 -0.43,-0.685 -0.712,-1.133 -0.826,-1.344 -0.158,-0.29 -0.326,-0.58 -0.484,-0.861 -0.343,-0.605 -0.666,-1.292 -0.975,-2.067 -0.054,-0.122 -0.088,-0.236 -0.114,-0.35 -0.035,-0.122 -0.054,-0.344 -0.132,-0.448 -0.019,-0.019 -0.045,-0.026 -0.062,-0.01 -0.009,0 -0.009,0.01 -0.009,0.01 -0.158,0.272 -0.22,0.581 -0.333,0.869 -0.432,1.108 -0.994,2.137 -1.61,3.155 -0.466,0.765 -0.922,1.514 -1.38,2.269 -0.588,0.976 -1.159,2.057 -1.547,3.076 -0.141,0.379 -0.281,0.835 -0.42,1.372 -0.116,0.439 -0.158,0.871 -0.231,1.31 -0.156,0.914 -0.13,1.906 -0.026,2.865 0.099,0.836 0.257,1.653 0.467,2.451 0.009,0.019 0,0.036 -0.009,0.054 -0.036,0.053 -0.097,0.071 -0.175,0.053 -0.977,-0.282 -1.89,-0.484 -2.831,-0.659 -1.661,-0.317 -3.48,-0.343 -5.134,-0.01 -1.959,0.395 -3.735,1.355 -5.071,2.832 -0.255,0.281 -0.501,0.597 -0.73,0.949 -0.668,1.018 -1.081,1.995 -1.327,3.127 -0.097,0.441 -0.149,0.845 -0.175,1.223 -0.054,0.966 0.052,1.908 0.324,2.839 0.115,0.396 0.255,0.765 0.422,1.091 0.827,1.696 2.136,2.909 3.93,3.646 1.398,0.581 2.952,0.766 4.508,0.713 -0.009,0.043 0.01,0.034 0.01,0.026"
     style="fill:#1b445f;fill-opacity:1;fill-rule:nonzero"
     id="path1" /><path
     d="m 209.7735,166.03613 c 0.026,-0.062 0.019,-0.123 -0.016,-0.175 -0.414,-0.668 -0.758,-1.38 -1.037,-2.119 -0.186,-0.493 -0.317,-1.038 -0.388,-1.546 -0.087,-0.687 -0.044,-1.443 0.185,-2.111 0.29,-0.86 0.984,-1.581 1.792,-1.977 0.352,-0.177 0.739,-0.291 1.153,-0.352 1.105,-0.158 2.144,0.054 3.119,0.633 0.52,0.307 0.959,0.685 1.328,1.133 0.316,0.388 0.623,0.836 0.836,1.302 0.474,1.037 0.746,2.179 0.763,3.339 0.009,0.59 -0.008,1.098 -0.06,1.521 -0.018,0.168 -0.08,0.475 -0.186,0.933 -0.061,0.245 -0.123,0.491 -0.201,0.729 -0.115,0.36 -0.194,0.598 -0.248,0.711 -0.297,0.739 -0.675,1.441 -1.143,2.067 -1.062,1.45 -2.486,2.461 -4.27,3.032 -0.975,0.316 -1.926,0.571 -2.919,0.676 -1.336,0.141 -2.734,0.132 -4.043,-0.157 -1.705,-0.379 -3.242,-1.074 -4.624,-2.094 -1.055,-0.78 -2.064,-1.818 -2.838,-2.935 -1.222,-1.765 -2.005,-3.708 -2.348,-5.853 -0.069,-0.404 -0.113,-0.81 -0.139,-1.195 -0.203,-3.042 0.474,-5.88 2.038,-8.509 0.413,-0.694 0.826,-1.32 1.24,-1.872 0.484,-0.652 1.055,-1.363 1.625,-2.005 0.897,-1.002 1.707,-1.845 2.418,-2.53 1.389,-1.337 3.042,-2.883 4.976,-4.633 1.344,-1.214 2.645,-2.47 4.017,-3.859 1.07,-1.082 2.073,-2.189 3.004,-3.323 0.387,-0.475 0.774,-0.983 1.143,-1.476 0.626,-0.817 1.258,-1.793 1.811,-2.733 1.002,-1.714 1.916,-3.481 2.761,-5.301 0.491,-1.063 0.985,-2.215 1.485,-3.453 0.026,-0.064 0.062,-0.097 0.114,-0.125 0.054,-0.017 0.106,0 0.123,0.052 0,0.009 0,0.009 0.009,0.019 0.035,0.167 0.071,0.326 0.142,0.484 0.517,1.238 0.94,2.206 1.263,2.9 1.047,2.241 2.022,4.121 2.945,5.642 0.59,0.968 1.188,1.865 1.812,2.692 0.457,0.614 1.027,1.334 1.582,1.977 1.37,1.573 2.803,3.075 4.324,4.501 1.363,1.282 2.707,2.53 4.062,3.762 1.712,1.563 3.181,2.969 4.393,4.227 0.545,0.562 1.197,1.309 1.953,2.241 0.21,0.263 0.387,0.546 0.579,0.818 0.282,0.387 0.536,0.817 0.793,1.239 0.694,1.142 1.256,2.365 1.686,3.666 0.588,1.776 0.862,3.602 0.817,5.493 -0.009,0.413 -0.035,0.808 -0.078,1.186 -0.054,0.448 -0.132,0.942 -0.248,1.478 -0.035,0.149 -0.104,0.439 -0.236,0.86 -0.229,0.783 -0.484,1.45 -0.756,2.005 -0.184,0.368 -0.368,0.729 -0.571,1.072 -0.588,1.011 -1.337,1.934 -2.241,2.76 -0.371,0.343 -0.747,0.669 -1.162,0.959 -1.011,0.702 -2.135,1.247 -3.366,1.625 -0.675,0.21 -1.336,0.352 -1.986,0.413 -1.495,0.159 -2.987,0.071 -4.499,-0.264 -0.476,-0.104 -0.916,-0.255 -1.372,-0.385 -1.452,-0.406 -2.76,-1.169 -3.797,-2.26 -0.739,-0.775 -1.318,-1.653 -1.741,-2.638 -0.229,-0.536 -0.396,-1.011 -0.493,-1.431 -0.121,-0.494 -0.236,-1.037 -0.272,-1.538 -0.052,-0.767 -0.043,-1.469 0.026,-2.102 0.106,-0.923 0.378,-1.818 0.81,-2.68 0.369,-0.739 0.888,-1.363 1.573,-1.89 1.037,-0.793 2.189,-1.116 3.481,-0.967 0.588,0.07 1.212,0.281 1.712,0.623 0.942,0.659 1.46,1.592 1.557,2.777 0.044,0.563 0,1.127 -0.14,1.698 -0.274,1.08 -0.73,2.109 -1.381,3.094 -0.026,0.043 -0.017,0.097 0.028,0.123 0.016,0.009 0.035,0.018 0.052,0.018 1.107,0.008 2.17,-0.054 3.235,-0.309 1.106,-0.255 2.32,-0.826 3.234,-1.573 1.038,-0.843 1.792,-1.915 2.267,-3.209 0.257,-0.702 0.396,-1.396 0.422,-2.083 0.01,-0.359 0.019,-0.702 0.01,-1.044 -0.019,-0.668 -0.114,-1.32 -0.307,-1.962 -0.511,-1.722 -1.46,-3.163 -2.841,-4.324 -1.687,-1.415 -3.85,-2.1 -6.063,-2.163 -1.091,-0.034 -2.137,0.044 -3.148,0.23 -0.984,0.175 -1.969,0.404 -2.945,0.685 -0.052,0.017 -0.113,-0.018 -0.122,-0.07 -0.01,-0.019 -0.01,-0.036 0,-0.052 0.396,-1.408 0.562,-2.858 0.5,-4.362 -0.035,-1.018 -0.184,-1.915 -0.42,-2.706 -0.133,-0.43 -0.265,-0.87 -0.451,-1.283 -0.298,-0.704 -0.631,-1.379 -1.011,-2.04 -0.394,-0.695 -0.781,-1.337 -1.141,-1.906 -0.432,-0.687 -0.713,-1.136 -0.826,-1.346 -0.158,-0.291 -0.326,-0.579 -0.484,-0.862 -0.343,-0.605 -0.669,-1.292 -0.976,-2.064 -0.052,-0.125 -0.087,-0.239 -0.113,-0.352 -0.036,-0.123 -0.054,-0.343 -0.132,-0.449 -0.017,-0.017 -0.045,-0.026 -0.062,-0.009 -0.009,0 -0.009,0.009 -0.009,0.009 -0.158,0.274 -0.22,0.581 -0.333,0.869 -0.432,1.11 -0.994,2.137 -1.609,3.157 -0.467,0.764 -0.923,1.512 -1.381,2.268 -0.588,0.975 -1.16,2.057 -1.547,3.077 -0.139,0.378 -0.281,0.834 -0.422,1.37 -0.114,0.441 -0.159,0.871 -0.227,1.31 -0.159,0.914 -0.133,1.908 -0.026,2.865 0.094,0.836 0.253,1.653 0.465,2.454 0.009,0.016 0,0.033 -0.009,0.052 -0.036,0.052 -0.097,0.07 -0.175,0.052 -0.976,-0.281 -1.892,-0.482 -2.832,-0.659 -1.662,-0.317 -3.481,-0.343 -5.132,-0.008 -1.96,0.395 -3.736,1.354 -5.072,2.83 -0.255,0.281 -0.501,0.597 -0.73,0.949 -0.668,1.02 -1.082,1.996 -1.327,3.129 -0.097,0.44 -0.149,0.844 -0.177,1.222 -0.052,0.968 0.054,1.908 0.326,2.838 0.115,0.397 0.255,0.765 0.422,1.091 0.827,1.696 2.135,2.91 3.93,3.649 1.398,0.579 2.952,0.763 4.508,0.711 -0.016,0.052 -0.007,0.044 0,0.026"
     style="fill:#1b445f;fill-opacity:1;fill-rule:nonzero"
     id="path2" /><path
     d="m 131.5015,199.34913 c 0.026,-0.061 0.017,-0.123 -0.019,-0.175 -0.411,-0.668 -0.756,-1.379 -1.037,-2.118 -0.184,-0.494 -0.316,-1.039 -0.385,-1.547 -0.089,-0.687 -0.045,-1.443 0.184,-2.111 0.289,-0.86 0.985,-1.581 1.793,-1.977 0.352,-0.177 0.739,-0.291 1.152,-0.352 1.106,-0.158 2.145,0.054 3.12,0.633 0.518,0.307 0.959,0.685 1.327,1.134 0.317,0.387 0.624,0.835 0.836,1.301 0.475,1.037 0.747,2.18 0.763,3.339 0.01,0.59 -0.009,1.099 -0.061,1.521 -0.017,0.168 -0.078,0.475 -0.184,0.933 -0.062,0.245 -0.123,0.491 -0.201,0.729 -0.116,0.36 -0.194,0.598 -0.248,0.712 -0.298,0.739 -0.678,1.44 -1.143,2.066 -1.063,1.45 -2.487,2.461 -4.27,3.032 -0.978,0.317 -1.927,0.572 -2.919,0.676 -1.337,0.141 -2.735,0.132 -4.043,-0.157 -1.705,-0.379 -3.245,-1.074 -4.624,-2.094 -1.056,-0.78 -2.065,-1.818 -2.839,-2.935 -1.223,-1.765 -2.005,-3.708 -2.347,-5.853 -0.071,-0.404 -0.114,-0.81 -0.14,-1.195 -0.203,-3.041 0.473,-5.88 2.038,-8.509 0.414,-0.694 0.827,-1.319 1.24,-1.872 0.484,-0.652 1.054,-1.363 1.625,-2.005 0.898,-1.002 1.705,-1.845 2.418,-2.53 1.389,-1.336 3.04,-2.883 4.976,-4.633 1.344,-1.214 2.645,-2.47 4.015,-3.859 1.073,-1.082 2.076,-2.189 3.007,-3.323 0.387,-0.474 0.774,-0.983 1.143,-1.476 0.623,-0.817 1.258,-1.793 1.811,-2.733 1.001,-1.714 1.915,-3.481 2.759,-5.301 0.493,-1.063 0.984,-2.215 1.487,-3.453 0.026,-0.063 0.059,-0.097 0.113,-0.123 0.053,-0.019 0.105,0 0.123,0.052 0,0.008 0,0.008 0.01,0.017 0.035,0.167 0.07,0.326 0.139,0.484 0.52,1.238 0.942,2.206 1.266,2.9 1.046,2.241 2.022,4.121 2.937,5.642 0.589,0.968 1.186,1.865 1.81,2.692 0.458,0.614 1.027,1.335 1.582,1.977 1.372,1.573 2.803,3.075 4.324,4.501 1.363,1.282 2.709,2.53 4.062,3.762 1.714,1.564 3.181,2.969 4.393,4.227 0.546,0.563 1.197,1.309 1.953,2.242 0.21,0.262 0.387,0.545 0.579,0.817 0.283,0.387 0.536,0.817 0.793,1.24 0.694,1.141 1.256,2.364 1.686,3.665 0.588,1.776 0.862,3.604 0.817,5.493 -0.009,0.413 -0.035,0.808 -0.078,1.186 -0.052,0.448 -0.132,0.942 -0.245,1.478 -0.036,0.149 -0.107,0.439 -0.239,0.862 -0.229,0.782 -0.484,1.448 -0.755,2.003 -0.185,0.37 -0.369,0.729 -0.572,1.072 -0.588,1.011 -1.336,1.934 -2.241,2.76 -0.371,0.343 -0.747,0.669 -1.16,0.959 -1.011,0.702 -2.137,1.247 -3.367,1.625 -0.676,0.211 -1.337,0.352 -1.987,0.413 -1.494,0.159 -2.987,0.071 -4.501,-0.264 -0.474,-0.104 -0.914,-0.255 -1.37,-0.385 -1.45,-0.406 -2.76,-1.169 -3.797,-2.26 -0.739,-0.774 -1.318,-1.653 -1.741,-2.638 -0.229,-0.536 -0.396,-1.011 -0.491,-1.431 -0.123,-0.494 -0.238,-1.037 -0.274,-1.538 -0.052,-0.767 -0.042,-1.469 0.026,-2.101 0.107,-0.924 0.378,-1.819 0.81,-2.681 0.369,-0.739 0.888,-1.363 1.573,-1.889 1.037,-0.793 2.189,-1.117 3.481,-0.968 0.588,0.07 1.221,0.281 1.715,0.623 0.94,0.659 1.457,1.592 1.554,2.778 0.045,0.562 0,1.126 -0.14,1.697 -0.273,1.08 -0.729,2.109 -1.379,3.094 -0.028,0.043 -0.019,0.097 0.026,0.123 0.017,0.009 0.035,0.019 0.052,0.019 1.108,0.007 2.171,-0.054 3.235,-0.31 1.108,-0.255 2.32,-0.826 3.234,-1.572 1.037,-0.844 1.794,-1.916 2.267,-3.21 0.257,-0.701 0.397,-1.396 0.423,-2.081 0.009,-0.361 0.018,-0.703 0.009,-1.046 -0.017,-0.668 -0.116,-1.32 -0.307,-1.962 -0.51,-1.722 -1.46,-3.163 -2.841,-4.324 -1.686,-1.415 -3.848,-2.1 -6.063,-2.163 -1.091,-0.034 -2.137,0.044 -3.147,0.231 -0.985,0.175 -1.97,0.404 -2.945,0.685 -0.052,0.016 -0.114,-0.019 -0.123,-0.071 -0.01,-0.019 -0.01,-0.035 0,-0.052 0.396,-1.408 0.562,-2.858 0.501,-4.362 -0.036,-1.018 -0.185,-1.915 -0.43,-2.706 -0.133,-0.43 -0.265,-0.87 -0.449,-1.283 -0.3,-0.704 -0.633,-1.379 -1.011,-2.04 -0.396,-0.694 -0.782,-1.337 -1.143,-1.906 -0.43,-0.685 -0.711,-1.136 -0.826,-1.346 -0.159,-0.29 -0.324,-0.579 -0.482,-0.86 -0.345,-0.607 -0.669,-1.294 -0.978,-2.066 -0.052,-0.123 -0.087,-0.239 -0.113,-0.352 -0.036,-0.123 -0.052,-0.343 -0.132,-0.449 -0.017,-0.017 -0.043,-0.026 -0.062,-0.009 -0.009,0 -0.009,0.009 -0.009,0.009 -0.158,0.274 -0.22,0.581 -0.333,0.87 -0.43,1.109 -0.993,2.137 -1.609,3.157 -0.467,0.763 -0.923,1.511 -1.379,2.267 -0.59,0.975 -1.162,2.057 -1.549,3.077 -0.139,0.378 -0.281,0.834 -0.421,1.37 -0.113,0.441 -0.158,0.871 -0.229,1.31 -0.158,0.914 -0.132,1.909 -0.026,2.865 0.097,0.836 0.255,1.653 0.466,2.454 0.009,0.017 0,0.033 -0.008,0.052 -0.037,0.052 -0.098,0.071 -0.176,0.052 -0.976,-0.281 -1.89,-0.482 -2.832,-0.659 -1.66,-0.316 -3.479,-0.342 -5.132,-0.007 -1.96,0.394 -3.736,1.353 -5.072,2.829 -0.254,0.281 -0.501,0.598 -0.73,0.949 -0.668,1.021 -1.08,1.996 -1.327,3.13 -0.095,0.439 -0.149,0.843 -0.175,1.221 -0.052,0.968 0.052,1.908 0.324,2.84 0.115,0.395 0.256,0.764 0.424,1.089 0.825,1.696 2.135,2.91 3.928,3.649 1.398,0.579 2.954,0.763 4.508,0.711 0.002,0.045 0.009,0.035 0.019,0.026"
     style="fill:#1b445f;fill-opacity:1;fill-rule:nonzero"
     id="path3" /><path
     d="m 52.4015,245.97913 c 0.027,-0.062 0.019,-0.123 -0.016,-0.175 -0.414,-0.668 -0.758,-1.381 -1.037,-2.119 -0.186,-0.493 -0.317,-1.038 -0.387,-1.546 -0.088,-0.687 -0.045,-1.443 0.184,-2.111 0.29,-0.862 0.985,-1.583 1.793,-1.977 0.351,-0.177 0.739,-0.291 1.152,-0.352 1.107,-0.158 2.144,0.054 3.12,0.633 0.519,0.307 0.958,0.685 1.327,1.133 0.316,0.388 0.624,0.836 0.836,1.302 0.474,1.036 0.746,2.179 0.763,3.339 0.009,0.59 -0.008,1.098 -0.06,1.521 -0.018,0.167 -0.08,0.475 -0.186,0.933 -0.061,0.245 -0.123,0.491 -0.201,0.729 -0.115,0.36 -0.193,0.598 -0.247,0.711 -0.298,0.739 -0.676,1.441 -1.143,2.067 -1.063,1.45 -2.487,2.46 -4.271,3.032 -0.975,0.316 -1.924,0.571 -2.918,0.676 -1.337,0.141 -2.735,0.132 -4.044,-0.157 -1.705,-0.379 -3.242,-1.074 -4.623,-2.094 -1.056,-0.782 -2.065,-1.819 -2.839,-2.935 -1.221,-1.767 -2.005,-3.708 -2.348,-5.853 -0.068,-0.404 -0.113,-0.81 -0.139,-1.197 -0.203,-3.04 0.474,-5.878 2.038,-8.507 0.413,-0.694 0.827,-1.32 1.24,-1.873 0.484,-0.651 1.055,-1.362 1.627,-2.004 0.895,-1.002 1.705,-1.845 2.416,-2.53 1.389,-1.337 3.042,-2.884 4.976,-4.633 1.344,-1.214 2.645,-2.471 4.017,-3.859 1.072,-1.082 2.074,-2.189 3.004,-3.323 0.387,-0.475 0.775,-0.983 1.143,-1.476 0.626,-0.827 1.259,-1.793 1.811,-2.735 1.002,-1.712 1.918,-3.479 2.761,-5.299 0.491,-1.063 0.985,-2.215 1.486,-3.453 0.026,-0.064 0.061,-0.099 0.113,-0.125 0.054,-0.017 0.106,0 0.123,0.052 0,0.009 0,0.009 0.009,0.019 0.036,0.167 0.071,0.325 0.142,0.484 0.517,1.238 0.94,2.206 1.264,2.9 1.046,2.241 2.021,4.121 2.945,5.642 0.59,0.968 1.187,1.863 1.811,2.69 0.458,0.616 1.027,1.336 1.582,1.979 1.37,1.573 2.803,3.075 4.324,4.501 1.363,1.282 2.707,2.529 4.062,3.76 1.713,1.565 3.181,2.971 4.393,4.229 0.546,0.562 1.197,1.309 1.953,2.241 0.21,0.263 0.387,0.544 0.579,0.818 0.283,0.387 0.536,0.817 0.793,1.239 0.694,1.141 1.256,2.364 1.686,3.664 0.588,1.778 0.862,3.604 0.817,5.495 -0.009,0.413 -0.035,0.808 -0.078,1.186 -0.054,0.448 -0.132,0.942 -0.247,1.478 -0.036,0.149 -0.105,0.439 -0.237,0.86 -0.229,0.783 -0.484,1.45 -0.756,2.005 -0.184,0.368 -0.368,0.729 -0.571,1.072 -0.588,1.011 -1.337,1.934 -2.241,2.758 -0.369,0.345 -0.747,0.669 -1.162,0.961 -1.011,0.702 -2.135,1.247 -3.365,1.625 -0.676,0.21 -1.337,0.352 -1.987,0.413 -1.494,0.159 -2.987,0.069 -4.499,-0.264 -0.476,-0.104 -0.916,-0.255 -1.372,-0.385 -1.452,-0.406 -2.76,-1.171 -3.797,-2.26 -0.739,-0.775 -1.318,-1.653 -1.741,-2.638 -0.229,-0.536 -0.396,-1.011 -0.493,-1.431 -0.121,-0.494 -0.236,-1.037 -0.272,-1.54 -0.052,-0.765 -0.042,-1.469 0.026,-2.1 0.107,-0.923 0.378,-1.82 0.81,-2.68 0.369,-0.739 0.888,-1.363 1.573,-1.89 1.037,-0.793 2.189,-1.118 3.481,-0.968 0.588,0.071 1.221,0.282 1.713,0.624 0.942,0.659 1.461,1.592 1.556,2.777 0.045,0.563 0,1.127 -0.14,1.698 -0.273,1.08 -0.729,2.109 -1.381,3.094 -0.026,0.043 -0.017,0.097 0.028,0.123 0.017,0.009 0.035,0.016 0.052,0.016 1.108,0.01 2.171,-0.052 3.235,-0.307 1.106,-0.255 2.32,-0.826 3.236,-1.573 1.036,-0.843 1.79,-1.915 2.267,-3.209 0.255,-0.702 0.395,-1.396 0.421,-2.083 0.009,-0.359 0.018,-0.702 0.009,-1.044 -0.019,-0.668 -0.114,-1.32 -0.307,-1.962 -0.51,-1.722 -1.46,-3.163 -2.841,-4.324 -1.686,-1.415 -3.849,-2.1 -6.063,-2.163 -1.091,-0.036 -2.137,0.044 -3.148,0.23 -0.984,0.175 -1.969,0.403 -2.944,0.685 -0.053,0.017 -0.114,-0.018 -0.123,-0.07 -0.01,-0.019 -0.01,-0.036 0,-0.052 0.396,-1.408 0.562,-2.858 0.5,-4.362 -0.035,-1.018 -0.184,-1.915 -0.43,-2.706 -0.132,-0.43 -0.264,-0.87 -0.448,-1.283 -0.3,-0.704 -0.633,-1.381 -1.011,-2.04 -0.395,-0.695 -0.782,-1.337 -1.143,-1.906 -0.43,-0.687 -0.713,-1.136 -0.826,-1.346 -0.159,-0.291 -0.324,-0.579 -0.482,-0.862 -0.343,-0.605 -0.669,-1.292 -0.978,-2.064 -0.052,-0.125 -0.087,-0.239 -0.113,-0.352 -0.036,-0.123 -0.052,-0.343 -0.132,-0.449 -0.017,-0.019 -0.045,-0.026 -0.062,-0.009 -0.009,0 -0.009,0.009 -0.009,0.009 -0.158,0.272 -0.22,0.581 -0.333,0.869 -0.43,1.11 -0.994,2.137 -1.609,3.157 -0.467,0.764 -0.923,1.512 -1.379,2.268 -0.59,0.975 -1.162,2.057 -1.547,3.075 -0.141,0.38 -0.283,0.836 -0.423,1.372 -0.113,0.439 -0.158,0.871 -0.229,1.31 -0.158,0.914 -0.132,1.906 -0.026,2.865 0.097,0.836 0.255,1.653 0.466,2.454 0.009,0.016 0,0.033 -0.01,0.052 -0.035,0.052 -0.094,0.07 -0.175,0.052 -0.975,-0.281 -1.889,-0.482 -2.829,-0.659 -1.662,-0.317 -3.481,-0.343 -5.134,-0.008 -1.96,0.395 -3.736,1.354 -5.072,2.83 -0.254,0.281 -0.501,0.597 -0.73,0.949 -0.667,1.02 -1.08,1.996 -1.327,3.129 -0.095,0.44 -0.149,0.844 -0.175,1.222 -0.053,0.967 0.052,1.908 0.325,2.838 0.114,0.397 0.255,0.765 0.421,1.091 0.827,1.696 2.137,2.91 3.93,3.649 1.398,0.579 2.954,0.763 4.508,0.711 -0.017,0.043 0.002,0.035 0.009,0.026"
     style="fill:#1b445f;fill-opacity:1;fill-rule:nonzero"
     id="path4" /><path
     d="m 395.4835,166.03613 c -0.026,-0.062 -0.017,-0.123 0.018,-0.175 0.412,-0.668 0.756,-1.38 1.037,-2.119 0.184,-0.493 0.317,-1.038 0.385,-1.546 0.09,-0.687 0.047,-1.443 -0.182,-2.111 -0.29,-0.86 -0.987,-1.581 -1.794,-1.977 -0.352,-0.177 -0.739,-0.291 -1.151,-0.352 -1.107,-0.158 -2.146,0.054 -3.122,0.633 -0.517,0.307 -0.958,0.685 -1.327,1.133 -0.316,0.388 -0.623,0.836 -0.834,1.302 -0.474,1.037 -0.748,2.179 -0.765,3.339 -0.007,0.59 0.009,1.098 0.062,1.521 0.018,0.168 0.08,0.475 0.186,0.933 0.061,0.245 0.121,0.491 0.201,0.729 0.113,0.36 0.192,0.598 0.246,0.711 0.299,0.739 0.677,1.441 1.142,2.067 1.063,1.45 2.487,2.461 4.273,3.032 0.975,0.316 1.924,0.571 2.917,0.676 1.336,0.141 2.734,0.132 4.043,-0.157 1.705,-0.379 3.242,-1.074 4.625,-2.094 1.054,-0.78 2.065,-1.818 2.837,-2.935 1.223,-1.765 2.005,-3.708 2.348,-5.853 0.07,-0.404 0.113,-0.81 0.141,-1.195 0.201,-3.042 -0.475,-5.88 -2.04,-8.509 -0.411,-0.694 -0.825,-1.32 -1.24,-1.872 -0.484,-0.652 -1.053,-1.363 -1.625,-2.005 -0.895,-1.002 -1.705,-1.845 -2.418,-2.53 -1.389,-1.337 -3.04,-2.883 -4.976,-4.633 -1.342,-1.214 -2.643,-2.47 -4.015,-3.859 -1.072,-1.082 -2.074,-2.189 -3.006,-3.323 -0.387,-0.475 -0.775,-0.983 -1.143,-1.476 -0.624,-0.817 -1.257,-1.793 -1.811,-2.733 -1.002,-1.714 -1.916,-3.481 -2.759,-5.301 -0.493,-1.063 -0.987,-2.215 -1.486,-3.453 -0.027,-0.064 -0.061,-0.097 -0.115,-0.125 -0.052,-0.017 -0.104,0 -0.123,0.052 0,0.009 0,0.009 -0.007,0.019 -0.037,0.167 -0.071,0.326 -0.142,0.484 -0.519,1.238 -0.94,2.206 -1.266,2.9 -1.044,2.241 -2.021,4.121 -2.944,5.642 -0.589,0.968 -1.188,1.865 -1.812,2.692 -0.456,0.614 -1.027,1.334 -1.58,1.977 -1.372,1.573 -2.805,3.075 -4.324,4.501 -1.365,1.282 -2.709,2.53 -4.062,3.762 -1.714,1.563 -3.183,2.969 -4.395,4.227 -0.545,0.562 -1.195,1.309 -1.951,2.241 -0.212,0.263 -0.387,0.546 -0.581,0.818 -0.281,0.387 -0.536,0.817 -0.793,1.239 -0.694,1.142 -1.254,2.365 -1.686,3.666 -0.588,1.776 -0.862,3.602 -0.817,5.493 0.009,0.413 0.035,0.808 0.08,1.186 0.052,0.448 0.13,0.942 0.245,1.478 0.036,0.149 0.105,0.439 0.237,0.86 0.231,0.783 0.484,1.45 0.757,2.005 0.183,0.368 0.369,0.729 0.57,1.072 0.59,1.011 1.337,1.934 2.241,2.76 0.371,0.343 0.749,0.669 1.162,0.959 1.011,0.702 2.135,1.247 3.365,1.625 0.676,0.21 1.337,0.352 1.989,0.413 1.492,0.159 2.987,0.071 4.497,-0.264 0.476,-0.104 0.916,-0.255 1.374,-0.385 1.45,-0.406 2.758,-1.169 3.797,-2.26 0.737,-0.775 1.318,-1.653 1.739,-2.638 0.229,-0.536 0.396,-1.011 0.493,-1.431 0.121,-0.494 0.236,-1.037 0.274,-1.538 0.052,-0.767 0.042,-1.469 -0.028,-2.102 -0.106,-0.923 -0.378,-1.818 -0.81,-2.68 -0.369,-0.739 -0.886,-1.363 -1.571,-1.89 -1.039,-0.793 -2.189,-1.116 -3.483,-0.967 -0.588,0.07 -1.212,0.281 -1.713,0.623 -0.94,0.659 -1.459,1.592 -1.556,2.777 -0.044,0.563 0,1.127 0.142,1.698 0.272,1.08 0.728,2.109 1.379,3.094 0.026,0.043 0.019,0.097 -0.028,0.123 -0.015,0.009 -0.033,0.018 -0.052,0.018 -1.108,0.008 -2.17,-0.054 -3.233,-0.309 -1.108,-0.255 -2.322,-0.826 -3.237,-1.573 -1.035,-0.843 -1.791,-1.915 -2.266,-3.209 -0.255,-0.702 -0.396,-1.396 -0.422,-2.083 -0.01,-0.359 -0.019,-0.702 -0.01,-1.044 0.019,-0.668 0.116,-1.32 0.307,-1.962 0.512,-1.722 1.46,-3.163 2.841,-4.324 1.687,-1.415 3.85,-2.1 6.063,-2.163 1.091,-0.034 2.137,0.044 3.148,0.23 0.984,0.175 1.969,0.404 2.945,0.685 0.052,0.017 0.113,-0.018 0.122,-0.07 0.01,-0.019 0.01,-0.036 0,-0.052 -0.396,-1.408 -0.562,-2.858 -0.5,-4.362 0.035,-1.018 0.184,-1.915 0.43,-2.706 0.134,-0.43 0.264,-0.87 0.448,-1.283 0.3,-0.704 0.633,-1.379 1.011,-2.04 0.395,-0.695 0.782,-1.337 1.143,-1.906 0.43,-0.687 0.713,-1.136 0.826,-1.346 0.159,-0.291 0.326,-0.579 0.484,-0.862 0.343,-0.605 0.667,-1.292 0.976,-2.064 0.054,-0.125 0.087,-0.239 0.115,-0.352 0.034,-0.123 0.052,-0.343 0.131,-0.449 0.018,-0.017 0.044,-0.026 0.061,-0.009 0.009,0 0.009,0.009 0.009,0.009 0.159,0.274 0.22,0.581 0.334,0.869 0.43,1.11 0.994,2.137 1.608,3.157 0.467,0.764 0.923,1.512 1.379,2.268 0.59,0.975 1.162,2.057 1.547,3.077 0.143,0.378 0.283,0.834 0.423,1.37 0.113,0.441 0.16,0.871 0.229,1.31 0.158,0.914 0.132,1.908 0.028,2.865 -0.097,0.836 -0.257,1.653 -0.468,2.454 -0.007,0.016 0,0.033 0.01,0.052 0.035,0.052 0.095,0.07 0.175,0.052 0.977,-0.281 1.891,-0.482 2.831,-0.659 1.66,-0.317 3.481,-0.343 5.134,-0.008 1.958,0.395 3.734,1.354 5.071,2.83 0.255,0.281 0.5,0.597 0.729,0.949 0.667,1.02 1.082,1.996 1.328,3.129 0.094,0.44 0.148,0.844 0.175,1.222 0.054,0.968 -0.053,1.908 -0.324,2.838 -0.116,0.397 -0.255,0.765 -0.423,1.091 -0.826,1.696 -2.135,2.91 -3.93,3.649 -1.396,0.579 -2.952,0.763 -4.508,0.711 0.009,0.052 0,0.044 -0.009,0.026"
     style="fill:#1b445f;fill-opacity:1;fill-rule:nonzero"
     id="path5" /><path
     d="m 475.4175,199.34913 c -0.027,-0.061 -0.018,-0.123 0.019,-0.175 0.411,-0.668 0.754,-1.379 1.035,-2.118 0.186,-0.494 0.316,-1.039 0.387,-1.547 0.088,-0.687 0.045,-1.443 -0.184,-2.111 -0.289,-0.86 -0.985,-1.581 -1.793,-1.977 -0.351,-0.177 -0.739,-0.291 -1.15,-0.352 -1.11,-0.158 -2.146,0.054 -3.122,0.633 -0.517,0.307 -0.958,0.685 -1.327,1.134 -0.316,0.387 -0.624,0.835 -0.834,1.301 -0.477,1.037 -0.748,2.18 -0.765,3.339 -0.009,0.59 0.009,1.099 0.061,1.521 0.017,0.168 0.079,0.475 0.185,0.933 0.052,0.245 0.123,0.491 0.201,0.729 0.113,0.36 0.193,0.598 0.247,0.712 0.298,0.739 0.676,1.44 1.141,2.066 1.065,1.45 2.489,2.461 4.272,3.032 0.976,0.317 1.925,0.572 2.919,0.676 1.337,0.141 2.733,0.132 4.043,-0.157 1.706,-0.379 3.243,-1.074 4.624,-2.094 1.054,-0.78 2.065,-1.818 2.839,-2.935 1.221,-1.765 2.003,-3.708 2.347,-5.853 0.071,-0.404 0.114,-0.81 0.14,-1.195 0.203,-3.041 -0.475,-5.88 -2.038,-8.509 -0.413,-0.694 -0.827,-1.319 -1.24,-1.872 -0.484,-0.652 -1.054,-1.363 -1.627,-2.005 -0.895,-1.002 -1.705,-1.845 -2.416,-2.53 -1.389,-1.336 -3.04,-2.883 -4.976,-4.633 -1.344,-1.214 -2.645,-2.47 -4.017,-3.859 -1.072,-1.082 -2.074,-2.189 -3.004,-3.323 -0.388,-0.474 -0.775,-0.983 -1.143,-1.476 -0.624,-0.817 -1.259,-1.793 -1.812,-2.733 -1.001,-1.714 -1.915,-3.481 -2.758,-5.301 -0.494,-1.063 -0.987,-2.215 -1.488,-3.453 -0.026,-0.063 -0.059,-0.097 -0.113,-0.123 -0.052,-0.019 -0.104,0 -0.123,0.052 0,0.008 0,0.008 -0.009,0.017 -0.036,0.167 -0.071,0.326 -0.14,0.484 -0.519,1.238 -0.942,2.206 -1.268,2.9 -1.044,2.241 -2.021,4.121 -2.935,5.642 -0.588,0.968 -1.186,1.865 -1.811,2.692 -0.456,0.614 -1.026,1.335 -1.581,1.977 -1.372,1.573 -2.803,3.075 -4.326,4.501 -1.361,1.282 -2.707,2.53 -4.06,3.762 -1.714,1.564 -3.181,2.969 -4.393,4.227 -0.545,0.563 -1.197,1.309 -1.953,2.242 -0.212,0.262 -0.387,0.545 -0.58,0.817 -0.281,0.387 -0.537,0.817 -0.792,1.24 -0.694,1.141 -1.256,2.364 -1.688,3.665 -0.588,1.776 -0.86,3.604 -0.815,5.493 0.009,0.413 0.033,0.808 0.078,1.186 0.052,0.448 0.132,0.942 0.246,1.478 0.035,0.149 0.106,0.439 0.236,0.862 0.229,0.782 0.484,1.448 0.758,2.003 0.184,0.37 0.368,0.729 0.569,1.072 0.59,1.011 1.337,1.934 2.242,2.76 0.37,0.343 0.748,0.669 1.161,0.959 1.011,0.702 2.137,1.247 3.366,1.625 0.677,0.211 1.336,0.352 1.986,0.413 1.495,0.159 2.989,0.071 4.501,-0.264 0.475,-0.104 0.916,-0.255 1.372,-0.385 1.45,-0.406 2.759,-1.169 3.797,-2.26 0.737,-0.774 1.318,-1.653 1.739,-2.638 0.229,-0.536 0.396,-1.011 0.493,-1.431 0.123,-0.494 0.238,-1.037 0.272,-1.538 0.054,-0.767 0.045,-1.469 -0.024,-2.101 -0.106,-0.924 -0.378,-1.819 -0.81,-2.681 -0.369,-0.739 -0.888,-1.363 -1.573,-1.889 -1.037,-0.793 -2.189,-1.117 -3.483,-0.968 -0.588,0.07 -1.221,0.281 -1.712,0.623 -0.94,0.659 -1.46,1.592 -1.555,2.778 -0.044,0.562 0,1.126 0.14,1.697 0.272,1.08 0.728,2.109 1.379,3.094 0.028,0.043 0.019,0.097 -0.026,0.123 -0.018,0.009 -0.035,0.019 -0.052,0.019 -1.109,0.007 -2.172,-0.054 -3.235,-0.31 -1.108,-0.255 -2.32,-0.826 -3.235,-1.572 -1.037,-0.844 -1.795,-1.916 -2.268,-3.21 -0.255,-0.701 -0.394,-1.396 -0.422,-2.081 -0.01,-0.361 -0.017,-0.703 -0.01,-1.046 0.019,-0.668 0.116,-1.32 0.309,-1.962 0.511,-1.722 1.458,-3.163 2.839,-4.324 1.689,-1.415 3.85,-2.1 6.065,-2.163 1.089,-0.034 2.137,0.044 3.148,0.231 0.983,0.175 1.967,0.404 2.945,0.685 0.052,0.016 0.111,-0.019 0.121,-0.071 0.009,-0.019 0.009,-0.035 0,-0.052 -0.395,-1.408 -0.561,-2.858 -0.499,-4.362 0.033,-1.018 0.182,-1.915 0.42,-2.706 0.133,-0.43 0.265,-0.87 0.449,-1.283 0.3,-0.704 0.633,-1.379 1.009,-2.04 0.396,-0.694 0.784,-1.337 1.145,-1.906 0.43,-0.685 0.713,-1.136 0.826,-1.346 0.158,-0.29 0.324,-0.579 0.482,-0.86 0.343,-0.607 0.669,-1.294 0.976,-2.066 0.054,-0.123 0.089,-0.239 0.115,-0.352 0.034,-0.123 0.052,-0.343 0.132,-0.449 0.017,-0.017 0.045,-0.026 0.06,-0.009 0.009,0 0.009,0.009 0.009,0.009 0.158,0.274 0.22,0.581 0.335,0.87 0.43,1.109 0.993,2.137 1.609,3.157 0.465,0.763 0.923,1.511 1.379,2.267 0.59,0.975 1.16,2.057 1.547,3.077 0.141,0.378 0.283,0.834 0.422,1.37 0.114,0.441 0.159,0.871 0.229,1.31 0.159,0.914 0.131,1.909 0.026,2.865 -0.096,0.836 -0.255,1.653 -0.465,2.454 -0.009,0.017 0,0.033 0.009,0.052 0.034,0.052 0.095,0.071 0.174,0.052 0.977,-0.281 1.891,-0.482 2.831,-0.659 1.66,-0.316 3.481,-0.342 5.134,-0.007 1.958,0.394 3.734,1.353 5.071,2.829 0.255,0.281 0.502,0.598 0.729,0.949 0.668,1.021 1.082,1.996 1.329,3.13 0.095,0.439 0.149,0.843 0.173,1.221 0.054,0.968 -0.052,1.908 -0.323,2.84 -0.116,0.395 -0.255,0.764 -0.423,1.089 -0.825,1.696 -2.135,2.91 -3.928,3.649 -1.398,0.579 -2.954,0.763 -4.51,0.711 0.011,0.045 0.002,0.035 -0.008,0.026"
     style="fill:#1b445f;fill-opacity:1;fill-rule:nonzero"
     id="path6" /><path
     d="m 549.5245,245.97913 c -0.028,-0.062 -0.018,-0.123 0.017,-0.175 0.413,-0.668 0.756,-1.381 1.037,-2.119 0.186,-0.493 0.316,-1.038 0.387,-1.546 0.088,-0.687 0.045,-1.443 -0.184,-2.111 -0.289,-0.862 -0.985,-1.583 -1.793,-1.977 -0.354,-0.177 -0.739,-0.291 -1.152,-0.352 -1.108,-0.158 -2.145,0.054 -3.12,0.633 -0.517,0.307 -0.959,0.685 -1.327,1.133 -0.317,0.388 -0.626,0.836 -0.836,1.302 -0.475,1.036 -0.746,2.179 -0.763,3.339 -0.01,0.59 0.009,1.098 0.061,1.521 0.017,0.167 0.078,0.475 0.185,0.933 0.061,0.245 0.122,0.491 0.201,0.729 0.113,0.36 0.193,0.598 0.247,0.711 0.298,0.739 0.676,1.441 1.141,2.067 1.063,1.45 2.489,2.46 4.272,3.032 0.976,0.316 1.925,0.571 2.919,0.676 1.335,0.141 2.733,0.132 4.043,-0.157 1.705,-0.379 3.243,-1.074 4.624,-2.094 1.054,-0.782 2.065,-1.819 2.839,-2.935 1.221,-1.767 2.003,-3.708 2.347,-5.853 0.071,-0.404 0.114,-0.81 0.14,-1.197 0.201,-3.04 -0.475,-5.878 -2.04,-8.507 -0.412,-0.694 -0.825,-1.32 -1.238,-1.873 -0.484,-0.651 -1.056,-1.362 -1.627,-2.004 -0.895,-1.002 -1.705,-1.845 -2.418,-2.53 -1.387,-1.337 -3.038,-2.884 -4.974,-4.633 -1.344,-1.214 -2.645,-2.471 -4.017,-3.859 -1.072,-1.082 -2.074,-2.189 -3.006,-3.323 -0.386,-0.475 -0.773,-0.983 -1.142,-1.476 -0.623,-0.827 -1.258,-1.793 -1.811,-2.735 -1.003,-1.712 -1.915,-3.479 -2.76,-5.299 -0.492,-1.063 -0.985,-2.215 -1.486,-3.453 -0.026,-0.064 -0.061,-0.099 -0.115,-0.125 -0.052,-0.017 -0.104,0 -0.121,0.052 0,0.009 0,0.009 -0.01,0.019 -0.035,0.167 -0.07,0.325 -0.139,0.484 -0.519,1.238 -0.942,2.206 -1.268,2.9 -1.044,2.241 -2.021,4.121 -2.945,5.642 -0.586,0.968 -1.185,1.863 -1.811,2.69 -0.456,0.616 -1.026,1.336 -1.58,1.979 -1.37,1.573 -2.804,3.075 -4.325,4.501 -1.362,1.282 -2.706,2.529 -4.061,3.76 -1.715,1.565 -3.182,2.971 -4.393,4.229 -0.546,0.562 -1.197,1.309 -1.953,2.241 -0.21,0.263 -0.387,0.544 -0.581,0.818 -0.281,0.387 -0.536,0.817 -0.791,1.239 -0.694,1.141 -1.256,2.364 -1.688,3.664 -0.587,1.778 -0.86,3.604 -0.816,5.495 0.01,0.413 0.034,0.808 0.078,1.186 0.053,0.448 0.133,0.942 0.248,1.478 0.034,0.149 0.104,0.439 0.236,0.86 0.229,0.783 0.483,1.45 0.756,2.005 0.185,0.368 0.369,0.729 0.57,1.072 0.59,1.011 1.336,1.934 2.243,2.758 0.369,0.345 0.746,0.669 1.162,0.961 1.01,0.702 2.135,1.247 3.363,1.625 0.678,0.21 1.337,0.352 1.988,0.413 1.493,0.159 2.988,0.069 4.499,-0.264 0.475,-0.104 0.916,-0.255 1.372,-0.385 1.45,-0.406 2.759,-1.171 3.798,-2.26 0.737,-0.775 1.318,-1.653 1.738,-2.638 0.229,-0.536 0.397,-1.011 0.494,-1.431 0.123,-0.494 0.238,-1.037 0.273,-1.54 0.053,-0.765 0.043,-1.469 -0.026,-2.1 -0.106,-0.923 -0.378,-1.82 -0.809,-2.68 -0.369,-0.739 -0.888,-1.363 -1.573,-1.89 -1.037,-0.793 -2.189,-1.118 -3.481,-0.968 -0.59,0.071 -1.214,0.282 -1.713,0.624 -0.942,0.659 -1.461,1.592 -1.556,2.777 -0.045,0.563 0,1.127 0.139,1.698 0.272,1.08 0.728,2.109 1.38,3.094 0.028,0.043 0.018,0.097 -0.026,0.123 -0.017,0.009 -0.036,0.016 -0.052,0.016 -1.11,0.01 -2.173,-0.052 -3.236,-0.307 -1.107,-0.255 -2.319,-0.826 -3.235,-1.573 -1.037,-0.843 -1.792,-1.915 -2.267,-3.209 -0.255,-0.702 -0.395,-1.396 -0.423,-2.083 -0.007,-0.359 -0.016,-0.702 -0.007,-1.044 0.017,-0.668 0.113,-1.32 0.307,-1.962 0.51,-1.722 1.459,-3.163 2.839,-4.324 1.688,-1.415 3.849,-2.1 6.064,-2.163 1.089,-0.036 2.137,0.044 3.148,0.23 0.983,0.175 1.97,0.403 2.945,0.685 0.052,0.017 0.114,-0.018 0.121,-0.07 0.009,-0.019 0.009,-0.036 0,-0.052 -0.395,-1.408 -0.56,-2.858 -0.499,-4.362 0.034,-1.018 0.183,-1.915 0.421,-2.706 0.132,-0.43 0.264,-0.87 0.449,-1.283 0.299,-0.704 0.632,-1.381 1.01,-2.04 0.395,-0.695 0.784,-1.337 1.143,-1.906 0.43,-0.687 0.713,-1.136 0.827,-1.346 0.158,-0.291 0.324,-0.579 0.484,-0.862 0.342,-0.605 0.666,-1.292 0.973,-2.064 0.054,-0.125 0.09,-0.239 0.116,-0.352 0.033,-0.123 0.052,-0.343 0.132,-0.449 0.017,-0.019 0.045,-0.026 0.059,-0.009 0.01,0 0.01,0.009 0.01,0.009 0.158,0.272 0.219,0.581 0.335,0.869 0.43,1.11 0.992,2.137 1.608,3.157 0.466,0.764 0.923,1.512 1.38,2.268 0.59,0.975 1.161,2.057 1.548,3.075 0.14,0.38 0.281,0.836 0.421,1.372 0.115,0.439 0.158,0.871 0.229,1.31 0.158,0.914 0.13,1.906 0.026,2.865 -0.097,0.836 -0.255,1.653 -0.465,2.454 -0.01,0.016 0,0.033 0.009,0.052 0.033,0.052 0.095,0.07 0.175,0.052 0.975,-0.281 1.889,-0.482 2.829,-0.659 1.663,-0.317 3.481,-0.343 5.134,-0.008 1.961,0.395 3.736,1.354 5.071,2.83 0.255,0.281 0.503,0.597 0.73,0.949 0.668,1.02 1.081,1.996 1.329,3.129 0.097,0.44 0.149,0.844 0.175,1.222 0.052,0.967 -0.054,1.908 -0.326,2.838 -0.115,0.397 -0.255,0.765 -0.422,1.091 -0.825,1.696 -2.136,2.91 -3.928,3.649 -1.398,0.579 -2.954,0.763 -4.511,0.711 0.028,0.043 0.012,0.035 0.002,0.026"
     style="fill:#1b445f;fill-opacity:1;fill-rule:nonzero"
     id="path7" /><path
     id="path9"
     clip-path="none"
     style="fill:#1b445f;fill-opacity:1;fill-rule:nonzero"
     d="M 455.6008 407.85857 C 453.47305 407.87132 451.17572 408.02219 448.70822 408.31169 C 442.10223 409.08769 435.46138 410.50927 428.78439 412.57927 C 420.0684 415.28327 411.58526 418.58557 403.33127 422.48357 C 376.26529 435.26456 351.3428 452.25388 327.80783 470.63787 C 326.57483 471.59787 325.31186 472.42434 324.01486 473.11833 C 316.42587 477.18333 308.66941 480.92781 300.74142 484.3488 C 295.61143 486.5628 290.34696 488.39235 284.80197 489.28435 C 270.95398 491.50535 257.09339 494.36939 244.07541 499.61638 C 235.13142 503.22038 226.72132 508.16345 219.87033 515.15544 C 218.47433 516.57944 217.28683 518.16988 216.30783 519.92888 C 213.07983 525.70888 208.91401 535.82353 215.384 540.86052 C 217.115 542.21252 219.28386 543.08562 221.88986 543.48162 C 226.83185 544.23362 231.46654 543.95387 236.02853 543.26287 C 244.91952 541.91587 253.81023 540.57824 262.70822 539.24724 C 271.07921 537.99324 278.04671 536.83086 283.6047 535.76287 C 286.7207 535.16087 288.77386 534.64794 289.76486 534.21794 C 300.05085 529.73195 310.6199 525.69175 321.47189 522.10076 C 324.83589 520.98976 328.23044 519.98218 331.65744 519.08318 C 334.11344 518.43918 336.17227 518.08491 337.83127 518.01091 C 341.62326 517.84991 346.61112 517.82188 352.79611 517.92888 C 355.20311 517.96888 357.53621 518.20587 359.7922 518.63787 C 360.6182 518.79787 361.43275 519.05912 362.22775 519.41912 C 362.28675 519.44712 362.33705 519.4863 362.38205 519.5363 C 362.42905 519.5963 362.46542 519.65032 362.49142 519.70232 C 362.50242 519.71832 362.51095 519.74082 362.51095 519.76482 C 362.51695 519.84482 362.45423 519.91316 362.37423 519.91716 C 361.86023 519.94416 361.36895 519.9556 360.88595 519.9406 C 356.94596 519.8246 353.02042 519.67815 349.11642 519.50115 C 344.08843 519.27615 339.18085 519.75655 334.38986 520.94255 C 319.72087 524.57455 305.59022 529.37495 291.99923 535.34294 C 291.17124 535.70394 290.26925 535.96982 289.29025 536.13982 C 274.80626 538.63782 260.6655 541.10045 246.86252 543.53044 C 240.29152 544.68944 232.64399 545.63179 225.509 545.55779 C 221.49 545.51279 218.07214 545.01947 214.62814 543.36248 C 210.40314 541.33148 209.28383 535.81922 209.43283 531.45623 C 209.59283 526.73923 211.08811 522.10497 213.92111 517.54998 C 214.03111 517.37298 213.98358 517.26952 213.77658 517.23552 C 197.88859 514.81952 181.87273 513.73634 165.72775 513.99333 C 156.04976 514.16133 147.2933 515.13798 139.45431 516.92498 C 129.15332 519.27797 117.47835 523.93964 112.82736 534.27263 C 112.49336 535.09763 112.19578 535.93626 111.93478 536.78826 C 111.92378 536.82026 111.73533 537.28012 111.37033 538.16912 C 110.45633 540.36411 112.90966 541.97826 114.60666 542.78826 C 118.88465 544.73125 123.80293 545.63582 128.42892 546.26482 C 137.53291 547.49382 146.68751 547.80365 155.8215 548.68865 C 169.59649 550.02665 183.24683 552.18626 196.76681 555.16326 C 201.79781 556.27426 207.25124 557.47935 213.12423 558.78435 C 218.80823 560.04535 224.34004 560.18251 230.34103 560.19451 C 239.62602 560.21251 248.00852 560.27233 255.48752 560.36833 C 266.7665 560.51633 275.67313 560.9053 282.21213 561.5363 C 286.97612 561.9953 290.53214 562.48043 292.87814 562.98943 C 296.71114 563.81543 299.78022 564.43576 302.08322 564.85076 C 307.70821 565.86376 313.15121 566.13512 318.4172 565.66912 C 327.88319 564.82812 337.36698 562.14211 346.42697 559.16912 C 353.17096 556.95612 359.63818 554.73968 365.83517 552.52068 C 380.11116 547.40568 394.03195 542.41988 407.59494 537.55388 C 424.24192 531.58089 441.79427 525.51552 459.16525 521.36052 C 462.12525 520.65552 465.47889 520.05751 469.22189 519.56951 C 473.70589 518.98351 477.93358 519.25591 481.90158 520.38591 C 484.59358 521.15091 487.20652 522.10982 489.73752 523.26482 C 492.75178 524.63856 495.73876 526.17596 498.70627 527.84099 C 523.24855 505.61785 543.96972 479.43108 559.81759 450.30388 C 558.68793 449.36477 557.2676 448.40939 555.49923 447.43669 C 546.69424 442.5857 537.79873 437.91592 528.81173 433.42693 C 516.20775 427.05993 504.24233 421.68583 492.91134 417.30583 C 485.48635 414.43584 478.4994 412.15018 471.95041 410.45818 C 467.87041 409.40218 464.37784 408.65957 461.47384 408.23357 C 459.68635 407.97107 457.72854 407.84582 455.6008 407.85857 z "
     transform="translate(4.4285,2.362134)" /><path
     d="m 274.114,449.794 c 8.198,3.674 15.632,6.232 22.3,7.673 2.457,0.526 4.926,0.964 7.385,1.316 4.693,0.67 9.419,1.489 14.177,2.455 3.862,0.786 8.252,1.945 11.498,4.114 0.093,0.063 0.119,0.186 0.058,0.279 -0.015,0.024 -0.037,0.047 -0.065,0.062 -8.274,4.925 -16.902,10.145 -25.128,14.482 -0.737,0.393 -1.612,0.849 -2.491,0.581 -0.918,-0.281 -1.767,-0.609 -2.547,-0.987 -5.107,-2.491 -10.353,-5.091 -15.427,-7.267 -14.41,-6.18 -29.604,-10.739 -45.585,-13.682 -0.307,-0.058 -0.603,-0.175 -0.865,-0.348 -4.369,-2.882 -8.848,-5.678 -13.436,-8.388 -5.293,-3.127 -9.829,-5.506 -13.612,-7.135 -0.135,-0.06 -0.195,-0.162 -0.18,-0.305 0.819,-7.195 5.426,-12.228 12.842,-12.781 2.108,-0.155 4.256,-0.039 6.443,0.35 4.464,0.793 8.991,2.312 13.578,4.553 4.493,2.191 9.236,4.538 14.227,7.044 5.512,2.764 11.122,5.426 16.828,7.984"
     style="fill:#1b445f;fill-opacity:1;fill-rule:nonzero"
     id="path10"
     clip-path="none"
     transform="translate(4.4285,2.362134)" /><path
     d="m 151.055,456.685 -14.123,-3.537 c -0.358,-0.089 -0.601,-0.422 -0.579,-0.789 0.067,-1.123 0.389,-2.251 0.968,-3.39 3.196,-6.282 9.756,-10.266 16.561,-11.692 5.669,-1.005 11.365,-0.856 17.089,0.445 4.873,1.109 9.594,2.666 14.16,4.667 10.916,4.787 22.048,9.015 33.224,12.634 12.008,3.89 22.161,6.703 30.454,8.438 14.518,3.038 29.093,7.563 42.053,14.464 2.44,1.297 4.853,2.576 7.241,3.832 0.063,0.036 0.089,0.116 0.056,0.179 -0.011,0.022 -0.03,0.041 -0.049,0.054 -4.92,2.923 -9.97,4.497 -15.886,5.296 -6.494,0.88 -13.289,1.945 -19.329,3.708 -0.132,0.035 -0.263,0.035 -0.391,-0.004 -6.286,-1.93 -13.176,-3.786 -20.668,-5.571 -5.52,-1.316 -10.899,-2.199 -16.139,-2.643 -1.128,-0.099 -2.88,-0.501 -5.259,-1.207 -3.528,-1.046 -7.018,-2.2 -10.475,-3.466 -13.546,-4.953 -26.87,-10.497 -40.29,-15.791 -3.343,-1.32 -6.457,-2.44 -9.344,-3.365 -2.861,-0.912 -6.182,-1.508 -9.274,-2.262"
     style="fill:#1b445f;fill-opacity:1;fill-rule:nonzero"
     id="path11"
     clip-path="none"
     transform="translate(4.4285,2.362134)" /><path
     d="m 150.643,458.963 c 12.759,3.594 25.301,7.824 37.626,12.689 7.915,3.128 15.948,6.289 24.101,9.488 3.14,1.235 6.673,2.286 10.32,3.059 8.877,1.876 17.747,3.782 26.612,5.718 2.973,0.648 6.011,1.374 9.114,2.184 0.625,0.164 0.616,0.27 -0.03,0.322 -16.391,1.284 -31.696,9.778 -42.345,22.198 -0.09,0.102 -0.222,0.153 -0.356,0.136 -7.021,-1.031 -13.898,-1.675 -20.876,-2.027 -0.575,-0.028 -1.177,-0.199 -1.802,-0.512 -9.954,-4.991 -20.013,-9.754 -30.173,-14.291 -13.596,-6.167 -27.455,-11.833 -41.703,-16.323 -5.214,-1.644 -10.253,-2.82 -15.117,-3.529 l -2.334,-0.203 c -0.127,-0.012 -0.19,-0.08 -0.19,-0.209 -0.002,-4.369 1.063,-8.499 3.194,-12.392 2.988,-5.028 7.405,-8.192 13.252,-9.495 3.991,-0.886 8.023,-1.085 12.096,-0.59 6.279,0.763 12.479,2.273 18.611,3.777"
     style="fill:#1b445f;fill-opacity:1;fill-rule:nonzero"
     id="path12"
     clip-path="none"
     transform="translate(4.4285,2.362134)" /><path
     id="path13"
     clip-path="none"
     style="fill:#ffc829;fill-rule:nonzero"
     d="M 344.04372 0.017352 C 336.03074 -0.056397852 328.01637 0.10689983 320.01637 0.57789887 L 314.01247 0.85133637 L 308.02614 1.3513364 L 302.04177 1.8513364 C 300.04577 2.045336 298.04344 2.1428368 296.05544 2.4138364 L 295.74684 2.4509457 L 294.48317 2.345477 L 288.49684 1.8435239 L 282.49294 1.5720395 C 266.49596 0.63104138 250.43793 0.91463524 234.44997 1.8806332 L 222.46755 2.8552426 L 220.97341 2.9782895 L 219.47927 3.1716489 L 216.50075 3.5564145 L 210.53981 4.3318051 L 207.86794 4.673602 C 200.98431 6.831372 194.22568 9.2523105 187.56911 11.874774 L 187.65309 12.28493 L 199.34255 10.175555 C 201.29353 9.833556 203.23606 9.4382108 205.19606 9.1482114 L 211.0945 8.4001645 L 216.99294 7.6540707 L 219.9363 7.2849301 L 221.41481 7.1013364 L 222.89138 6.986102 L 234.73903 6.064227 C 247.33696 5.349513 259.97948 5.0663599 272.60231 5.5407895 L 272.24489 5.5974301 L 266.3113 6.5193051 C 264.3343 6.8373045 262.37309 7.241337 260.40309 7.6013364 C 256.47511 8.3583348 252.52811 9.0421505 248.61013 9.8591489 L 236.87575 12.417743 C 234.91575 12.821741 232.97103 13.306791 231.03005 13.790789 L 225.19216 15.220477 C 222.60158 15.863413 220.02287 16.552246 217.44216 17.232196 C 199.75212 18.091823 182.10937 19.723364 164.56911 22.068133 C 160.89451 23.883909 157.25443 25.752877 153.66872 27.710711 C 167.68425 25.796387 181.75647 24.335921 195.85817 23.374774 C 182.97774 27.307499 170.22388 31.656923 157.61989 36.407977 C 152.44262 37.122527 147.25627 37.773493 142.11208 38.698993 C 138.82511 39.21424 135.56812 39.884641 132.29958 40.495868 C 129.50277 42.338897 126.78017 44.276776 124.05153 46.208758 C 129.06302 45.306201 134.08614 44.470322 139.11989 43.708758 C 137.4667 44.387332 135.80686 45.049038 134.15895 45.740008 C 126.38611 49.003594 118.68222 52.426452 111.02028 55.94704 C 102.59194 62.629461 94.52633 69.728458 86.891375 77.25368 C 89.334931 75.873466 91.7179 74.393212 94.182391 73.050555 C 108.09537 65.472571 122.39699 58.590512 136.90895 52.218524 C 146.36208 48.072973 155.91796 44.155718 165.55348 40.445086 C 176.43017 39.392539 187.33197 38.678196 198.24684 38.359149 L 196.56325 38.839618 L 192.90895 40.03493 L 178.26442 44.818133 L 163.79763 50.116961 C 162.59263 50.565961 161.37039 50.978665 160.18239 51.462665 L 149.47731 55.812274 C 130.49035 63.688258 111.94757 72.664122 94.006609 82.736102 C 84.762562 87.915117 75.693705 93.411046 66.797625 99.183368 C 59.689801 107.75406 53.101537 116.74372 47.004656 126.07595 C 47.536994 125.66243 48.055002 125.2321 48.588641 124.82009 C 64.657609 112.66511 81.479942 101.49302 98.910906 91.32204 C 116.34887 81.16206 134.41118 72.057195 152.94216 64.023211 L 159.91286 61.052508 L 163.40114 59.56618 C 164.56114 59.075182 165.74753 58.652272 166.92653 58.187274 L 181.06716 52.745868 L 195.40505 47.814227 L 198.98903 46.583758 L 202.62184 45.486102 L 217.14138 41.089618 C 219.57636 40.404618 222.02847 39.798258 224.47145 39.146258 L 227.30544 38.407977 C 234.42319 38.634096 241.53613 38.966203 248.63552 39.517352 C 257.05102 40.149974 265.43598 41.065015 273.80348 42.111102 C 273.74708 42.123281 273.68995 42.132069 273.63356 42.144305 C 270.70758 42.768305 267.77908 43.349776 264.86208 43.999774 L 256.1238 46.013446 C 253.2048 46.663444 250.32458 47.45479 247.42458 48.16579 C 235.8386 51.129784 224.32318 54.354546 212.9402 58.00954 C 201.54722 61.639532 190.24495 65.560048 179.07497 69.82204 C 167.90199 74.10403 156.84393 78.666362 145.90895 83.517352 C 124.03101 93.205332 102.69129 104.10492 81.893328 115.9529 C 71.48735 121.87788 61.255824 128.09145 51.121844 134.47243 C 46.019145 137.69216 40.952636 140.97333 35.926531 144.31813 C 30.5647 154.00843 25.812277 164.0608 21.574969 174.37087 C 24.579779 172.01259 27.569646 169.63537 30.623797 167.33766 C 49.362759 153.2297 68.823571 140.02766 88.926531 127.87868 C 109.01849 115.7237 129.68554 104.47214 150.92848 94.400165 C 161.53846 89.362175 172.28816 84.591375 183.15114 80.099383 C 194.02412 75.616393 205.03744 71.475188 216.13942 67.607196 C 243.02393 58.278606 270.62586 50.938634 298.63942 45.782977 C 328.47036 50.964547 357.85511 58.642632 386.43239 68.558368 C 397.54137 72.43436 408.54774 76.57361 419.41872 81.048602 C 430.2827 85.530594 441.02535 90.304393 451.64333 95.349383 C 472.87829 105.42136 493.54532 116.67292 513.64528 128.8279 C 533.74724 140.98388 553.20801 154.18792 571.94997 168.28688 C 573.16053 169.19791 574.33337 170.15496 575.53591 171.07595 C 571.21889 160.93005 566.32224 151.08514 560.91091 141.55446 C 557.76361 139.50152 554.62805 137.4304 551.45192 135.4236 C 541.31794 129.04062 531.08546 122.82516 520.67848 116.90016 C 499.88154 105.0522 478.54082 94.144504 456.66286 84.468524 C 445.72888 79.615534 434.67173 75.053203 423.50075 70.773211 C 412.32777 66.511221 401.02362 62.599752 389.62966 58.958758 C 378.24868 55.294766 366.72517 52.077002 355.14919 49.115008 C 352.24719 48.40401 349.36506 47.612711 346.44606 46.960711 L 337.71169 44.948993 C 334.79169 44.298993 331.85725 43.709475 328.93825 43.095477 C 326.93247 42.660215 324.91119 42.290614 322.89333 41.90993 C 333.20374 40.501961 343.55211 39.346924 353.93825 38.56618 C 358.88331 38.182481 363.83683 37.922923 368.79177 37.69704 L 370.71559 38.198993 L 378.05739 40.113055 C 380.50039 40.765053 382.95052 41.371415 385.38552 42.056415 L 392.64528 44.25368 L 399.90895 46.450946 L 403.53786 47.550555 L 407.12575 48.781024 L 421.45973 53.712665 L 435.60231 59.152118 C 436.77131 59.608116 437.9677 60.031979 439.1277 60.532977 L 442.61598 62.017352 L 449.58669 64.988055 C 468.11365 73.031039 486.17996 82.12981 503.61794 92.29079 C 519.1946 101.37993 534.26084 111.31389 548.75856 121.99196 C 542.59267 112.88941 535.93258 104.14119 528.79372 95.79079 C 522.11937 91.615279 515.37855 87.548386 508.51442 83.702899 C 490.56646 73.620919 472.02673 64.655055 453.04177 56.779071 L 442.33669 52.429461 C 441.13969 51.945463 439.92841 51.531758 438.72341 51.083758 L 424.25661 45.782977 L 409.61012 41.001727 L 405.95583 39.806415 L 402.25466 38.751727 L 397.13161 37.292743 C 408.18587 37.449649 419.23305 37.977347 430.25856 38.890399 C 442.17455 43.327681 453.96294 48.10631 465.60036 53.212665 C 480.00353 59.53688 494.19608 66.360177 508.01052 73.880633 C 500.66047 66.870077 492.9352 60.24233 484.88161 53.995868 C 479.39105 51.529479 473.90126 49.060764 468.35231 46.734149 C 464.23775 45.007873 460.10318 43.330651 455.95583 41.683368 C 461.08038 42.379434 466.18676 43.207197 471.28981 44.052508 C 468.33045 42.012544 465.33659 40.021987 462.29958 38.085711 C 461.68402 37.985718 461.07598 37.845946 460.45973 37.749774 C 454.59875 36.694776 448.68295 35.974444 442.78395 35.138446 C 440.83996 34.873803 438.88914 34.676176 436.9402 34.466571 C 424.27462 29.877952 411.46736 25.685978 398.53005 21.939227 C 412.88667 22.72718 427.2105 24.116352 441.49098 25.886493 C 437.66724 23.860304 433.78586 21.926001 429.86403 20.060321 C 411.92557 17.886975 393.8913 16.450662 375.81716 15.84743 L 371.48122 14.782977 C 369.53722 14.298977 367.5975 13.814883 365.63552 13.411883 L 353.89919 10.853289 C 349.98119 10.036291 346.0352 9.3495223 342.10622 8.5935239 C 340.13622 8.2345245 338.17697 7.828492 336.19997 7.5114926 L 330.26442 6.5915707 L 324.33473 5.6677426 L 321.36012 5.2126645 C 320.9165 5.1491601 320.47209 5.1004937 320.02809 5.0466489 L 320.24489 5.0349301 C 336.06785 3.9019325 351.95049 4.1630882 367.76247 5.0700864 L 379.61208 5.9919614 L 381.0945 6.1071957 L 382.57302 6.2927426 L 385.51833 6.6599301 L 391.41481 7.4060239 L 397.31325 8.1540707 C 399.27525 8.4450703 401.21572 8.8503215 403.16872 9.1853207 L 404.53981 9.4333676 C 396.92852 6.6313263 389.15825 4.1608229 381.26637 1.9626645 L 380.04177 1.861102 L 368.0613 0.88649262 C 360.0683 0.4034936 352.0567 0.091101852 344.04372 0.017352 z M 296.27809 7.1091489 L 300.03786 7.4607114 C 302.00686 7.663711 303.99389 7.7761807 305.95387 8.0661801 L 317.75075 9.5974301 C 318.73575 9.7284299 319.71711 9.8429616 320.69411 9.9919614 L 323.62966 10.476336 L 329.5027 11.44118 L 335.36208 12.40993 C 337.31308 12.74293 339.25897 13.173696 341.19997 13.544696 C 344.55412 14.224311 347.90336 14.865735 351.24684 15.564227 C 343.79516 15.619025 336.34213 15.763473 328.89333 16.099383 C 323.76033 16.187383 318.66339 16.697899 313.55739 17.077899 L 305.89137 17.673602 C 303.34339 17.895602 300.77612 18.007149 298.23512 18.359149 C 297.54826 18.444054 296.85985 18.52421 296.17262 18.607196 L 288.96364 18.042743 C 283.85766 17.666743 278.75756 17.15518 273.63356 17.06618 C 263.34799 16.605096 253.05617 16.416558 242.76833 16.488055 L 249.64723 14.896258 C 253.52223 14.05226 257.4263 13.341553 261.3113 12.550555 C 263.25228 12.172557 265.19528 11.750741 267.14528 11.417743 L 273.00856 10.448993 L 278.88161 9.4821957 L 281.81716 8.9997739 C 282.79216 8.8507741 283.77747 8.7332893 284.76247 8.6032895 L 296.27809 7.1091489 z M 359.61403 21.00368 C 364.45412 20.957999 369.29618 20.97914 374.13747 21.050555 L 375.97341 21.532977 C 387.88556 24.694457 399.68401 28.268708 411.36403 32.19118 C 409.9683 32.115685 408.57597 32.026076 407.17653 31.939227 C 401.22555 31.535227 395.25756 31.475446 389.29958 31.263446 L 380.34841 31.210711 L 375.87575 31.185321 L 374.02028 31.220477 L 372.50075 30.849383 L 368.76442 29.937274 L 366.89333 29.478289 L 365.01247 29.091571 L 349.92848 26.023211 L 346.15895 25.259539 L 342.36208 24.644305 L 334.76637 23.415789 C 332.11149 22.937167 329.43577 22.616107 326.76833 22.230243 C 327.58899 22.183767 328.40764 22.097019 329.22927 22.070086 C 339.344 21.452588 349.47563 21.099368 359.61403 21.00368 z M 242.91091 21.970477 C 250.68086 22.043877 258.44513 22.317994 266.20387 22.697039 L 260.15895 23.677508 L 256.36012 24.292743 L 252.59059 25.058368 L 237.50856 28.126727 L 235.62575 28.513446 L 233.75466 28.968524 L 230.01833 29.882586 L 222.53786 31.710711 C 221.92273 31.865298 221.30679 32.01966 220.6902 32.169696 L 213.27419 32.212665 C 207.30619 32.415663 201.34628 32.485399 195.39528 32.890399 C 192.42428 33.075399 189.44436 33.187555 186.47536 33.425555 L 184.12575 33.620868 C 196.1117 29.43161 208.2263 25.622718 220.45973 22.224383 C 227.94316 22.01602 235.42797 21.899788 242.91091 21.970477 z M 296.98708 25.054461 C 299.18225 25.258275 301.3854 25.407428 303.57106 25.75368 C 313.60104 27.158678 323.66424 28.309309 333.60622 30.269305 L 341.07692 31.59743 L 344.81325 32.265399 L 345.50075 32.417743 C 336.25988 33.031244 327.02815 33.787343 317.83669 34.94704 L 313.39137 35.47243 L 308.95192 36.09743 C 305.99792 36.52743 303.03483 36.907821 300.08083 37.372821 L 298.12184 37.693133 C 296.62099 37.483028 295.11991 37.264864 293.62184 37.046649 L 289.18239 36.423602 L 284.73512 35.894305 C 273.33075 34.463945 261.86547 33.557902 250.39333 32.911883 L 254.00661 32.116961 L 257.71559 31.298602 L 261.45192 30.630633 L 268.92262 29.302508 C 278.21425 27.472597 287.61144 26.341665 296.98708 25.054461 z "
     transform="translate(0.7805,31.748273)" /><path
     d="m 263.8655,247.88613 c -0.312,-0.551 -0.504,-0.512 -0.575,0.117 -0.834,7.308 -4.287,13.851 -10.465,17.485 -5.449,3.2 -12.152,3.213 -17.541,-0.181 -7.289,-4.577 -10.594,-13.622 -9.477,-22.135 0.615,-4.674 2.314,-9.13 5.097,-13.363 6.316,-9.596 18.071,-8.507 27.593,-4.35 11.323,4.949 21.554,12.505 30.945,21.055 0.244,0.223 0.447,0.476 0.613,0.759 0.08,0.144 0.029,0.324 -0.112,0.406 -0.021,0.011 -0.045,0.021 -0.067,0.028 l -22.829,6.634 c -0.231,0.071 -0.384,-0.009 -0.458,-0.24 -0.737,-2.241 -1.644,-4.313 -2.724,-6.215"
     style="fill:#1b445f;fill-opacity:1;fill-rule:nonzero"
     id="path20" /><path
     d="m 293.5955,315.68513 c 8.348,2.924 15.984,5.923 22.907,8.996 3.905,1.722 12.943,6.197 12.647,11.558 -0.389,6.964 -10.398,6.927 -15.024,6.333 -5.149,-0.668 -10.445,-1.614 -15.884,-2.843 -8.118,-1.828 -16.076,-3.829 -24.231,-4.367 -6.882,-0.456 -13.678,0.901 -15.785,8.446 -0.799,2.867 -1.048,5.72 -0.749,8.563 0.486,4.612 1.206,9.385 2.158,14.314 1.21,6.326 2.248,15.791 -5.177,18.554 -11.024,4.108 -15.242,-9.175 -17.195,-16.88 -1.383,-5.452 -2.421,-10.609 -3.114,-15.469 -1.227,-8.6 -2.625,-19.179 -4.194,-31.738 -0.958,-7.647 -3.064,-15.211 -5.957,-22.284 -6.932,-16.953 -16.705,-32.954 -25.472,-48.851 -2.385,-4.33 -4.296,-8.423 -5.733,-12.282 -1.13,-3.027 -2.534,-7.964 -0.557,-10.892 1.096,-1.623 2.625,-2.464 4.585,-2.526 6.493,-0.193 12.678,11.028 15.396,16.031 2.958,5.441 5.927,10.909 8.909,16.404 2.569,4.732 5.33,8.968 8.278,12.708 2.212,2.798 5.858,6.098 9.602,6.363 5.936,0.415 12.905,-1.914 18.62,-4.096 6.305,-2.41 12.096,-4.521 17.373,-6.34 8.243,-2.835 18.491,-5.071 25.931,-0.376 3.656,2.312 -1.335,4.82 -3.274,5.585 -4.965,1.949 -10.11,3.886 -15.441,5.815 -6.518,2.366 -19.529,7.684 -20.883,15.426 -0.35,2.01 0.149,4.192 1.497,6.549 3.088,5.405 8.347,8.088 13.931,10.608 5.144,2.327 10.756,4.557 16.836,6.691"
     style="fill:#1b445f;fill-opacity:1;fill-rule:nonzero"
     id="path21" /><path
     d="m 359.2985,286.55513 c -3.322,-0.346 -6.636,-0.871 -9.94,-1.577 -0.123,-0.026 -0.199,-0.149 -0.173,-0.271 0.011,-0.053 0.041,-0.097 0.08,-0.129 l 12.079,-9.212 c 0.14,-0.105 0.164,-0.302 0.062,-0.441 -0.038,-0.045 -0.082,-0.082 -0.134,-0.103 l -8.466,-3.293 c -1.013,-0.394 -1.004,-0.767 0.024,-1.117 9.108,-3.095 19.813,-5.141 29.076,-3.468 6.64,1.199 10.625,4.598 14.11,10.257 3.829,6.227 4.894,12.842 3.187,19.844 -0.942,3.858 -2.738,7.151 -5.387,9.873 -5.078,5.214 -11.046,6.804 -17.904,4.769 -7.574,-2.254 -12.598,-9.991 -13.665,-17.725 -0.05,-0.38 -0.257,-0.505 -0.618,-0.376 -2.524,0.893 -5.011,1.716 -7.457,2.47 -0.166,0.05 -0.335,0.058 -0.506,0.026 -0.094,-0.022 -0.151,-0.113 -0.133,-0.208 0.006,-0.021 0.013,-0.041 0.026,-0.058 l 6.024,-8.637 c 0.125,-0.185 0.08,-0.432 -0.098,-0.557 -0.056,-0.037 -0.12,-0.061 -0.187,-0.067"
     style="fill:#1b445f;fill-opacity:1;fill-rule:nonzero"
     id="path22" /><path
     d="m 429.1375,288.76013 c -3.146,6.059 -7.147,13.032 -11.998,20.92 -6.846,11.126 -13.549,22.914 -18.678,35.042 -3.034,7.178 -5.087,14.386 -6.158,21.617 -1.269,8.595 -2.563,17.057 -3.881,25.385 -0.999,6.352 -2.221,12.478 -3.663,18.381 -0.91,3.736 -2.171,7.429 -3.781,11.077 -2.656,6.006 -7.396,11.553 -14.741,8.305 -3.727,-1.644 -5.627,-4.833 -5.696,-9.565 -0.05,-3.2 0.344,-6.673 1.18,-10.415 0.972,-4.341 1.709,-8.468 2.212,-12.377 0.655,-5.065 0.122,-11.507 -3.874,-15.011 -3.461,-3.034 -9.712,-3.282 -14.136,-2.848 -11.929,1.154 -23.989,4.36 -35.709,5.843 -3.954,0.503 -7.662,0.468 -11.121,-0.104 -2.332,-0.385 -4.127,-1.472 -5.387,-3.269 -4.313,-6.146 5.158,-11.152 9.354,-13.134 4.282,-2.027 9.114,-3.965 14.494,-5.814 7.473,-2.57 14.426,-4.992 20.85,-7.265 3.995,-1.409 7.945,-3.055 11.85,-4.937 5.129,-2.472 9.514,-6.05 10.966,-11.595 2.273,-8.719 -10.465,-17.059 -16.699,-20.607 -5.099,-2.894 -10.817,-5.995 -17.152,-9.303 -2.932,-1.532 -5.683,-3.317 -8.254,-5.356 -1.779,-1.414 -2.848,-3.793 -0.783,-5.584 8.544,-7.433 22.328,-0.495 30.316,4.263 8.352,4.972 16.576,10.891 25.536,15.215 2.328,1.13 4.787,1.966 7.369,2.51 5.38,1.135 9.576,-2.372 12.783,-6.253 2.746,-3.321 5.365,-7.131 7.85,-11.435 2.923,-5.06 5.946,-10.346 9.073,-15.86 2.243,-3.958 4.749,-7.714 7.518,-11.269 2.223,-2.854 6.769,-7.013 10.762,-5.134 4.138,1.952 4.212,5.999 3.095,9.817 -0.902,3.085 -2.068,6.005 -3.497,8.76"
     style="fill:#1b445f;fill-opacity:1;fill-rule:nonzero"
     id="path23" /></svg>
