<?xml version="1.0" encoding="UTF-8" standalone="no"?><!DOCTYPE svg PUBLIC "-//W3C//DTD SVG 1.1//EN" "http://www.w3.org/Graphics/SVG/1.1/DTD/svg11.dtd"><svg width="100%" height="100%" viewBox="0 0 596 596" version="1.1" xmlns="http://www.w3.org/2000/svg" xmlns:xlink="http://www.w3.org/1999/xlink" xml:space="preserve" xmlns:serif="http://www.serif.com/" style="fill-rule:evenodd;clip-rule:evenodd;stroke-linejoin:round;stroke-miterlimit:2;"><g><path d="M284.445,137.867c0.026,-0.061 0.017,-0.122 -0.019,-0.176c-0.411,-0.669 -0.756,-1.38 -1.037,-2.117c-0.184,-0.493 -0.316,-1.039 -0.385,-1.547c-0.089,-0.687 -0.045,-1.442 0.184,-2.111c0.289,-0.862 0.985,-1.582 1.793,-1.977c0.352,-0.176 0.739,-0.29 1.152,-0.351c1.106,-0.159 2.145,0.052 3.12,0.633c0.518,0.307 0.959,0.685 1.327,1.133c0.317,0.385 0.624,0.836 0.834,1.301c0.477,1.037 0.749,2.18 0.765,3.34c0.01,0.59 -0.009,1.098 -0.061,1.521c-0.017,0.167 -0.078,0.474 -0.184,0.932c-0.062,0.246 -0.123,0.492 -0.201,0.73c-0.116,0.359 -0.194,0.596 -0.248,0.711c-0.298,0.737 -0.678,1.441 -1.143,2.066c-1.063,1.45 -2.487,2.461 -4.27,3.033c-0.978,0.316 -1.927,0.569 -2.919,0.675c-1.337,0.142 -2.735,0.133 -4.043,-0.158c-1.705,-0.378 -3.245,-1.072 -4.624,-2.092c-1.056,-0.782 -2.065,-1.819 -2.839,-2.936c-1.223,-1.766 -2.005,-3.708 -2.347,-5.854c-0.071,-0.402 -0.114,-0.808 -0.14,-1.195c-0.203,-3.042 0.473,-5.879 2.038,-8.509c0.414,-0.694 0.827,-1.318 1.24,-1.871c0.484,-0.651 1.054,-1.362 1.625,-2.005c0.898,-1.001 1.705,-1.844 2.418,-2.531c1.389,-1.335 3.04,-2.882 4.976,-4.632c1.344,-1.213 2.645,-2.47 4.015,-3.858c1.073,-1.082 2.076,-2.19 3.007,-3.323c0.387,-0.475 0.774,-0.985 1.143,-1.476c0.623,-0.819 1.258,-1.793 1.811,-2.735c1.001,-1.714 1.915,-3.479 2.759,-5.3c0.493,-1.062 0.984,-2.215 1.487,-3.454c0.026,-0.062 0.059,-0.097 0.113,-0.123c0.053,-0.017 0.105,-0 0.123,0.052c0,0.009 0,0.009 0.01,0.018c0.035,0.168 0.068,0.326 0.139,0.483c0.52,1.239 0.94,2.207 1.266,2.902c1.046,2.241 2.022,4.121 2.945,5.642c0.588,0.968 1.187,1.863 1.811,2.69c0.458,0.616 1.028,1.336 1.582,1.978c1.37,1.573 2.804,3.076 4.323,4.5c1.364,1.284 2.708,2.531 4.061,3.762c1.715,1.565 3.184,2.971 4.395,4.229c0.546,0.562 1.197,1.309 1.951,2.241c0.212,0.263 0.387,0.544 0.581,0.817c0.281,0.386 0.536,0.818 0.793,1.238c0.694,1.143 1.255,2.366 1.687,3.666c0.588,1.777 0.861,3.603 0.817,5.495c-0.01,0.413 -0.036,0.807 -0.08,1.185c-0.052,0.449 -0.131,0.94 -0.246,1.477c-0.035,0.15 -0.104,0.441 -0.236,0.861c-0.231,0.784 -0.484,1.45 -0.758,2.005c-0.182,0.369 -0.369,0.728 -0.57,1.072c-0.59,1.011 -1.336,1.935 -2.241,2.759c-0.37,0.343 -0.748,0.668 -1.161,0.959c-1.011,0.703 -2.136,1.247 -3.366,1.627c-0.676,0.21 -1.337,0.352 -1.988,0.413c-1.493,0.158 -2.988,0.069 -4.497,-0.264c-0.477,-0.105 -0.916,-0.255 -1.374,-0.388c-1.45,-0.403 -2.759,-1.169 -3.798,-2.257c-0.737,-0.775 -1.318,-1.653 -1.738,-2.638c-0.229,-0.536 -0.397,-1.011 -0.494,-1.434c-0.121,-0.491 -0.236,-1.036 -0.273,-1.537c-0.052,-0.765 -0.043,-1.469 0.028,-2.1c0.106,-0.923 0.378,-1.82 0.809,-2.682c0.369,-0.737 0.887,-1.363 1.572,-1.89c1.038,-0.791 2.189,-1.117 3.482,-0.966c0.589,0.071 1.222,0.281 1.713,0.624c0.94,0.659 1.459,1.589 1.556,2.777c0.045,0.562 0,1.126 -0.141,1.696c-0.272,1.081 -0.728,2.111 -1.38,3.094c-0.026,0.044 -0.016,0.098 0.028,0.124c0.015,0.008 0.034,0.017 0.052,0.017c1.108,0.009 2.171,-0.052 3.234,-0.307c1.107,-0.255 2.321,-0.826 3.235,-1.573c1.037,-0.845 1.793,-1.917 2.267,-3.209c0.255,-0.704 0.397,-1.398 0.423,-2.083c0.009,-0.361 0.019,-0.704 0.009,-1.046c-0.018,-0.669 -0.115,-1.318 -0.307,-1.96c-0.512,-1.722 -1.459,-3.165 -2.841,-4.325c-1.686,-1.414 -3.849,-2.099 -6.062,-2.163c-1.091,-0.035 -2.137,0.045 -3.148,0.229c-0.985,0.177 -1.972,0.404 -2.945,0.687c-0.052,0.017 -0.114,-0.018 -0.123,-0.071c-0.009,-0.018 -0.009,-0.035 0,-0.054c0.397,-1.405 0.562,-2.855 0.501,-4.359c-0.036,-1.018 -0.184,-1.916 -0.43,-2.707c-0.134,-0.432 -0.265,-0.869 -0.449,-1.284c-0.3,-0.702 -0.633,-1.38 -1.011,-2.039c-0.396,-0.694 -0.781,-1.336 -1.143,-1.908c-0.43,-0.685 -0.712,-1.133 -0.826,-1.344c-0.158,-0.29 -0.326,-0.58 -0.484,-0.861c-0.343,-0.605 -0.666,-1.292 -0.975,-2.067c-0.054,-0.122 -0.088,-0.236 -0.114,-0.35c-0.035,-0.122 -0.054,-0.344 -0.132,-0.448c-0.019,-0.019 -0.045,-0.026 -0.062,-0.01c-0.009,0 -0.009,0.01 -0.009,0.01c-0.158,0.272 -0.22,0.581 -0.333,0.869c-0.432,1.108 -0.994,2.137 -1.61,3.155c-0.466,0.765 -0.922,1.514 -1.38,2.269c-0.588,0.976 -1.159,2.057 -1.547,3.076c-0.141,0.379 -0.281,0.835 -0.42,1.372c-0.116,0.439 -0.158,0.871 -0.231,1.31c-0.156,0.914 -0.13,1.906 -0.026,2.865c0.099,0.836 0.257,1.653 0.467,2.451c0.009,0.019 0,0.036 -0.009,0.054c-0.036,0.053 -0.097,0.071 -0.175,0.053c-0.977,-0.282 -1.89,-0.484 -2.831,-0.659c-1.661,-0.317 -3.48,-0.343 -5.134,-0.01c-1.959,0.395 -3.735,1.355 -5.071,2.832c-0.255,0.281 -0.501,0.597 -0.73,0.949c-0.668,1.018 -1.081,1.995 -1.327,3.127c-0.097,0.441 -0.149,0.845 -0.175,1.223c-0.054,0.966 0.052,1.908 0.324,2.839c0.115,0.396 0.255,0.765 0.422,1.091c0.827,1.696 2.136,2.909 3.93,3.646c1.398,0.581 2.952,0.766 4.508,0.713c-0.009,0.043 0.01,0.034 0.01,0.026" style="fill:#f2f6ff;fill-rule:nonzero;"/><path d="M205.345,163.674c0.026,-0.062 0.019,-0.123 -0.016,-0.175c-0.414,-0.668 -0.758,-1.38 -1.037,-2.119c-0.186,-0.493 -0.317,-1.038 -0.388,-1.546c-0.087,-0.687 -0.044,-1.443 0.185,-2.111c0.29,-0.86 0.984,-1.581 1.792,-1.977c0.352,-0.177 0.739,-0.291 1.153,-0.352c1.105,-0.158 2.144,0.054 3.119,0.633c0.52,0.307 0.959,0.685 1.328,1.133c0.316,0.388 0.623,0.836 0.836,1.302c0.474,1.037 0.746,2.179 0.763,3.339c0.009,0.59 -0.008,1.098 -0.06,1.521c-0.018,0.168 -0.08,0.475 -0.186,0.933c-0.061,0.245 -0.123,0.491 -0.201,0.729c-0.115,0.36 -0.194,0.598 -0.248,0.711c-0.297,0.739 -0.675,1.441 -1.143,2.067c-1.062,1.45 -2.486,2.461 -4.27,3.032c-0.975,0.316 -1.926,0.571 -2.919,0.676c-1.336,0.141 -2.734,0.132 -4.043,-0.157c-1.705,-0.379 -3.242,-1.074 -4.624,-2.094c-1.055,-0.78 -2.064,-1.818 -2.838,-2.935c-1.222,-1.765 -2.005,-3.708 -2.348,-5.853c-0.069,-0.404 -0.113,-0.81 -0.139,-1.195c-0.203,-3.042 0.474,-5.88 2.038,-8.509c0.413,-0.694 0.826,-1.32 1.24,-1.872c0.484,-0.652 1.055,-1.363 1.625,-2.005c0.897,-1.002 1.707,-1.845 2.418,-2.53c1.389,-1.337 3.042,-2.883 4.976,-4.633c1.344,-1.214 2.645,-2.47 4.017,-3.859c1.07,-1.082 2.073,-2.189 3.004,-3.323c0.387,-0.475 0.774,-0.983 1.143,-1.476c0.626,-0.817 1.258,-1.793 1.811,-2.733c1.002,-1.714 1.916,-3.481 2.761,-5.301c0.491,-1.063 0.985,-2.215 1.485,-3.453c0.026,-0.064 0.062,-0.097 0.114,-0.125c0.054,-0.017 0.106,0 0.123,0.052c-0,0.009 -0,0.009 0.009,0.019c0.035,0.167 0.071,0.326 0.142,0.484c0.517,1.238 0.94,2.206 1.263,2.9c1.047,2.241 2.022,4.121 2.945,5.642c0.59,0.968 1.188,1.865 1.812,2.692c0.457,0.614 1.027,1.334 1.582,1.977c1.37,1.573 2.803,3.075 4.324,4.501c1.363,1.282 2.707,2.53 4.062,3.762c1.712,1.563 3.181,2.969 4.393,4.227c0.545,0.562 1.197,1.309 1.953,2.241c0.21,0.263 0.387,0.546 0.579,0.818c0.282,0.387 0.536,0.817 0.793,1.239c0.694,1.142 1.256,2.365 1.686,3.666c0.588,1.776 0.862,3.602 0.817,5.493c-0.009,0.413 -0.035,0.808 -0.078,1.186c-0.054,0.448 -0.132,0.942 -0.248,1.478c-0.035,0.149 -0.104,0.439 -0.236,0.86c-0.229,0.783 -0.484,1.45 -0.756,2.005c-0.184,0.368 -0.368,0.729 -0.571,1.072c-0.588,1.011 -1.337,1.934 -2.241,2.76c-0.371,0.343 -0.747,0.669 -1.162,0.959c-1.011,0.702 -2.135,1.247 -3.366,1.625c-0.675,0.21 -1.336,0.352 -1.986,0.413c-1.495,0.159 -2.987,0.071 -4.499,-0.264c-0.476,-0.104 -0.916,-0.255 -1.372,-0.385c-1.452,-0.406 -2.76,-1.169 -3.797,-2.26c-0.739,-0.775 -1.318,-1.653 -1.741,-2.638c-0.229,-0.536 -0.396,-1.011 -0.493,-1.431c-0.121,-0.494 -0.236,-1.037 -0.272,-1.538c-0.052,-0.767 -0.043,-1.469 0.026,-2.102c0.106,-0.923 0.378,-1.818 0.81,-2.68c0.369,-0.739 0.888,-1.363 1.573,-1.89c1.037,-0.793 2.189,-1.116 3.481,-0.967c0.588,0.07 1.212,0.281 1.712,0.623c0.942,0.659 1.46,1.592 1.557,2.777c0.044,0.563 -0,1.127 -0.14,1.698c-0.274,1.08 -0.73,2.109 -1.381,3.094c-0.026,0.043 -0.017,0.097 0.028,0.123c0.016,0.009 0.035,0.018 0.052,0.018c1.107,0.008 2.17,-0.054 3.235,-0.309c1.106,-0.255 2.32,-0.826 3.234,-1.573c1.038,-0.843 1.792,-1.915 2.267,-3.209c0.257,-0.702 0.396,-1.396 0.422,-2.083c0.01,-0.359 0.019,-0.702 0.01,-1.044c-0.019,-0.668 -0.114,-1.32 -0.307,-1.962c-0.511,-1.722 -1.46,-3.163 -2.841,-4.324c-1.687,-1.415 -3.85,-2.1 -6.063,-2.163c-1.091,-0.034 -2.137,0.044 -3.148,0.23c-0.984,0.175 -1.969,0.404 -2.945,0.685c-0.052,0.017 -0.113,-0.018 -0.122,-0.07c-0.01,-0.019 -0.01,-0.036 -0,-0.052c0.396,-1.408 0.562,-2.858 0.5,-4.362c-0.035,-1.018 -0.184,-1.915 -0.42,-2.706c-0.133,-0.43 -0.265,-0.87 -0.451,-1.283c-0.298,-0.704 -0.631,-1.379 -1.011,-2.04c-0.394,-0.695 -0.781,-1.337 -1.141,-1.906c-0.432,-0.687 -0.713,-1.136 -0.826,-1.346c-0.158,-0.291 -0.326,-0.579 -0.484,-0.862c-0.343,-0.605 -0.669,-1.292 -0.976,-2.064c-0.052,-0.125 -0.087,-0.239 -0.113,-0.352c-0.036,-0.123 -0.054,-0.343 -0.132,-0.449c-0.017,-0.017 -0.045,-0.026 -0.062,-0.009c-0.009,-0 -0.009,0.009 -0.009,0.009c-0.158,0.274 -0.22,0.581 -0.333,0.869c-0.432,1.11 -0.994,2.137 -1.609,3.157c-0.467,0.764 -0.923,1.512 -1.381,2.268c-0.588,0.975 -1.16,2.057 -1.547,3.077c-0.139,0.378 -0.281,0.834 -0.422,1.37c-0.114,0.441 -0.159,0.871 -0.227,1.31c-0.159,0.914 -0.133,1.908 -0.026,2.865c0.094,0.836 0.253,1.653 0.465,2.454c0.009,0.016 -0,0.033 -0.009,0.052c-0.036,0.052 -0.097,0.07 -0.175,0.052c-0.976,-0.281 -1.892,-0.482 -2.832,-0.659c-1.662,-0.317 -3.481,-0.343 -5.132,-0.008c-1.96,0.395 -3.736,1.354 -5.072,2.83c-0.255,0.281 -0.501,0.597 -0.73,0.949c-0.668,1.02 -1.082,1.996 -1.327,3.129c-0.097,0.44 -0.149,0.844 -0.177,1.222c-0.052,0.968 0.054,1.908 0.326,2.838c0.115,0.397 0.255,0.765 0.422,1.091c0.827,1.696 2.135,2.91 3.93,3.649c1.398,0.579 2.952,0.763 4.508,0.711c-0.016,0.052 -0.007,0.044 0,0.026" style="fill:#f2f6ff;fill-rule:nonzero;"/><path d="M127.073,196.987c0.026,-0.061 0.017,-0.123 -0.019,-0.175c-0.411,-0.668 -0.756,-1.379 -1.037,-2.118c-0.184,-0.494 -0.316,-1.039 -0.385,-1.547c-0.089,-0.687 -0.045,-1.443 0.184,-2.111c0.289,-0.86 0.985,-1.581 1.793,-1.977c0.352,-0.177 0.739,-0.291 1.152,-0.352c1.106,-0.158 2.145,0.054 3.12,0.633c0.518,0.307 0.959,0.685 1.327,1.134c0.317,0.387 0.624,0.835 0.836,1.301c0.475,1.037 0.747,2.18 0.763,3.339c0.01,0.59 -0.009,1.099 -0.061,1.521c-0.017,0.168 -0.078,0.475 -0.184,0.933c-0.062,0.245 -0.123,0.491 -0.201,0.729c-0.116,0.36 -0.194,0.598 -0.248,0.712c-0.298,0.739 -0.678,1.44 -1.143,2.066c-1.063,1.45 -2.487,2.461 -4.27,3.032c-0.978,0.317 -1.927,0.572 -2.919,0.676c-1.337,0.141 -2.735,0.132 -4.043,-0.157c-1.705,-0.379 -3.245,-1.074 -4.624,-2.094c-1.056,-0.78 -2.065,-1.818 -2.839,-2.935c-1.223,-1.765 -2.005,-3.708 -2.347,-5.853c-0.071,-0.404 -0.114,-0.81 -0.14,-1.195c-0.203,-3.041 0.473,-5.88 2.038,-8.509c0.414,-0.694 0.827,-1.319 1.24,-1.872c0.484,-0.652 1.054,-1.363 1.625,-2.005c0.898,-1.002 1.705,-1.845 2.418,-2.53c1.389,-1.336 3.04,-2.883 4.976,-4.633c1.344,-1.214 2.645,-2.47 4.015,-3.859c1.073,-1.082 2.076,-2.189 3.007,-3.323c0.387,-0.474 0.774,-0.983 1.143,-1.476c0.623,-0.817 1.258,-1.793 1.811,-2.733c1.001,-1.714 1.915,-3.481 2.759,-5.301c0.493,-1.063 0.984,-2.215 1.487,-3.453c0.026,-0.063 0.059,-0.097 0.113,-0.123c0.053,-0.019 0.105,0 0.123,0.052c0,0.008 0,0.008 0.01,0.017c0.035,0.167 0.07,0.326 0.139,0.484c0.52,1.238 0.942,2.206 1.266,2.9c1.046,2.241 2.022,4.121 2.937,5.642c0.589,0.968 1.186,1.865 1.81,2.692c0.458,0.614 1.027,1.335 1.582,1.977c1.372,1.573 2.803,3.075 4.324,4.501c1.363,1.282 2.709,2.53 4.062,3.762c1.714,1.564 3.181,2.969 4.393,4.227c0.546,0.563 1.197,1.309 1.953,2.242c0.21,0.262 0.387,0.545 0.579,0.817c0.283,0.387 0.536,0.817 0.793,1.24c0.694,1.141 1.256,2.364 1.686,3.665c0.588,1.776 0.862,3.604 0.817,5.493c-0.009,0.413 -0.035,0.808 -0.078,1.186c-0.052,0.448 -0.132,0.942 -0.245,1.478c-0.036,0.149 -0.107,0.439 -0.239,0.862c-0.229,0.782 -0.484,1.448 -0.755,2.003c-0.185,0.37 -0.369,0.729 -0.572,1.072c-0.588,1.011 -1.336,1.934 -2.241,2.76c-0.371,0.343 -0.747,0.669 -1.16,0.959c-1.011,0.702 -2.137,1.247 -3.367,1.625c-0.676,0.211 -1.337,0.352 -1.987,0.413c-1.494,0.159 -2.987,0.071 -4.501,-0.264c-0.474,-0.104 -0.914,-0.255 -1.37,-0.385c-1.45,-0.406 -2.76,-1.169 -3.797,-2.26c-0.739,-0.774 -1.318,-1.653 -1.741,-2.638c-0.229,-0.536 -0.396,-1.011 -0.491,-1.431c-0.123,-0.494 -0.238,-1.037 -0.274,-1.538c-0.052,-0.767 -0.042,-1.469 0.026,-2.101c0.107,-0.924 0.378,-1.819 0.81,-2.681c0.369,-0.739 0.888,-1.363 1.573,-1.889c1.037,-0.793 2.189,-1.117 3.481,-0.968c0.588,0.07 1.221,0.281 1.715,0.623c0.94,0.659 1.457,1.592 1.554,2.778c0.045,0.562 -0,1.126 -0.14,1.697c-0.273,1.08 -0.729,2.109 -1.379,3.094c-0.028,0.043 -0.019,0.097 0.026,0.123c0.017,0.009 0.035,0.019 0.052,0.019c1.108,0.007 2.171,-0.054 3.235,-0.31c1.108,-0.255 2.32,-0.826 3.234,-1.572c1.037,-0.844 1.794,-1.916 2.267,-3.21c0.257,-0.701 0.397,-1.396 0.423,-2.081c0.009,-0.361 0.018,-0.703 0.009,-1.046c-0.017,-0.668 -0.116,-1.32 -0.307,-1.962c-0.51,-1.722 -1.46,-3.163 -2.841,-4.324c-1.686,-1.415 -3.848,-2.1 -6.063,-2.163c-1.091,-0.034 -2.137,0.044 -3.147,0.231c-0.985,0.175 -1.97,0.404 -2.945,0.685c-0.052,0.016 -0.114,-0.019 -0.123,-0.071c-0.01,-0.019 -0.01,-0.035 -0,-0.052c0.396,-1.408 0.562,-2.858 0.501,-4.362c-0.036,-1.018 -0.185,-1.915 -0.43,-2.706c-0.133,-0.43 -0.265,-0.87 -0.449,-1.283c-0.3,-0.704 -0.633,-1.379 -1.011,-2.04c-0.396,-0.694 -0.782,-1.337 -1.143,-1.906c-0.43,-0.685 -0.711,-1.136 -0.826,-1.346c-0.159,-0.29 -0.324,-0.579 -0.482,-0.86c-0.345,-0.607 -0.669,-1.294 -0.978,-2.066c-0.052,-0.123 -0.087,-0.239 -0.113,-0.352c-0.036,-0.123 -0.052,-0.343 -0.132,-0.449c-0.017,-0.017 -0.043,-0.026 -0.062,-0.009c-0.009,-0 -0.009,0.009 -0.009,0.009c-0.158,0.274 -0.22,0.581 -0.333,0.87c-0.43,1.109 -0.993,2.137 -1.609,3.157c-0.467,0.763 -0.923,1.511 -1.379,2.267c-0.59,0.975 -1.162,2.057 -1.549,3.077c-0.139,0.378 -0.281,0.834 -0.421,1.37c-0.113,0.441 -0.158,0.871 -0.229,1.31c-0.158,0.914 -0.132,1.909 -0.026,2.865c0.097,0.836 0.255,1.653 0.466,2.454c0.009,0.017 -0,0.033 -0.008,0.052c-0.037,0.052 -0.098,0.071 -0.176,0.052c-0.976,-0.281 -1.89,-0.482 -2.832,-0.659c-1.66,-0.316 -3.479,-0.342 -5.132,-0.007c-1.96,0.394 -3.736,1.353 -5.072,2.829c-0.254,0.281 -0.501,0.598 -0.73,0.949c-0.668,1.021 -1.08,1.996 -1.327,3.13c-0.095,0.439 -0.149,0.843 -0.175,1.221c-0.052,0.968 0.052,1.908 0.324,2.84c0.115,0.395 0.256,0.764 0.424,1.089c0.825,1.696 2.135,2.91 3.928,3.649c1.398,0.579 2.954,0.763 4.508,0.711c0.002,0.045 0.009,0.035 0.019,0.026" style="fill:#f2f6ff;fill-rule:nonzero;"/><path d="M47.973,243.617c0.027,-0.062 0.019,-0.123 -0.016,-0.175c-0.414,-0.668 -0.758,-1.381 -1.037,-2.119c-0.186,-0.493 -0.317,-1.038 -0.387,-1.546c-0.088,-0.687 -0.045,-1.443 0.184,-2.111c0.29,-0.862 0.985,-1.583 1.793,-1.977c0.351,-0.177 0.739,-0.291 1.152,-0.352c1.107,-0.158 2.144,0.054 3.12,0.633c0.519,0.307 0.958,0.685 1.327,1.133c0.316,0.388 0.624,0.836 0.836,1.302c0.474,1.036 0.746,2.179 0.763,3.339c0.009,0.59 -0.008,1.098 -0.06,1.521c-0.018,0.167 -0.08,0.475 -0.186,0.933c-0.061,0.245 -0.123,0.491 -0.201,0.729c-0.115,0.36 -0.193,0.598 -0.247,0.711c-0.298,0.739 -0.676,1.441 -1.143,2.067c-1.063,1.45 -2.487,2.46 -4.271,3.032c-0.975,0.316 -1.924,0.571 -2.918,0.676c-1.337,0.141 -2.735,0.132 -4.044,-0.157c-1.705,-0.379 -3.242,-1.074 -4.623,-2.094c-1.056,-0.782 -2.065,-1.819 -2.839,-2.935c-1.221,-1.767 -2.005,-3.708 -2.348,-5.853c-0.068,-0.404 -0.113,-0.81 -0.139,-1.197c-0.203,-3.04 0.474,-5.878 2.038,-8.507c0.413,-0.694 0.827,-1.32 1.24,-1.873c0.484,-0.651 1.055,-1.362 1.627,-2.004c0.895,-1.002 1.705,-1.845 2.416,-2.53c1.389,-1.337 3.042,-2.884 4.976,-4.633c1.344,-1.214 2.645,-2.471 4.017,-3.859c1.072,-1.082 2.074,-2.189 3.004,-3.323c0.387,-0.475 0.775,-0.983 1.143,-1.476c0.626,-0.827 1.259,-1.793 1.811,-2.735c1.002,-1.712 1.918,-3.479 2.761,-5.299c0.491,-1.063 0.985,-2.215 1.486,-3.453c0.026,-0.064 0.061,-0.099 0.113,-0.125c0.054,-0.017 0.106,-0 0.123,0.052c-0,0.009 -0,0.009 0.009,0.019c0.036,0.167 0.071,0.325 0.142,0.484c0.517,1.238 0.94,2.206 1.264,2.9c1.046,2.241 2.021,4.121 2.945,5.642c0.59,0.968 1.187,1.863 1.811,2.69c0.458,0.616 1.027,1.336 1.582,1.979c1.37,1.573 2.803,3.075 4.324,4.501c1.363,1.282 2.707,2.529 4.062,3.76c1.713,1.565 3.181,2.971 4.393,4.229c0.546,0.562 1.197,1.309 1.953,2.241c0.21,0.263 0.387,0.544 0.579,0.818c0.283,0.387 0.536,0.817 0.793,1.239c0.694,1.141 1.256,2.364 1.686,3.664c0.588,1.778 0.862,3.604 0.817,5.495c-0.009,0.413 -0.035,0.808 -0.078,1.186c-0.054,0.448 -0.132,0.942 -0.247,1.478c-0.036,0.149 -0.105,0.439 -0.237,0.86c-0.229,0.783 -0.484,1.45 -0.756,2.005c-0.184,0.368 -0.368,0.729 -0.571,1.072c-0.588,1.011 -1.337,1.934 -2.241,2.758c-0.369,0.345 -0.747,0.669 -1.162,0.961c-1.011,0.702 -2.135,1.247 -3.365,1.625c-0.676,0.21 -1.337,0.352 -1.987,0.413c-1.494,0.159 -2.987,0.069 -4.499,-0.264c-0.476,-0.104 -0.916,-0.255 -1.372,-0.385c-1.452,-0.406 -2.76,-1.171 -3.797,-2.26c-0.739,-0.775 -1.318,-1.653 -1.741,-2.638c-0.229,-0.536 -0.396,-1.011 -0.493,-1.431c-0.121,-0.494 -0.236,-1.037 -0.272,-1.54c-0.052,-0.765 -0.042,-1.469 0.026,-2.1c0.107,-0.923 0.378,-1.82 0.81,-2.68c0.369,-0.739 0.888,-1.363 1.573,-1.89c1.037,-0.793 2.189,-1.118 3.481,-0.968c0.588,0.071 1.221,0.282 1.713,0.624c0.942,0.659 1.461,1.592 1.556,2.777c0.045,0.563 -0,1.127 -0.14,1.698c-0.273,1.08 -0.729,2.109 -1.381,3.094c-0.026,0.043 -0.017,0.097 0.028,0.123c0.017,0.009 0.035,0.016 0.052,0.016c1.108,0.01 2.171,-0.052 3.235,-0.307c1.106,-0.255 2.32,-0.826 3.236,-1.573c1.036,-0.843 1.79,-1.915 2.267,-3.209c0.255,-0.702 0.395,-1.396 0.421,-2.083c0.009,-0.359 0.018,-0.702 0.009,-1.044c-0.019,-0.668 -0.114,-1.32 -0.307,-1.962c-0.51,-1.722 -1.46,-3.163 -2.841,-4.324c-1.686,-1.415 -3.849,-2.1 -6.063,-2.163c-1.091,-0.036 -2.137,0.044 -3.148,0.23c-0.984,0.175 -1.969,0.403 -2.944,0.685c-0.053,0.017 -0.114,-0.018 -0.123,-0.07c-0.01,-0.019 -0.01,-0.036 -0,-0.052c0.396,-1.408 0.562,-2.858 0.5,-4.362c-0.035,-1.018 -0.184,-1.915 -0.43,-2.706c-0.132,-0.43 -0.264,-0.87 -0.448,-1.283c-0.3,-0.704 -0.633,-1.381 -1.011,-2.04c-0.395,-0.695 -0.782,-1.337 -1.143,-1.906c-0.43,-0.687 -0.713,-1.136 -0.826,-1.346c-0.159,-0.291 -0.324,-0.579 -0.482,-0.862c-0.343,-0.605 -0.669,-1.292 -0.978,-2.064c-0.052,-0.125 -0.087,-0.239 -0.113,-0.352c-0.036,-0.123 -0.052,-0.343 -0.132,-0.449c-0.017,-0.019 -0.045,-0.026 -0.062,-0.009c-0.009,-0 -0.009,0.009 -0.009,0.009c-0.158,0.272 -0.22,0.581 -0.333,0.869c-0.43,1.11 -0.994,2.137 -1.609,3.157c-0.467,0.764 -0.923,1.512 -1.379,2.268c-0.59,0.975 -1.162,2.057 -1.547,3.075c-0.141,0.38 -0.283,0.836 -0.423,1.372c-0.113,0.439 -0.158,0.871 -0.229,1.31c-0.158,0.914 -0.132,1.906 -0.026,2.865c0.097,0.836 0.255,1.653 0.466,2.454c0.009,0.016 -0,0.033 -0.01,0.052c-0.035,0.052 -0.094,0.07 -0.175,0.052c-0.975,-0.281 -1.889,-0.482 -2.829,-0.659c-1.662,-0.317 -3.481,-0.343 -5.134,-0.008c-1.96,0.395 -3.736,1.354 -5.072,2.83c-0.254,0.281 -0.501,0.597 -0.73,0.949c-0.667,1.02 -1.08,1.996 -1.327,3.129c-0.095,0.44 -0.149,0.844 -0.175,1.222c-0.053,0.967 0.052,1.908 0.325,2.838c0.114,0.397 0.255,0.765 0.421,1.091c0.827,1.696 2.137,2.91 3.93,3.649c1.398,0.579 2.954,0.763 4.508,0.711c-0.017,0.043 0.002,0.035 0.009,0.026" style="fill:#f2f6ff;fill-rule:nonzero;"/><path d="M391.055,163.674c-0.026,-0.062 -0.017,-0.123 0.018,-0.175c0.412,-0.668 0.756,-1.38 1.037,-2.119c0.184,-0.493 0.317,-1.038 0.385,-1.546c0.09,-0.687 0.047,-1.443 -0.182,-2.111c-0.29,-0.86 -0.987,-1.581 -1.794,-1.977c-0.352,-0.177 -0.739,-0.291 -1.151,-0.352c-1.107,-0.158 -2.146,0.054 -3.122,0.633c-0.517,0.307 -0.958,0.685 -1.327,1.133c-0.316,0.388 -0.623,0.836 -0.834,1.302c-0.474,1.037 -0.748,2.179 -0.765,3.339c-0.007,0.59 0.009,1.098 0.062,1.521c0.018,0.168 0.08,0.475 0.186,0.933c0.061,0.245 0.121,0.491 0.201,0.729c0.113,0.36 0.192,0.598 0.246,0.711c0.299,0.739 0.677,1.441 1.142,2.067c1.063,1.45 2.487,2.461 4.273,3.032c0.975,0.316 1.924,0.571 2.917,0.676c1.336,0.141 2.734,0.132 4.043,-0.157c1.705,-0.379 3.242,-1.074 4.625,-2.094c1.054,-0.78 2.065,-1.818 2.837,-2.935c1.223,-1.765 2.005,-3.708 2.348,-5.853c0.07,-0.404 0.113,-0.81 0.141,-1.195c0.201,-3.042 -0.475,-5.88 -2.04,-8.509c-0.411,-0.694 -0.825,-1.32 -1.24,-1.872c-0.484,-0.652 -1.053,-1.363 -1.625,-2.005c-0.895,-1.002 -1.705,-1.845 -2.418,-2.53c-1.389,-1.337 -3.04,-2.883 -4.976,-4.633c-1.342,-1.214 -2.643,-2.47 -4.015,-3.859c-1.072,-1.082 -2.074,-2.189 -3.006,-3.323c-0.387,-0.475 -0.775,-0.983 -1.143,-1.476c-0.624,-0.817 -1.257,-1.793 -1.811,-2.733c-1.002,-1.714 -1.916,-3.481 -2.759,-5.301c-0.493,-1.063 -0.987,-2.215 -1.486,-3.453c-0.027,-0.064 -0.061,-0.097 -0.115,-0.125c-0.052,-0.017 -0.104,0 -0.123,0.052c0,0.009 0,0.009 -0.007,0.019c-0.037,0.167 -0.071,0.326 -0.142,0.484c-0.519,1.238 -0.94,2.206 -1.266,2.9c-1.044,2.241 -2.021,4.121 -2.944,5.642c-0.589,0.968 -1.188,1.865 -1.812,2.692c-0.456,0.614 -1.027,1.334 -1.58,1.977c-1.372,1.573 -2.805,3.075 -4.324,4.501c-1.365,1.282 -2.709,2.53 -4.062,3.762c-1.714,1.563 -3.183,2.969 -4.395,4.227c-0.545,0.562 -1.195,1.309 -1.951,2.241c-0.212,0.263 -0.387,0.546 -0.581,0.818c-0.281,0.387 -0.536,0.817 -0.793,1.239c-0.694,1.142 -1.254,2.365 -1.686,3.666c-0.588,1.776 -0.862,3.602 -0.817,5.493c0.009,0.413 0.035,0.808 0.08,1.186c0.052,0.448 0.13,0.942 0.245,1.478c0.036,0.149 0.105,0.439 0.237,0.86c0.231,0.783 0.484,1.45 0.757,2.005c0.183,0.368 0.369,0.729 0.57,1.072c0.59,1.011 1.337,1.934 2.241,2.76c0.371,0.343 0.749,0.669 1.162,0.959c1.011,0.702 2.135,1.247 3.365,1.625c0.676,0.21 1.337,0.352 1.989,0.413c1.492,0.159 2.987,0.071 4.497,-0.264c0.476,-0.104 0.916,-0.255 1.374,-0.385c1.45,-0.406 2.758,-1.169 3.797,-2.26c0.737,-0.775 1.318,-1.653 1.739,-2.638c0.229,-0.536 0.396,-1.011 0.493,-1.431c0.121,-0.494 0.236,-1.037 0.274,-1.538c0.052,-0.767 0.042,-1.469 -0.028,-2.102c-0.106,-0.923 -0.378,-1.818 -0.81,-2.68c-0.369,-0.739 -0.886,-1.363 -1.571,-1.89c-1.039,-0.793 -2.189,-1.116 -3.483,-0.967c-0.588,0.07 -1.212,0.281 -1.713,0.623c-0.94,0.659 -1.459,1.592 -1.556,2.777c-0.044,0.563 0,1.127 0.142,1.698c0.272,1.08 0.728,2.109 1.379,3.094c0.026,0.043 0.019,0.097 -0.028,0.123c-0.015,0.009 -0.033,0.018 -0.052,0.018c-1.108,0.008 -2.17,-0.054 -3.233,-0.309c-1.108,-0.255 -2.322,-0.826 -3.237,-1.573c-1.035,-0.843 -1.791,-1.915 -2.266,-3.209c-0.255,-0.702 -0.396,-1.396 -0.422,-2.083c-0.01,-0.359 -0.019,-0.702 -0.01,-1.044c0.019,-0.668 0.116,-1.32 0.307,-1.962c0.512,-1.722 1.46,-3.163 2.841,-4.324c1.687,-1.415 3.85,-2.1 6.063,-2.163c1.091,-0.034 2.137,0.044 3.148,0.23c0.984,0.175 1.969,0.404 2.945,0.685c0.052,0.017 0.113,-0.018 0.122,-0.07c0.01,-0.019 0.01,-0.036 0,-0.052c-0.396,-1.408 -0.562,-2.858 -0.5,-4.362c0.035,-1.018 0.184,-1.915 0.43,-2.706c0.134,-0.43 0.264,-0.87 0.448,-1.283c0.3,-0.704 0.633,-1.379 1.011,-2.04c0.395,-0.695 0.782,-1.337 1.143,-1.906c0.43,-0.687 0.713,-1.136 0.826,-1.346c0.159,-0.291 0.326,-0.579 0.484,-0.862c0.343,-0.605 0.667,-1.292 0.976,-2.064c0.054,-0.125 0.087,-0.239 0.115,-0.352c0.034,-0.123 0.052,-0.343 0.131,-0.449c0.018,-0.017 0.044,-0.026 0.061,-0.009c0.009,-0 0.009,0.009 0.009,0.009c0.159,0.274 0.22,0.581 0.334,0.869c0.43,1.11 0.994,2.137 1.608,3.157c0.467,0.764 0.923,1.512 1.379,2.268c0.59,0.975 1.162,2.057 1.547,3.077c0.143,0.378 0.283,0.834 0.423,1.37c0.113,0.441 0.16,0.871 0.229,1.31c0.158,0.914 0.132,1.908 0.028,2.865c-0.097,0.836 -0.257,1.653 -0.468,2.454c-0.007,0.016 0,0.033 0.01,0.052c0.035,0.052 0.095,0.07 0.175,0.052c0.977,-0.281 1.891,-0.482 2.831,-0.659c1.66,-0.317 3.481,-0.343 5.134,-0.008c1.958,0.395 3.734,1.354 5.071,2.83c0.255,0.281 0.5,0.597 0.729,0.949c0.667,1.02 1.082,1.996 1.328,3.129c0.094,0.44 0.148,0.844 0.175,1.222c0.054,0.968 -0.053,1.908 -0.324,2.838c-0.116,0.397 -0.255,0.765 -0.423,1.091c-0.826,1.696 -2.135,2.91 -3.93,3.649c-1.396,0.579 -2.952,0.763 -4.508,0.711c0.009,0.052 -0,0.044 -0.009,0.026" style="fill:#f2f6ff;fill-rule:nonzero;"/><path d="M470.989,196.987c-0.027,-0.061 -0.018,-0.123 0.019,-0.175c0.411,-0.668 0.754,-1.379 1.035,-2.118c0.186,-0.494 0.316,-1.039 0.387,-1.547c0.088,-0.687 0.045,-1.443 -0.184,-2.111c-0.289,-0.86 -0.985,-1.581 -1.793,-1.977c-0.351,-0.177 -0.739,-0.291 -1.15,-0.352c-1.11,-0.158 -2.146,0.054 -3.122,0.633c-0.517,0.307 -0.958,0.685 -1.327,1.134c-0.316,0.387 -0.624,0.835 -0.834,1.301c-0.477,1.037 -0.748,2.18 -0.765,3.339c-0.009,0.59 0.009,1.099 0.061,1.521c0.017,0.168 0.079,0.475 0.185,0.933c0.052,0.245 0.123,0.491 0.201,0.729c0.113,0.36 0.193,0.598 0.247,0.712c0.298,0.739 0.676,1.44 1.141,2.066c1.065,1.45 2.489,2.461 4.272,3.032c0.976,0.317 1.925,0.572 2.919,0.676c1.337,0.141 2.733,0.132 4.043,-0.157c1.706,-0.379 3.243,-1.074 4.624,-2.094c1.054,-0.78 2.065,-1.818 2.839,-2.935c1.221,-1.765 2.003,-3.708 2.347,-5.853c0.071,-0.404 0.114,-0.81 0.14,-1.195c0.203,-3.041 -0.475,-5.88 -2.038,-8.509c-0.413,-0.694 -0.827,-1.319 -1.24,-1.872c-0.484,-0.652 -1.054,-1.363 -1.627,-2.005c-0.895,-1.002 -1.705,-1.845 -2.416,-2.53c-1.389,-1.336 -3.04,-2.883 -4.976,-4.633c-1.344,-1.214 -2.645,-2.47 -4.017,-3.859c-1.072,-1.082 -2.074,-2.189 -3.004,-3.323c-0.388,-0.474 -0.775,-0.983 -1.143,-1.476c-0.624,-0.817 -1.259,-1.793 -1.812,-2.733c-1.001,-1.714 -1.915,-3.481 -2.758,-5.301c-0.494,-1.063 -0.987,-2.215 -1.488,-3.453c-0.026,-0.063 -0.059,-0.097 -0.113,-0.123c-0.052,-0.019 -0.104,0 -0.123,0.052c-0,0.008 -0,0.008 -0.009,0.017c-0.036,0.167 -0.071,0.326 -0.14,0.484c-0.519,1.238 -0.942,2.206 -1.268,2.9c-1.044,2.241 -2.021,4.121 -2.935,5.642c-0.588,0.968 -1.186,1.865 -1.811,2.692c-0.456,0.614 -1.026,1.335 -1.581,1.977c-1.372,1.573 -2.803,3.075 -4.326,4.501c-1.361,1.282 -2.707,2.53 -4.06,3.762c-1.714,1.564 -3.181,2.969 -4.393,4.227c-0.545,0.563 -1.197,1.309 -1.953,2.242c-0.212,0.262 -0.387,0.545 -0.58,0.817c-0.281,0.387 -0.537,0.817 -0.792,1.24c-0.694,1.141 -1.256,2.364 -1.688,3.665c-0.588,1.776 -0.86,3.604 -0.815,5.493c0.009,0.413 0.033,0.808 0.078,1.186c0.052,0.448 0.132,0.942 0.246,1.478c0.035,0.149 0.106,0.439 0.236,0.862c0.229,0.782 0.484,1.448 0.758,2.003c0.184,0.37 0.368,0.729 0.569,1.072c0.59,1.011 1.337,1.934 2.242,2.76c0.37,0.343 0.748,0.669 1.161,0.959c1.011,0.702 2.137,1.247 3.366,1.625c0.677,0.211 1.336,0.352 1.986,0.413c1.495,0.159 2.989,0.071 4.501,-0.264c0.475,-0.104 0.916,-0.255 1.372,-0.385c1.45,-0.406 2.759,-1.169 3.797,-2.26c0.737,-0.774 1.318,-1.653 1.739,-2.638c0.229,-0.536 0.396,-1.011 0.493,-1.431c0.123,-0.494 0.238,-1.037 0.272,-1.538c0.054,-0.767 0.045,-1.469 -0.024,-2.101c-0.106,-0.924 -0.378,-1.819 -0.81,-2.681c-0.369,-0.739 -0.888,-1.363 -1.573,-1.889c-1.037,-0.793 -2.189,-1.117 -3.483,-0.968c-0.588,0.07 -1.221,0.281 -1.712,0.623c-0.94,0.659 -1.46,1.592 -1.555,2.778c-0.044,0.562 0,1.126 0.14,1.697c0.272,1.08 0.728,2.109 1.379,3.094c0.028,0.043 0.019,0.097 -0.026,0.123c-0.018,0.009 -0.035,0.019 -0.052,0.019c-1.109,0.007 -2.172,-0.054 -3.235,-0.31c-1.108,-0.255 -2.32,-0.826 -3.235,-1.572c-1.037,-0.844 -1.795,-1.916 -2.268,-3.21c-0.255,-0.701 -0.394,-1.396 -0.422,-2.081c-0.01,-0.361 -0.017,-0.703 -0.01,-1.046c0.019,-0.668 0.116,-1.32 0.309,-1.962c0.511,-1.722 1.458,-3.163 2.839,-4.324c1.689,-1.415 3.85,-2.1 6.065,-2.163c1.089,-0.034 2.137,0.044 3.148,0.231c0.983,0.175 1.967,0.404 2.945,0.685c0.052,0.016 0.111,-0.019 0.121,-0.071c0.009,-0.019 0.009,-0.035 -0,-0.052c-0.395,-1.408 -0.561,-2.858 -0.499,-4.362c0.033,-1.018 0.182,-1.915 0.42,-2.706c0.133,-0.43 0.265,-0.87 0.449,-1.283c0.3,-0.704 0.633,-1.379 1.009,-2.04c0.396,-0.694 0.784,-1.337 1.145,-1.906c0.43,-0.685 0.713,-1.136 0.826,-1.346c0.158,-0.29 0.324,-0.579 0.482,-0.86c0.343,-0.607 0.669,-1.294 0.976,-2.066c0.054,-0.123 0.089,-0.239 0.115,-0.352c0.034,-0.123 0.052,-0.343 0.132,-0.449c0.017,-0.017 0.045,-0.026 0.06,-0.009c0.009,-0 0.009,0.009 0.009,0.009c0.158,0.274 0.22,0.581 0.335,0.87c0.43,1.109 0.993,2.137 1.609,3.157c0.465,0.763 0.923,1.511 1.379,2.267c0.59,0.975 1.16,2.057 1.547,3.077c0.141,0.378 0.283,0.834 0.422,1.37c0.114,0.441 0.159,0.871 0.229,1.31c0.159,0.914 0.131,1.909 0.026,2.865c-0.096,0.836 -0.255,1.653 -0.465,2.454c-0.009,0.017 0,0.033 0.009,0.052c0.034,0.052 0.095,0.071 0.174,0.052c0.977,-0.281 1.891,-0.482 2.831,-0.659c1.66,-0.316 3.481,-0.342 5.134,-0.007c1.958,0.394 3.734,1.353 5.071,2.829c0.255,0.281 0.502,0.598 0.729,0.949c0.668,1.021 1.082,1.996 1.329,3.13c0.095,0.439 0.149,0.843 0.173,1.221c0.054,0.968 -0.052,1.908 -0.323,2.84c-0.116,0.395 -0.255,0.764 -0.423,1.089c-0.825,1.696 -2.135,2.91 -3.928,3.649c-1.398,0.579 -2.954,0.763 -4.51,0.711c0.011,0.045 0.002,0.035 -0.008,0.026" style="fill:#f2f6ff;fill-rule:nonzero;"/><path d="M545.096,243.617c-0.028,-0.062 -0.018,-0.123 0.017,-0.175c0.413,-0.668 0.756,-1.381 1.037,-2.119c0.186,-0.493 0.316,-1.038 0.387,-1.546c0.088,-0.687 0.045,-1.443 -0.184,-2.111c-0.289,-0.862 -0.985,-1.583 -1.793,-1.977c-0.354,-0.177 -0.739,-0.291 -1.152,-0.352c-1.108,-0.158 -2.145,0.054 -3.12,0.633c-0.517,0.307 -0.959,0.685 -1.327,1.133c-0.317,0.388 -0.626,0.836 -0.836,1.302c-0.475,1.036 -0.746,2.179 -0.763,3.339c-0.01,0.59 0.009,1.098 0.061,1.521c0.017,0.167 0.078,0.475 0.185,0.933c0.061,0.245 0.122,0.491 0.201,0.729c0.113,0.36 0.193,0.598 0.247,0.711c0.298,0.739 0.676,1.441 1.141,2.067c1.063,1.45 2.489,2.46 4.272,3.032c0.976,0.316 1.925,0.571 2.919,0.676c1.335,0.141 2.733,0.132 4.043,-0.157c1.705,-0.379 3.243,-1.074 4.624,-2.094c1.054,-0.782 2.065,-1.819 2.839,-2.935c1.221,-1.767 2.003,-3.708 2.347,-5.853c0.071,-0.404 0.114,-0.81 0.14,-1.197c0.201,-3.04 -0.475,-5.878 -2.04,-8.507c-0.412,-0.694 -0.825,-1.32 -1.238,-1.873c-0.484,-0.651 -1.056,-1.362 -1.627,-2.004c-0.895,-1.002 -1.705,-1.845 -2.418,-2.53c-1.387,-1.337 -3.038,-2.884 -4.974,-4.633c-1.344,-1.214 -2.645,-2.471 -4.017,-3.859c-1.072,-1.082 -2.074,-2.189 -3.006,-3.323c-0.386,-0.475 -0.773,-0.983 -1.142,-1.476c-0.623,-0.827 -1.258,-1.793 -1.811,-2.735c-1.003,-1.712 -1.915,-3.479 -2.76,-5.299c-0.492,-1.063 -0.985,-2.215 -1.486,-3.453c-0.026,-0.064 -0.061,-0.099 -0.115,-0.125c-0.052,-0.017 -0.104,-0 -0.121,0.052c-0,0.009 -0,0.009 -0.01,0.019c-0.035,0.167 -0.07,0.325 -0.139,0.484c-0.519,1.238 -0.942,2.206 -1.268,2.9c-1.044,2.241 -2.021,4.121 -2.945,5.642c-0.586,0.968 -1.185,1.863 -1.811,2.69c-0.456,0.616 -1.026,1.336 -1.58,1.979c-1.37,1.573 -2.804,3.075 -4.325,4.501c-1.362,1.282 -2.706,2.529 -4.061,3.76c-1.715,1.565 -3.182,2.971 -4.393,4.229c-0.546,0.562 -1.197,1.309 -1.953,2.241c-0.21,0.263 -0.387,0.544 -0.581,0.818c-0.281,0.387 -0.536,0.817 -0.791,1.239c-0.694,1.141 -1.256,2.364 -1.688,3.664c-0.587,1.778 -0.86,3.604 -0.816,5.495c0.01,0.413 0.034,0.808 0.078,1.186c0.053,0.448 0.133,0.942 0.248,1.478c0.034,0.149 0.104,0.439 0.236,0.86c0.229,0.783 0.483,1.45 0.756,2.005c0.185,0.368 0.369,0.729 0.57,1.072c0.59,1.011 1.336,1.934 2.243,2.758c0.369,0.345 0.746,0.669 1.162,0.961c1.01,0.702 2.135,1.247 3.363,1.625c0.678,0.21 1.337,0.352 1.988,0.413c1.493,0.159 2.988,0.069 4.499,-0.264c0.475,-0.104 0.916,-0.255 1.372,-0.385c1.45,-0.406 2.759,-1.171 3.798,-2.26c0.737,-0.775 1.318,-1.653 1.738,-2.638c0.229,-0.536 0.397,-1.011 0.494,-1.431c0.123,-0.494 0.238,-1.037 0.273,-1.54c0.053,-0.765 0.043,-1.469 -0.026,-2.1c-0.106,-0.923 -0.378,-1.82 -0.809,-2.68c-0.369,-0.739 -0.888,-1.363 -1.573,-1.89c-1.037,-0.793 -2.189,-1.118 -3.481,-0.968c-0.59,0.071 -1.214,0.282 -1.713,0.624c-0.942,0.659 -1.461,1.592 -1.556,2.777c-0.045,0.563 -0,1.127 0.139,1.698c0.272,1.08 0.728,2.109 1.38,3.094c0.028,0.043 0.018,0.097 -0.026,0.123c-0.017,0.009 -0.036,0.016 -0.052,0.016c-1.11,0.01 -2.173,-0.052 -3.236,-0.307c-1.107,-0.255 -2.319,-0.826 -3.235,-1.573c-1.037,-0.843 -1.792,-1.915 -2.267,-3.209c-0.255,-0.702 -0.395,-1.396 -0.423,-2.083c-0.007,-0.359 -0.016,-0.702 -0.007,-1.044c0.017,-0.668 0.113,-1.32 0.307,-1.962c0.51,-1.722 1.459,-3.163 2.839,-4.324c1.688,-1.415 3.849,-2.1 6.064,-2.163c1.089,-0.036 2.137,0.044 3.148,0.23c0.983,0.175 1.97,0.403 2.945,0.685c0.052,0.017 0.114,-0.018 0.121,-0.07c0.009,-0.019 0.009,-0.036 0,-0.052c-0.395,-1.408 -0.56,-2.858 -0.499,-4.362c0.034,-1.018 0.183,-1.915 0.421,-2.706c0.132,-0.43 0.264,-0.87 0.449,-1.283c0.299,-0.704 0.632,-1.381 1.01,-2.04c0.395,-0.695 0.784,-1.337 1.143,-1.906c0.43,-0.687 0.713,-1.136 0.827,-1.346c0.158,-0.291 0.324,-0.579 0.484,-0.862c0.342,-0.605 0.666,-1.292 0.973,-2.064c0.054,-0.125 0.09,-0.239 0.116,-0.352c0.033,-0.123 0.052,-0.343 0.132,-0.449c0.017,-0.019 0.045,-0.026 0.059,-0.009c0.01,-0 0.01,0.009 0.01,0.009c0.158,0.272 0.219,0.581 0.335,0.869c0.43,1.11 0.992,2.137 1.608,3.157c0.466,0.764 0.923,1.512 1.38,2.268c0.59,0.975 1.161,2.057 1.548,3.075c0.14,0.38 0.281,0.836 0.421,1.372c0.115,0.439 0.158,0.871 0.229,1.31c0.158,0.914 0.13,1.906 0.026,2.865c-0.097,0.836 -0.255,1.653 -0.465,2.454c-0.01,0.016 -0,0.033 0.009,0.052c0.033,0.052 0.095,0.07 0.175,0.052c0.975,-0.281 1.889,-0.482 2.829,-0.659c1.663,-0.317 3.481,-0.343 5.134,-0.008c1.961,0.395 3.736,1.354 5.071,2.83c0.255,0.281 0.503,0.597 0.73,0.949c0.668,1.02 1.081,1.996 1.329,3.129c0.097,0.44 0.149,0.844 0.175,1.222c0.052,0.967 -0.054,1.908 -0.326,2.838c-0.115,0.397 -0.255,0.765 -0.422,1.091c-0.825,1.696 -2.136,2.91 -3.928,3.649c-1.398,0.579 -2.954,0.763 -4.511,0.711c0.028,0.043 0.012,0.035 0.002,0.026" style="fill:#f2f6ff;fill-rule:nonzero;"/><g><clipPath id="_clip1"><path d="M-3.648,312.915c-0,161.711 133.965,292.806 299.221,292.806c165.255,0 299.218,-131.095 299.218,-292.806c0,-161.711 -133.963,-292.804 -299.218,-292.804c-165.256,-0 -299.221,131.093 -299.221,292.804Z" clip-rule="nonzero"/></clipPath><g clip-path="url(#_clip1)"><path d="M528.812,433.426c8.987,4.489 17.883,9.16 26.688,14.011c1.878,1.033 3.393,2.048 4.551,3.043c5.382,4.634 9.514,10.749 10.964,17.766c0.931,4.492 2,9.256 2.543,13.66c0.84,6.824 1.27,13.003 1.288,18.54c0.045,10.797 -2.019,21.32 -6.191,31.567c-1.569,3.863 -3.907,7.245 -6.394,10.538c-1.841,2.439 -3.9,4.299 -6.26,6.138c-1.089,0.847 -2.549,1.803 -4.375,2.87c-3.955,2.312 -7.539,4.581 -12.073,5.681c-0.228,0.054 -0.464,0 -0.644,-0.145l-10.706,-8.732c-6.908,-5.544 -14.052,-10.752 -21.435,-15.624c-5.594,-3.689 -11.269,-6.848 -17.031,-9.474c-2.531,-1.155 -5.143,-2.115 -7.835,-2.88c-3.968,-1.13 -8.196,-1.402 -12.68,-0.816c-3.743,0.488 -7.096,1.086 -10.056,1.791c-17.371,4.155 -34.925,10.22 -51.572,16.193c-13.563,4.866 -27.483,9.853 -41.759,14.968c-6.197,2.219 -12.664,4.435 -19.408,6.648c-9.06,2.973 -18.544,5.659 -28.01,6.5c-5.266,0.466 -10.709,0.194 -16.334,-0.819c-2.303,-0.415 -5.372,-1.035 -9.205,-1.861c-2.346,-0.509 -5.901,-0.993 -10.665,-1.452c-6.539,-0.631 -15.446,-1.02 -26.725,-1.168c-7.479,-0.096 -15.862,-0.156 -25.147,-0.174c-6.001,-0.012 -11.533,-0.149 -17.217,-1.41c-5.873,-1.305 -11.327,-2.511 -16.358,-3.622c-13.52,-2.977 -27.169,-5.136 -40.944,-6.474c-9.134,-0.885 -18.289,-1.195 -27.393,-2.424c-4.626,-0.629 -9.544,-1.534 -13.822,-3.477c-1.697,-0.81 -4.151,-2.424 -3.237,-4.619c0.365,-0.889 0.553,-1.349 0.564,-1.381c0.261,-0.852 0.56,-1.69 0.894,-2.515c4.651,-10.333 16.325,-14.996 26.626,-17.349c7.839,-1.787 16.595,-2.762 26.273,-2.93c16.145,-0.257 32.161,0.825 48.049,3.241c0.207,0.034 0.255,0.138 0.145,0.315c-2.833,4.555 -4.328,9.19 -4.488,13.907c-0.149,4.363 0.97,9.875 5.195,11.906c3.444,1.657 6.862,2.15 10.881,2.195c7.135,0.074 14.782,-0.868 21.353,-2.027c13.803,-2.43 27.945,-4.894 42.429,-7.392c0.979,-0.17 1.88,-0.436 2.708,-0.797c13.591,-5.968 27.721,-10.767 42.39,-14.399c4.791,-1.186 9.7,-1.666 14.728,-1.441c3.904,0.177 7.828,0.322 11.768,0.438c0.483,0.015 0.976,0.005 1.49,-0.022c0.08,-0.004 0.141,-0.073 0.135,-0.153c0,-0.024 -0.007,-0.047 -0.018,-0.063c-0.026,-0.052 -0.063,-0.106 -0.11,-0.166c-0.045,-0.05 -0.095,-0.089 -0.154,-0.117c-0.795,-0.36 -1.609,-0.622 -2.435,-0.782c-2.256,-0.432 -4.589,-0.668 -6.996,-0.708c-6.185,-0.107 -11.174,-0.08 -14.966,0.081c-1.659,0.074 -3.717,0.43 -6.173,1.074c-3.427,0.899 -6.822,1.906 -10.186,3.017c-10.852,3.591 -21.422,7.63 -31.708,12.116c-0.991,0.43 -3.044,0.944 -6.16,1.546c-5.558,1.068 -12.524,2.23 -20.895,3.484c-8.898,1.331 -17.79,2.668 -26.681,4.015c-4.562,0.691 -9.196,0.972 -14.138,0.22c-2.606,-0.396 -4.775,-1.269 -6.506,-2.621c-6.47,-5.037 -2.304,-15.152 0.924,-20.932c0.979,-1.759 2.166,-3.349 3.562,-4.773c6.851,-6.992 15.261,-11.936 24.205,-15.54c13.018,-5.247 26.878,-8.11 40.726,-10.331c5.545,-0.892 10.81,-2.723 15.94,-4.937c7.928,-3.421 15.685,-7.165 23.274,-11.23c1.297,-0.694 2.559,-1.521 3.792,-2.481c23.535,-18.384 48.458,-35.372 75.524,-48.153c8.254,-3.898 16.738,-7.201 25.454,-9.905c6.677,-2.07 13.317,-3.491 19.923,-4.267c4.935,-0.579 9.191,-0.603 12.766,-0.078c2.904,0.426 6.397,1.169 10.477,2.225c6.549,1.692 13.535,3.976 20.96,6.846c11.331,4.38 23.297,9.754 35.901,16.121" style="fill:#f2f6ff;fill-rule:nonzero;"/><path d="M274.114,449.794c8.198,3.674 15.632,6.232 22.3,7.673c2.457,0.526 4.926,0.964 7.385,1.316c4.693,0.67 9.419,1.489 14.177,2.455c3.862,0.786 8.252,1.945 11.498,4.114c0.093,0.063 0.119,0.186 0.058,0.279c-0.015,0.024 -0.037,0.047 -0.065,0.062c-8.274,4.925 -16.902,10.145 -25.128,14.482c-0.737,0.393 -1.612,0.849 -2.491,0.581c-0.918,-0.281 -1.767,-0.609 -2.547,-0.987c-5.107,-2.491 -10.353,-5.091 -15.427,-7.267c-14.41,-6.18 -29.604,-10.739 -45.585,-13.682c-0.307,-0.058 -0.603,-0.175 -0.865,-0.348c-4.369,-2.882 -8.848,-5.678 -13.436,-8.388c-5.293,-3.127 -9.829,-5.506 -13.612,-7.135c-0.135,-0.06 -0.195,-0.162 -0.18,-0.305c0.819,-7.195 5.426,-12.228 12.842,-12.781c2.108,-0.155 4.256,-0.039 6.443,0.35c4.464,0.793 8.991,2.312 13.578,4.553c4.493,2.191 9.236,4.538 14.227,7.044c5.512,2.764 11.122,5.426 16.828,7.984" style="fill:#f2f6ff;fill-rule:nonzero;"/><path d="M151.055,456.685l-14.123,-3.537c-0.358,-0.089 -0.601,-0.422 -0.579,-0.789c0.067,-1.123 0.389,-2.251 0.968,-3.39c3.196,-6.282 9.756,-10.266 16.561,-11.692c5.669,-1.005 11.365,-0.856 17.089,0.445c4.873,1.109 9.594,2.666 14.16,4.667c10.916,4.787 22.048,9.015 33.224,12.634c12.008,3.89 22.161,6.703 30.454,8.438c14.518,3.038 29.093,7.563 42.053,14.464c2.44,1.297 4.853,2.576 7.241,3.832c0.063,0.036 0.089,0.116 0.056,0.179c-0.011,0.022 -0.03,0.041 -0.049,0.054c-4.92,2.923 -9.97,4.497 -15.886,5.296c-6.494,0.88 -13.289,1.945 -19.329,3.708c-0.132,0.035 -0.263,0.035 -0.391,-0.004c-6.286,-1.93 -13.176,-3.786 -20.668,-5.571c-5.52,-1.316 -10.899,-2.199 -16.139,-2.643c-1.128,-0.099 -2.88,-0.501 -5.259,-1.207c-3.528,-1.046 -7.018,-2.2 -10.475,-3.466c-13.546,-4.953 -26.87,-10.497 -40.29,-15.791c-3.343,-1.32 -6.457,-2.44 -9.344,-3.365c-2.861,-0.912 -6.182,-1.508 -9.274,-2.262" style="fill:#f2f6ff;fill-rule:nonzero;"/><path d="M150.643,458.963c12.759,3.594 25.301,7.824 37.626,12.689c7.915,3.128 15.948,6.289 24.101,9.488c3.14,1.235 6.673,2.286 10.32,3.059c8.877,1.876 17.747,3.782 26.612,5.718c2.973,0.648 6.011,1.374 9.114,2.184c0.625,0.164 0.616,0.27 -0.03,0.322c-16.391,1.284 -31.696,9.778 -42.345,22.198c-0.09,0.102 -0.222,0.153 -0.356,0.136c-7.021,-1.031 -13.898,-1.675 -20.876,-2.027c-0.575,-0.028 -1.177,-0.199 -1.802,-0.512c-9.954,-4.991 -20.013,-9.754 -30.173,-14.291c-13.596,-6.167 -27.455,-11.833 -41.703,-16.323c-5.214,-1.644 -10.253,-2.82 -15.117,-3.529l-2.334,-0.203c-0.127,-0.012 -0.19,-0.08 -0.19,-0.209c-0.002,-4.369 1.063,-8.499 3.194,-12.392c2.988,-5.028 7.405,-8.192 13.252,-9.495c3.991,-0.886 8.023,-1.085 12.096,-0.59c6.279,0.763 12.479,2.273 18.611,3.777" style="fill:#f2f6ff;fill-rule:nonzero;"/><path d="M-39.634,228.209c1.266,-1.153 2.357,-2.11 3.533,-3.13l3.472,-2.971c2.312,-1.969 4.641,-3.894 6.981,-5.809c4.674,-3.824 9.413,-7.543 14.16,-11.225c4.754,-3.675 9.562,-7.288 14.397,-10.838c4.851,-3.533 9.739,-7.016 14.644,-10.459c9.808,-6.901 19.793,-13.528 29.92,-19.918c10.134,-6.381 20.366,-12.595 30.772,-18.52c20.798,-11.848 42.138,-22.747 64.016,-32.435c10.935,-4.851 21.992,-9.413 33.165,-13.695c11.17,-4.262 22.473,-8.183 33.866,-11.813c11.383,-3.655 22.898,-6.881 34.484,-9.845c2.9,-0.711 5.781,-1.502 8.7,-2.152l8.738,-2.014c2.917,-0.65 5.845,-1.23 8.771,-1.854c2.917,-0.633 5.855,-1.188 8.79,-1.724c2.936,-0.526 5.862,-1.143 8.816,-1.599l8.842,-1.45c2.954,-0.465 5.916,-0.845 8.87,-1.275l4.44,-0.624l4.445,-0.526c11.849,-1.495 23.76,-2.426 35.679,-3.077l8.939,-0.404l8.948,-0.194l4.473,-0.087l4.474,0.026l8.95,0.052c5.958,0.212 11.926,0.273 17.877,0.677c2.981,0.185 5.951,0.298 8.921,0.536l8.912,0.74c2.973,0.21 5.935,0.578 8.898,0.904c2.962,0.343 5.923,0.616 8.876,1.018c5.899,0.836 11.815,1.557 17.676,2.612c11.771,1.837 23.416,4.386 35.009,7.04l-0.834,3.649c-46.172,-10.004 -93.707,-13.518 -140.696,-9.872c-46.999,3.533 -93.367,13.624 -137.798,29.041c-11.102,3.868 -22.115,8.008 -32.988,12.491c-10.863,4.492 -21.614,9.264 -32.224,14.302c-21.243,10.072 -41.91,21.323 -62.002,33.478c-20.103,12.149 -39.563,25.35 -58.302,39.458c-9.371,7.05 -18.503,14.406 -27.435,21.947c-4.473,3.762 -8.842,7.64 -13.157,11.56c-2.144,1.97 -4.29,3.937 -6.381,5.933c-1.055,0.994 -2.092,2.004 -3.112,3.006c-1.002,0.985 -2.074,2.048 -2.953,2.962l-13.572,-13.922Z" style="fill:#f2f6ff;fill-rule:nonzero;"/><path d="M-8.387,186.466l1.408,-1.512c0.456,-0.493 0.914,-0.967 1.37,-1.433c0.914,-0.94 1.83,-1.88 2.76,-2.794c1.838,-1.856 3.727,-3.632 5.609,-5.424c1.88,-1.785 3.814,-3.507 5.713,-5.265l5.828,-5.117c7.848,-6.723 15.953,-13.105 24.198,-19.302c16.595,-12.235 33.91,-23.441 51.859,-33.497c17.941,-10.072 36.485,-19.047 55.472,-26.923l10.705,-4.35c1.188,-0.484 2.409,-0.897 3.614,-1.346l14.467,-5.299l14.644,-4.783l3.656,-1.195l3.701,-1.055l7.401,-2.109l7.401,-2.111c2.48,-0.659 4.984,-1.229 7.471,-1.854l7.481,-1.828l3.736,-0.914l1.871,-0.456l1.882,-0.387l15.083,-3.068l3.77,-0.765l3.797,-0.616l7.595,-1.231c10.101,-1.818 20.313,-2.829 30.482,-4.086c2.541,-0.352 5.108,-0.465 7.656,-0.687l7.666,-0.595c5.106,-0.38 10.204,-0.89 15.337,-0.978c40.935,-1.846 81.983,0.591 122.381,6.892l-0.599,3.974c-40.24,-5.618 -80.988,-7.366 -121.447,-4.896c-5.064,0.166 -10.108,0.747 -15.153,1.203l-7.569,0.713c-2.522,0.264 -5.046,0.413 -7.552,0.8c-10.028,1.406 -20.091,2.558 -30.033,4.516l-7.47,1.329l-3.736,0.667l-3.71,0.819l-14.829,3.261l-1.854,0.411l-1.837,0.484l-3.674,0.959l-7.34,1.915c-2.443,0.652 -4.896,1.257 -7.331,1.942l-14.519,4.397l-3.632,1.098l-3.585,1.231l-14.338,4.931l-14.141,5.441c-1.179,0.465 -2.364,0.888 -3.524,1.379l-3.49,1.486l-6.97,2.971c-18.531,8.034 -36.593,17.14 -54.031,27.3c-17.431,10.171 -34.253,21.342 -50.322,33.497c-7.972,6.155 -15.804,12.474 -23.354,19.11l-5.609,5.028c-1.828,1.715 -3.682,3.401 -5.483,5.134c-1.793,1.741 -3.604,3.472 -5.336,5.246c-0.887,0.88 -1.74,1.768 -2.593,2.664c-0.431,0.448 -0.852,0.888 -1.265,1.336l-1.188,1.292l-8.5,-7.55Z" style="fill:#f2f6ff;fill-rule:nonzero;"/><path d="M43.921,117.572c1.847,-1.081 3.587,-2.031 5.361,-3.032c1.769,-0.985 3.535,-1.97 5.309,-2.928c1.769,-0.966 3.552,-1.916 5.337,-2.847l5.335,-2.814c3.559,-1.88 7.147,-3.673 10.715,-5.519c3.595,-1.793 7.182,-3.595 10.785,-5.352c14.423,-7.016 28.971,-13.749 43.747,-19.953c29.542,-12.387 59.936,-22.802 91.034,-30.52l5.838,-1.431c1.941,-0.484 3.885,-0.968 5.845,-1.372l11.735,-2.558c3.918,-0.817 7.866,-1.502 11.794,-2.259c1.97,-0.36 3.93,-0.764 5.907,-1.082l5.934,-0.921l5.933,-0.924l2.971,-0.456c0.994,-0.141 1.986,-0.247 2.98,-0.37l11.926,-1.434c1.988,-0.271 3.991,-0.368 5.987,-0.562l5.985,-0.5l5.986,-0.501l6.003,-0.272c16,-0.942 32.059,-0.659 48.045,0.307l11.981,0.976l1.495,0.122l1.492,0.194l2.981,0.387l5.96,0.773l5.959,0.765c1.988,0.29 3.946,0.685 5.925,1.02l11.839,2.109l-0.834,4.06l-11.69,-2.107c-1.953,-0.335 -3.894,-0.739 -5.856,-1.03l-5.898,-0.748l-5.897,-0.747l-2.945,-0.368l-1.478,-0.184l-1.483,-0.116l-11.85,-0.921c-15.812,-0.907 -31.694,-1.169 -47.517,-0.036l-5.934,0.324l-5.923,0.555l-5.916,0.553c-1.97,0.203 -3.954,0.316 -5.914,0.607l-11.796,1.53c-0.985,0.13 -1.97,0.246 -2.945,0.395l-2.936,0.484l-5.873,0.966l-5.862,0.968c-1.95,0.333 -3.894,0.755 -5.835,1.133c-3.885,0.791 -7.789,1.502 -11.664,2.346l-11.594,2.682c-1.934,0.43 -3.851,0.94 -5.767,1.45l-5.748,1.512c-30.659,8.14 -60.587,18.942 -89.629,31.678c-14.512,6.372 -28.813,13.254 -42.726,20.832c-6.953,3.788 -13.837,7.709 -20.57,11.858c-1.688,1.018 -3.374,2.055 -5.026,3.127c-1.671,1.056 -3.324,2.128 -4.966,3.219c-1.653,1.072 -3.28,2.17 -4.914,3.269c-1.609,1.1 -3.243,2.259 -4.738,3.358l-6.4,-9.695Z" style="fill:#f2f6ff;fill-rule:nonzero;"/><path d="M621.339,243.08c-0.871,-0.904 -1.943,-1.969 -2.954,-2.961c-1.02,-1.002 -2.055,-2.012 -3.113,-3.006c-2.092,-1.996 -4.234,-3.964 -6.381,-5.935c-4.305,-3.92 -8.684,-7.796 -13.157,-11.558c-8.94,-7.541 -18.064,-14.897 -27.432,-21.947c-18.742,-14.099 -38.202,-27.302 -58.304,-39.458c-20.1,-12.155 -40.767,-23.408 -62.002,-33.48c-10.618,-5.045 -21.361,-9.818 -32.225,-14.3c-10.871,-4.475 -21.878,-8.615 -32.987,-12.491c-44.432,-15.417 -90.798,-25.508 -137.796,-29.041c-46.99,-3.648 -94.527,-0.123 -140.699,9.87l-0.834,-3.647c11.601,-2.654 23.239,-5.195 35.009,-7.04c5.864,-1.055 11.778,-1.776 17.677,-2.612c2.952,-0.404 5.916,-0.675 8.877,-1.018c2.962,-0.316 5.923,-0.687 8.896,-0.906l8.913,-0.738c2.969,-0.238 5.949,-0.351 8.92,-0.536c5.951,-0.405 11.912,-0.474 17.88,-0.677l8.946,-0.052l4.475,-0.028l4.473,0.089l8.948,0.194l8.939,0.404c11.919,0.649 23.831,1.589 35.679,3.075l4.448,0.528l4.439,0.624c2.952,0.43 5.914,0.81 8.868,1.275l8.842,1.45c2.954,0.456 5.871,1.072 8.816,1.599c2.936,0.536 5.873,1.091 8.79,1.724c2.919,0.614 5.853,1.204 8.773,1.854l8.736,2.012c2.919,0.652 5.801,1.443 8.703,2.154c11.576,2.962 23.099,6.18 34.48,9.844c11.394,3.641 22.697,7.552 33.87,11.814c11.171,4.28 22.228,8.842 33.162,13.695c21.878,9.676 43.22,20.585 64.017,32.433c10.407,5.925 20.638,12.139 30.772,18.522c10.126,6.398 20.111,13.025 29.92,19.916c4.905,3.445 9.793,6.926 14.646,10.461c4.832,3.55 9.64,7.154 14.396,10.838c4.747,3.691 9.485,7.409 14.159,11.225c2.34,1.915 4.668,3.84 6.979,5.809l3.473,2.969c1.177,1.021 2.277,1.979 3.533,3.131l-13.57,13.922Z" style="fill:#f2f6ff;fill-rule:nonzero;"/><path d="M595.118,194.983l-1.187,-1.292c-0.402,-0.449 -0.834,-0.888 -1.264,-1.337c-0.853,-0.888 -1.705,-1.783 -2.593,-2.662c-1.743,-1.776 -3.543,-3.509 -5.335,-5.247c-1.802,-1.733 -3.658,-3.42 -5.484,-5.134l-5.609,-5.028c-7.543,-6.636 -15.383,-12.956 -23.354,-19.108c-16.059,-12.158 -32.893,-23.328 -50.322,-33.498c-17.438,-10.161 -35.504,-19.259 -54.031,-27.302l-6.971,-2.971l-3.489,-1.485c-1.16,-0.501 -2.355,-0.924 -3.524,-1.38l-14.143,-5.441l-14.335,-4.931l-3.588,-1.23l-3.629,-1.099l-7.262,-2.198l-7.26,-2.197c-2.435,-0.685 -4.886,-1.291 -7.329,-1.943l-7.341,-1.915l-3.673,-0.959l-1.837,-0.482l-1.856,-0.415l-14.829,-3.26l-3.708,-0.817l-3.736,-0.668l-7.47,-1.328c-9.942,-1.96 -20.005,-3.112 -30.035,-4.517c-2.506,-0.397 -5.037,-0.546 -7.55,-0.801l-7.569,-0.713c-5.045,-0.456 -10.082,-1.037 -15.152,-1.202c-40.469,-2.47 -81.21,-0.723 -121.449,4.895l-0.598,-3.972c40.398,-6.294 81.446,-8.728 122.38,-6.893c5.124,0.089 10.223,0.599 15.329,0.975l7.664,0.6c2.55,0.219 5.117,0.333 7.658,0.685c10.169,1.256 20.381,2.267 30.482,4.088l7.595,1.23l3.797,0.614l3.77,0.765l15.083,3.068l1.882,0.387l1.871,0.458l3.736,0.912l7.481,1.83c2.487,0.624 4.991,1.195 7.47,1.854l14.803,4.218l3.701,1.056l3.655,1.195l14.645,4.782l14.467,5.3c1.205,0.448 2.416,0.862 3.613,1.346l10.706,4.35c18.985,7.876 37.524,16.841 55.472,26.923c17.948,10.055 35.264,21.263 51.859,33.497c8.247,6.199 16.35,12.571 24.199,19.304l5.827,5.115c1.908,1.757 3.831,3.481 5.713,5.264c1.882,1.795 3.764,3.569 5.608,5.425c0.933,0.904 1.845,1.846 2.759,2.794c0.458,0.465 0.916,0.942 1.374,1.433l1.405,1.512l-8.492,7.55Z" style="fill:#f2f6ff;fill-rule:nonzero;"/><path d="M544.894,128.26c-1.494,-1.098 -3.131,-2.258 -4.739,-3.358c-1.634,-1.098 -3.259,-2.196 -4.912,-3.271c-1.644,-1.089 -3.297,-2.161 -4.967,-3.216c-1.651,-1.072 -3.339,-2.109 -5.028,-3.129c-6.733,-4.148 -13.615,-8.068 -20.569,-11.856c-13.913,-7.588 -28.215,-14.46 -42.727,-20.832c-29.03,-12.738 -58.959,-23.54 -89.626,-31.679l-5.751,-1.511c-1.915,-0.51 -3.832,-1.02 -5.766,-1.45l-11.592,-2.683c-3.877,-0.843 -7.772,-1.556 -11.666,-2.345c-1.941,-0.371 -3.885,-0.801 -5.836,-1.134l-5.861,-0.968l-5.872,-0.966l-2.935,-0.484c-0.977,-0.149 -1.96,-0.264 -2.945,-0.395l-11.796,-1.53c-1.96,-0.29 -3.947,-0.404 -5.916,-0.607l-5.925,-0.552l-5.923,-0.555l-5.933,-0.324c-15.823,-1.136 -31.707,-0.862 -47.518,0.035l-11.848,0.922l-1.477,0.115l-1.478,0.184l-2.943,0.369l-5.899,0.746l-5.897,0.749c-1.96,0.29 -3.903,0.685 -5.854,1.027l-11.69,2.109l-0.836,-4.06l11.841,-2.109c1.977,-0.335 3.937,-0.739 5.923,-1.02l5.959,-0.765l5.96,-0.774l2.98,-0.385l1.493,-0.194l1.495,-0.123l11.981,-0.975c15.988,-0.966 32.047,-1.249 48.044,-0.308l6.004,0.272l5.986,0.501l5.985,0.501c1.997,0.184 4,0.281 5.986,0.562l11.927,1.433c0.996,0.123 1.988,0.229 2.98,0.371l2.973,0.456l5.931,0.923l5.934,0.921c1.977,0.317 3.937,0.723 5.907,1.082c3.929,0.756 7.876,1.443 11.794,2.26l11.735,2.558c1.962,0.403 3.903,0.887 5.847,1.371l5.836,1.432c31.097,7.718 61.494,18.125 91.035,30.519c14.775,6.195 29.323,12.937 43.747,19.951c3.602,1.759 7.189,3.561 10.786,5.354c3.568,1.847 7.155,3.639 10.714,5.519l5.335,2.815c1.784,0.931 3.56,1.88 5.335,2.846c1.774,0.949 3.541,1.943 5.309,2.928c1.776,1.002 3.524,1.951 5.363,3.033l-6.4,9.694Z" style="fill:#f2f6ff;fill-rule:nonzero;"/></g></g><path d="M259.437,245.524c-0.312,-0.551 -0.504,-0.512 -0.575,0.117c-0.834,7.308 -4.287,13.851 -10.465,17.485c-5.449,3.2 -12.152,3.213 -17.541,-0.181c-7.289,-4.577 -10.594,-13.622 -9.477,-22.135c0.615,-4.674 2.314,-9.13 5.097,-13.363c6.316,-9.596 18.071,-8.507 27.593,-4.35c11.323,4.949 21.554,12.505 30.945,21.055c0.244,0.223 0.447,0.476 0.613,0.759c0.08,0.144 0.029,0.324 -0.112,0.406c-0.021,0.011 -0.045,0.021 -0.067,0.028l-22.829,6.634c-0.231,0.071 -0.384,-0.009 -0.458,-0.24c-0.737,-2.241 -1.644,-4.313 -2.724,-6.215" style="fill:#f2f6ff;fill-rule:nonzero;"/><path d="M289.167,313.323c8.348,2.924 15.984,5.923 22.907,8.996c3.905,1.722 12.943,6.197 12.647,11.558c-0.389,6.964 -10.398,6.927 -15.024,6.333c-5.149,-0.668 -10.445,-1.614 -15.884,-2.843c-8.118,-1.828 -16.076,-3.829 -24.231,-4.367c-6.882,-0.456 -13.678,0.901 -15.785,8.446c-0.799,2.867 -1.048,5.72 -0.749,8.563c0.486,4.612 1.206,9.385 2.158,14.314c1.21,6.326 2.248,15.791 -5.177,18.554c-11.024,4.108 -15.242,-9.175 -17.195,-16.88c-1.383,-5.452 -2.421,-10.609 -3.114,-15.469c-1.227,-8.6 -2.625,-19.179 -4.194,-31.738c-0.958,-7.647 -3.064,-15.211 -5.957,-22.284c-6.932,-16.953 -16.705,-32.954 -25.472,-48.851c-2.385,-4.33 -4.296,-8.423 -5.733,-12.282c-1.13,-3.027 -2.534,-7.964 -0.557,-10.892c1.096,-1.623 2.625,-2.464 4.585,-2.526c6.493,-0.193 12.678,11.028 15.396,16.031c2.958,5.441 5.927,10.909 8.909,16.404c2.569,4.732 5.33,8.968 8.278,12.708c2.212,2.798 5.858,6.098 9.602,6.363c5.936,0.415 12.905,-1.914 18.62,-4.096c6.305,-2.41 12.096,-4.521 17.373,-6.34c8.243,-2.835 18.491,-5.071 25.931,-0.376c3.656,2.312 -1.335,4.82 -3.274,5.585c-4.965,1.949 -10.11,3.886 -15.441,5.815c-6.518,2.366 -19.529,7.684 -20.883,15.426c-0.35,2.01 0.149,4.192 1.497,6.549c3.088,5.405 8.347,8.088 13.931,10.608c5.144,2.327 10.756,4.557 16.836,6.691" style="fill:#f2f6ff;fill-rule:nonzero;"/><path d="M354.87,284.193c-3.322,-0.346 -6.636,-0.871 -9.94,-1.577c-0.123,-0.026 -0.199,-0.149 -0.173,-0.271c0.011,-0.053 0.041,-0.097 0.08,-0.129l12.079,-9.212c0.14,-0.105 0.164,-0.302 0.062,-0.441c-0.038,-0.045 -0.082,-0.082 -0.134,-0.103l-8.466,-3.293c-1.013,-0.394 -1.004,-0.767 0.024,-1.117c9.108,-3.095 19.813,-5.141 29.076,-3.468c6.64,1.199 10.625,4.598 14.11,10.257c3.829,6.227 4.894,12.842 3.187,19.844c-0.942,3.858 -2.738,7.151 -5.387,9.873c-5.078,5.214 -11.046,6.804 -17.904,4.769c-7.574,-2.254 -12.598,-9.991 -13.665,-17.725c-0.05,-0.38 -0.257,-0.505 -0.618,-0.376c-2.524,0.893 -5.011,1.716 -7.457,2.47c-0.166,0.05 -0.335,0.058 -0.506,0.026c-0.094,-0.022 -0.151,-0.113 -0.133,-0.208c0.006,-0.021 0.013,-0.041 0.026,-0.058l6.024,-8.637c0.125,-0.185 0.08,-0.432 -0.098,-0.557c-0.056,-0.037 -0.12,-0.061 -0.187,-0.067" style="fill:#f2f6ff;fill-rule:nonzero;"/><path d="M424.709,286.398c-3.146,6.059 -7.147,13.032 -11.998,20.92c-6.846,11.126 -13.549,22.914 -18.678,35.042c-3.034,7.178 -5.087,14.386 -6.158,21.617c-1.269,8.595 -2.563,17.057 -3.881,25.385c-0.999,6.352 -2.221,12.478 -3.663,18.381c-0.91,3.736 -2.171,7.429 -3.781,11.077c-2.656,6.006 -7.396,11.553 -14.741,8.305c-3.727,-1.644 -5.627,-4.833 -5.696,-9.565c-0.05,-3.2 0.344,-6.673 1.18,-10.415c0.972,-4.341 1.709,-8.468 2.212,-12.377c0.655,-5.065 0.122,-11.507 -3.874,-15.011c-3.461,-3.034 -9.712,-3.282 -14.136,-2.848c-11.929,1.154 -23.989,4.36 -35.709,5.843c-3.954,0.503 -7.662,0.468 -11.121,-0.104c-2.332,-0.385 -4.127,-1.472 -5.387,-3.269c-4.313,-6.146 5.158,-11.152 9.354,-13.134c4.282,-2.027 9.114,-3.965 14.494,-5.814c7.473,-2.57 14.426,-4.992 20.85,-7.265c3.995,-1.409 7.945,-3.055 11.85,-4.937c5.129,-2.472 9.514,-6.05 10.966,-11.595c2.273,-8.719 -10.465,-17.059 -16.699,-20.607c-5.099,-2.894 -10.817,-5.995 -17.152,-9.303c-2.932,-1.532 -5.683,-3.317 -8.254,-5.356c-1.779,-1.414 -2.848,-3.793 -0.783,-5.584c8.544,-7.433 22.328,-0.495 30.316,4.263c8.352,4.972 16.576,10.891 25.536,15.215c2.328,1.13 4.787,1.966 7.369,2.51c5.38,1.135 9.576,-2.372 12.783,-6.253c2.746,-3.321 5.365,-7.131 7.85,-11.435c2.923,-5.06 5.946,-10.346 9.073,-15.86c2.243,-3.958 4.749,-7.714 7.518,-11.269c2.223,-2.854 6.769,-7.013 10.762,-5.134c4.138,1.952 4.212,5.999 3.095,9.817c-0.902,3.085 -2.068,6.005 -3.497,8.76" style="fill:#f2f6ff;fill-rule:nonzero;"/></g></svg>